<?xml version="1.0" encoding="UTF-8"?>
<svg width="68px" height="67px" viewBox="0 0 68 67" version="1.1" xmlns="http://www.w3.org/2000/svg" xmlns:xlink="http://www.w3.org/1999/xlink">
    <!-- Generator: Sketch 58 (84663) - https://sketch.com -->
    <title>Clip 2</title>
    <desc>Created with Sketch.</desc>
    <defs>
        <path d="M53.5,8 C60.2165432,8 66.4767006,9.98938812 71.7256543,13.4073625 L71.7256543,13.4073625 L65.9251914,19.5544622 L65.4821042,19.3083753 C61.9157717,17.3742877 57.8338578,16.2744645 53.5,16.2744645 L53.5,16.2744645 L53.0834636,16.2778522 C39.3640118,16.5011546 28.2718117,27.7351563 28.2718117,41.511581 L28.2718117,41.511581 L28.2751982,41.9282554 C28.4984194,55.6522575 39.7283361,66.7486976 53.5,66.7486976 L53.5,66.7486976 L53.9100902,66.7454142 C67.4176286,66.5289818 78.3796725,55.6399478 78.7203302,42.1571961 L78.7203302,42.1571961 L86.200963,34.2302592 L86.350167,34.9364134 C86.77555,37.0629559 87,39.2614646 87,41.511581 L87,41.511581 L86.9949917,42.1107029 C86.665,61.8154533 70.0825,74.9377366 53.5,75 L53.5,75 L52.9975167,74.9977143 C36.416675,74.7850752 20,61.015042 20,41.511581 L20,41.511581 L20.0044968,40.9582703 C20.3009015,22.7338894 35.2125733,8 53.5,8 Z M82.0505489,15 L88,20.6525387 L54.8448759,56 L37,38.9266856 L42.6379155,32.958756 L54.5314993,44.3377403 L82.0505489,15 Z" id="path-1"></path>
    </defs>
    <g id="Login" stroke="none" stroke-width="1" fill="none" fill-rule="evenodd">
        <g id="Completed-notification_1" transform="translate(-449.000000, -231.000000)">
            <g id="Group-4" transform="translate(429.000000, 223.000000)">
                <mask id="mask-2" fill="white">
                    <use xlink:href="#path-1"></use>
                </mask>
                <use id="Clip-2" fill="#28A745" xlink:href="#path-1"></use>
            </g>
        </g>
    </g>
</svg>