<svg xmlns="http://www.w3.org/2000/svg" xmlns:xlink="http://www.w3.org/1999/xlink" width="10" height="11" viewBox="0 0 10 11">
  <defs>
    <clipPath id="clip-CyberxIcon">
      <rect width="10" height="11"/>
    </clipPath>
  </defs>
  <g id="CyberxIcon" clip-path="url(#clip-CyberxIcon)">
    <g id="Group_1" data-name="Group 1" transform="translate(0.243 0.243)">
      <g id="Icon_feather-search" data-name="Icon feather-search" transform="translate(0 0)">
        <g id="Path_1" data-name="Path 1" transform="translate(-4.5 -4.5)" fill="none" stroke-linecap="round" stroke-linejoin="round">
          <path d="M12.774,8.637A4.137,4.137,0,1,1,8.637,4.5a4.137,4.137,0,0,1,4.137,4.137Z" stroke="none"/>
          <path d="M 8.636882781982422 5.400004386901855 C 6.852063179016113 5.400004386901855 5.400002479553223 6.852065086364746 5.400002479553223 8.636884689331055 C 5.400002479553223 10.42170524597168 6.852063179016113 11.87376403808594 8.636882781982422 11.87376403808594 C 10.42170333862305 11.87376403808594 11.8737621307373 10.42170524597168 11.8737621307373 8.636884689331055 C 11.8737621307373 6.852065086364746 10.42170333862305 5.400004386901855 8.636882781982422 5.400004386901855 M 8.636882781982422 4.500004768371582 C 10.92162322998047 4.500004768371582 12.77376270294189 6.352144241333008 12.77376270294189 8.636884689331055 C 12.77376270294189 10.9216251373291 10.92162322998047 12.77376461029053 8.636882781982422 12.77376461029053 C 6.352142333984375 12.77376461029053 4.500002861022949 10.9216251373291 4.500002861022949 8.636884689331055 C 4.500002861022949 6.352144241333008 6.352142333984375 4.500004768371582 8.636882781982422 4.500004768371582 Z" stroke="none" fill="#e1ac1e"/>
        </g>
        <path id="Path_2" data-name="Path 2" d="M27.224,27.224l-2.249-2.249" transform="translate(-17.916 -17.916)" fill="none" stroke="#e1ac1e" stroke-linecap="round" stroke-linejoin="round" stroke-width="0.9"/>
      </g>
      <path id="Icon_metro-cross" data-name="Icon metro-cross" d="M5.383,4.208h0l-.861-.861.861-.861h0a.089.089,0,0,0,0-.125l-.407-.407a.089.089,0,0,0-.125,0h0l-.861.861-.861-.861h0a.089.089,0,0,0-.125,0L2.6,2.361a.089.089,0,0,0,0,.125h0l.861.861L2.6,4.208h0a.089.089,0,0,0,0,.125L3,4.741a.089.089,0,0,0,.125,0h0L3.99,3.88l.861.861h0a.089.089,0,0,0,.125,0l.407-.407a.089.089,0,0,0,0-.125Z" transform="translate(0.061 0.801)" fill="#d9af39"/>
    </g>
  </g>
</svg>
