<?xml version="1.0" encoding="UTF-8"?>
<svg width="170px" height="44px" viewBox="0 0 170 44" version="1.1" xmlns="http://www.w3.org/2000/svg" xmlns:xlink="http://www.w3.org/1999/xlink">
    <title>Roksit/logo/normal Copy 4</title>
    <g id="preview" stroke="none" stroke-width="1" fill="none" fill-rule="evenodd">
        <g id="UI-Style-Guide_2" transform="translate(-917.000000, -3085.000000)" fill="#FFFFFF">
            <g id="DNS/logo/tram" transform="translate(917.000000, 3085.000000)">
                <g id="Group-26">
                    <path d="M5.02128992,6.66469424 L7.15015457,6.66469424 C8.53709435,6.66636158 9.79872724,6.72138396 10.9048534,6.8288086 C11.8919831,6.91765426 12.8734785,7.11630649 13.8144069,7.41761951 C16.0458159,8.16316083 17.7782511,9.43534492 18.9637082,11.1993957 C20.1534474,12.9694013 20.7567685,15.3353636 20.7567685,18.2310651 C20.7551909,21.165592 20.1493907,23.5925315 18.9560456,25.4439988 C17.7726168,27.2806982 16.0428861,28.5876583 13.8227457,29.3258157 C12.8739293,29.6285578 11.8919831,29.8274483 10.8998952,29.9177231 C9.79962873,30.0246713 8.53822121,30.0789791 7.15105606,30.0789791 L5.02128992,30.0789791 L5.02128992,6.66469424 Z M25.0888706,12.8865105 L25.0888706,12.8862723 C24.6624666,11.2582292 23.9773355,9.73427602 23.0492532,8.35204718 C22.1080994,6.97434399 20.9514899,5.79910409 19.6093992,4.85776885 C18.1318599,3.83020807 16.5170689,3.06227669 14.8137067,2.57684116 C13.7093836,2.25409084 12.5712546,2.0349541 11.4349285,1.92562392 C10.2483445,1.80486052 8.94659541,1.74364514 7.56574069,1.74364514 L0,1.74364514 L0,35.0119378 L7.49812906,35.0119378 C8.87740619,35.0119378 10.1791553,34.9507225 11.3634856,34.8304354 C12.5052205,34.7211053 13.6438003,34.5007775 14.7415877,34.1773127 C16.4550916,33.6894952 18.0716855,32.9127507 19.5489995,31.8663728 C20.8978514,30.9019329 22.0609967,29.701921 23.0089116,28.2965875 C23.9489386,26.8845847 24.6448876,25.3249027 25.077602,23.661369 C25.5389386,21.8911252 25.7670151,20.0627625 25.7555212,18.2367818 C25.7690435,16.42938 25.5445729,14.629124 25.0888706,12.8865105 L25.0888706,12.8865105 Z" id="Fill-1"></path>
                    <path d="M51.6377012,1.74364514 L51.6377012,19.3982408 C51.6365304,21.7721822 51.6920247,24.136118 51.8034816,26.4545522 C50.3472832,24.1890046 48.8697768,21.9577618 47.3957827,19.798702 L34.9044144,1.74364514 L30.0487805,1.74364514 L30.0487805,35.0119378 L35.2657127,35.0119378 L35.2657127,18.0434386 C35.2666494,15.2278226 35.21256,12.6418584 35.1039129,10.3217566 C36.4451422,12.4172095 37.9210095,14.6398761 39.5102069,16.9561663 L52.0109413,35.0119378 L56.8780488,35.0119378 L56.8780488,1.74364514 L51.6377012,1.74364514 Z" id="Fill-3"></path>
                    <path d="M80.6448013,20.5322467 C80.0686444,19.4425664 79.2443285,18.4941409 78.2582883,17.7871544 C77.2631497,17.0823045 76.1738426,16.5443491 75.0258507,16.1899062 C73.8774038,15.8250176 72.6952929,15.4862433 71.5111348,15.1823674 C70.6497429,14.9630069 69.8115518,14.7265534 69.0140762,14.4779923 C68.3232794,14.2695524 67.6611426,13.9673382 67.0472274,13.5798963 C66.5515915,13.2660494 66.1271507,12.8299398 65.8187146,12.3180987 C65.5011801,11.7336122 65.3465071,11.0703079 65.3710728,10.3986945 L65.3717552,10.3804144 L65.3715277,10.3621344 C65.3631117,9.66891727 65.484348,8.99136877 65.7297776,8.35394139 C65.9556457,7.78156246 66.3184448,7.27185796 66.7710907,6.8865527 C67.327231,6.42670285 67.9561586,6.09481329 68.6405865,5.89966792 C69.5554316,5.63852449 70.4984818,5.51388785 71.4576817,5.5331175 C72.8533778,5.53976479 74.2490739,5.71663012 75.6022349,6.0580158 C76.8942092,6.3927542 78.171171,6.83622323 79.3978642,7.37631533 L80.3454636,7.79343262 L80.3454636,2.6650504 L79.9283015,2.48130039 C78.6486101,1.91794278 77.3111438,1.4780348 75.9534336,1.173684 C74.4180769,0.828737262 72.8404126,0.658756627 71.2829922,0.67110159 C69.8618206,0.661605465 68.44861,0.854139396 67.0820288,1.24086908 C65.7870976,1.6002974 64.5856526,2.20615017 63.5065811,3.04418319 C62.4609463,3.86939643 61.5984171,4.95242947 61.0067929,6.18906233 C60.371269,7.58594229 60.0582837,9.14117013 60.1015011,10.6655356 C60.1015011,12.3302063 60.4017487,13.7318343 60.9931453,14.8305359 C61.5633882,15.8955263 62.3745114,16.8232977 63.343947,17.5169896 C64.3320344,18.2106816 65.4124706,18.7400905 66.5545485,19.0904975 C67.6925321,19.4411419 68.8712312,19.7642476 70.0533421,20.0498435 C70.9315661,20.2687292 71.7797654,20.5049453 72.5797431,20.7537438 C73.2773637,20.9633707 73.9456419,21.2693834 74.5650162,21.6625229 C75.0704329,21.9842042 75.5051094,22.4290976 75.8228714,22.9501975 C76.1456375,23.5458419 76.300083,24.2217286 76.2700582,24.905687 L76.2686935,24.935125 L76.2698308,24.9643255 C76.3003105,25.8401057 76.1078791,26.7118499 75.7216516,27.4679789 C75.3706804,28.1113413 74.8607145,28.6471602 74.2538506,29.0134732 C73.5346212,29.4355759 72.7573896,29.7247329 71.9369404,29.8742969 C70.9816074,30.0587591 70.0055754,30.1470731 69.032273,30.1470731 C68.3628575,30.1439868 67.687528,30.0979306 67.0215244,30.0098541 C66.3098013,29.9189287 65.5892072,29.7909684 64.8786214,29.6288221 C64.1907816,29.4742726 63.5040791,29.2781777 62.8342086,29.0452852 C62.2359882,28.8406437 61.6470936,28.5897086 61.0832196,28.2998394 L60.0989991,27.7932211 L60.0989991,32.9004745 L60.4476956,33.1044037 C60.9449238,33.3952226 61.4717217,33.6340501 61.9982922,33.8090162 C62.6877242,34.0578147 63.39831,34.265305 64.107986,34.4250773 C64.8756644,34.6014678 65.6924741,34.7448593 66.5363517,34.8519281 C67.3629422,34.9561481 68.2043177,35.0095638 69.0327279,35.0112256 C69.0886832,35.0119378 69.1441835,35.0119378 69.2003661,35.0119378 C70.7887211,35.0119378 72.3766211,34.8177421 73.9192565,34.4350482 C75.3422479,34.0901015 76.6767572,33.4806877 77.8900302,32.6201014 C79.0225547,31.8036721 79.9546869,30.6964239 80.5908932,29.408512 C81.2632657,27.9883665 81.5974048,26.4008518 81.5578267,24.8370775 C81.5594189,23.1075957 81.2512103,21.6575375 80.6448013,20.5322467" id="Fill-5"></path>
                    <polygon id="Fill-7" points="129.551488 12.4753525 123.874597 26.8321577 118.341629 12.4753525 113.756098 12.4753525 121.549091 32.3903166 116.937867 43.5973037 121.527491 43.5973037 134.146341 12.4753525"></polygon>
                    <path d="M149.395777,28.3363428 C149.010306,28.4442265 148.614065,28.5285762 148.213786,28.5877608 C147.816199,28.6485765 147.411656,28.6807319 146.99769,28.682829 C146.556575,28.6944796 146.119723,28.6283046 145.70284,28.4857024 C145.410035,28.3841099 145.13832,28.2126143 144.924494,27.9975458 C144.729515,27.7948269 144.579859,27.5434088 144.492802,27.2728839 C144.386899,26.9399122 144.334844,26.593426 144.338434,26.2359882 L144.338434,15.5314965 L149.967925,15.5314965 L149.967925,11.3955642 L144.338434,11.3955642 L144.338434,6.03632807 L139.920776,6.03632807 L139.920776,11.3955642 L136.292683,11.3955642 L136.292683,15.5314965 L139.920776,15.5314965 L139.920776,26.7323001 C139.909782,27.5820885 140.04261,28.4188284 140.316793,29.2210828 C140.575942,29.9734729 141.008082,30.6620183 141.574397,31.2200778 C142.163373,31.7816326 142.8771,32.2110705 143.645125,32.4641197 C144.482257,32.7306834 145.348332,32.8655964 146.213959,32.8655964 C146.284412,32.8655964 146.354865,32.8648973 146.425542,32.8630332 C147.107183,32.857907 147.793313,32.8001205 148.459248,32.6922367 C148.911582,32.6232657 149.36055,32.5083916 149.793588,32.3506437 L150.243902,32.1861384 L150.243902,28.0989053 L149.395777,28.3363428 Z" id="Fill-9"></path>
                    <path d="M156.307219,19.4949509 C156.39128,19.1122243 156.514599,18.7378572 156.676485,18.3750125 C156.918275,17.8239676 157.255209,17.3242089 157.674357,16.8929073 C158.084037,16.4778726 158.564383,16.147562 159.102693,15.9103347 C159.646777,15.6703964 160.258987,15.5488457 160.845332,15.5524605 L160.857341,15.5526865 L160.869119,15.5522346 C161.435141,15.5404862 162.013404,15.6572924 162.520076,15.8902269 C162.979407,16.1100575 163.388625,16.4344939 163.700618,16.8244503 C164.043096,17.2598187 164.29597,17.7482808 164.453006,18.278992 C164.573093,18.6768559 164.653689,19.0837571 164.694103,19.4949509 L156.307219,19.4949509 Z M168.806371,17.1637982 C168.442878,15.987603 167.845448,14.9173694 167.024935,13.97682 C166.290329,13.1544323 165.351576,12.5112077 164.303591,12.1142475 C163.270155,11.734232 162.18776,11.541965 161.091509,11.541965 C161.057331,11.541965 161.022229,11.5424169 160.988512,11.542191 C159.762245,11.542191 158.565537,11.7737699 157.430489,12.2310536 C156.279045,12.6976005 155.22367,13.4176415 154.374982,14.3168457 C153.448469,15.3127481 152.743885,16.4607019 152.279243,17.7340472 C151.736775,19.2620164 151.482053,20.8566351 151.522467,22.4575799 C151.524084,24.2925889 151.795433,25.8903707 152.323582,27.1935389 C152.798155,28.4427096 153.579179,29.5798187 154.594602,30.4923527 C155.579311,31.3368816 156.765626,31.9658726 158.023994,32.3113206 C159.324853,32.6721319 160.668898,32.8546839 162.011556,32.8546839 C162.046428,32.8546839 162.081299,32.854458 162.115939,32.854232 C163.249601,32.8623656 164.408205,32.760019 165.52293,32.5548739 C166.469997,32.3935594 167.390967,32.1100164 168.26067,31.7128303 L168.660189,31.5302783 L168.660189,27.5552539 L167.729057,27.8889535 C166.926787,28.1765632 166.093803,28.4049792 165.259664,28.5665196 C164.36017,28.7323527 163.448437,28.8118803 162.525157,28.8055543 L162.515458,28.8055543 C161.627742,28.8143656 160.736331,28.6962038 159.873556,28.4630433 C159.131329,28.2669355 158.453072,27.9246505 157.867881,27.453811 C157.285462,26.968286 156.822667,26.3458469 156.533074,25.6624066 C156.249947,24.9681217 156.082519,24.2460472 156.03333,23.5074798 L169.380938,23.5074798 L169.414655,22.8644811 C169.436363,22.4494464 169.436363,22.1776518 169.436363,22.0615234 L169.436132,21.6659188 C169.466846,20.1411127 169.255078,18.6269252 168.806371,17.1637982 L168.806371,17.1637982 Z" id="Fill-11"></path>
                    <path d="M113.653674,8.58622418 C113.59313,8.5028756 113.526897,8.42447143 113.455883,8.35077622 C109.197114,3.65829847 104.007656,1.92540152 97.9259757,3.24626455 C96.9779893,3.447808 96.0598195,3.77696424 95.1946823,4.22572804 C94.3117916,4.63776197 92.8118563,5.91388988 92.8118563,5.91388988 L92.2926829,8.97471331 L92.7592789,10.387401 L93.0233039,10.102509 C98.3811913,5.01447869 106.438735,5.66666953 111.127228,11.4021817 L113.756098,8.81225422 C113.729695,8.73337915 113.695326,8.65780036 113.653674,8.58622418" id="Fill-14"></path>
                    <path d="M109.442431,12.1676506 C106.399203,7.78584568 99.3436233,6.89188336 95.177299,10.1133901 C94.5727291,10.5395275 93.3658537,11.8526794 93.3658537,11.8526794 L94.7244377,15.6948647 L94.925961,15.3196784 C96.4158748,13.0708768 98.403936,12.0194289 100.862973,11.9568979 C103.32201,11.8943668 105.312336,12.9712903 106.933579,15.0695542 L109.44696,12.1769145 C109.469603,12.2649211 109.469603,12.207022 109.442431,12.1676506" id="Fill-16"></path>
                    <path d="M113.653674,29.24249 C113.593586,29.32984 113.527352,29.4122456 113.455883,29.4897069 C109.197114,34.1703467 104.007656,35.9032193 97.9259757,34.5823748 C96.9779893,34.3808342 96.0598195,34.0516826 95.1946823,33.602925 C94.3117916,33.1908969 92.8118563,31.9147869 92.8118563,31.9147869 L92.2926829,28.8540064 L92.7592789,27.4413384 L93.0233039,27.7262265 C98.3811913,32.8141855 106.438735,32.1620038 111.127228,26.426572 L113.756098,29.0164632 C113.729695,29.0953371 113.695326,29.1709149 113.653674,29.24249" id="Fill-18"></path>
                    <path d="M109.442399,25.6614202 C106.399177,30.041303 99.3436113,30.9376618 95.1772954,27.7158655 C94.5727267,27.2896897 93.3658537,25.9764197 93.3658537,25.9764197 L94.7244349,22.133889 L94.9259578,22.509109 C96.433983,24.760429 98.4152474,25.81892 100.881072,25.8745081 C103.346897,25.9300963 105.312312,24.8530759 106.933552,22.7685204 L109.447154,25.6614202 C109.46957,25.564141 109.46957,25.6220453 109.442399,25.6614202" id="Fill-20"></path>
                    <path d="M88.7378064,17.8289961 L87.3636836,12.4753525 C85.3536752,14.8670223 85.4037621,24.0572559 87.1960015,25.3534012 L88.7639387,20.0899243 L89.0731707,18.9853831 L88.7378064,17.8289961 Z" id="Fill-22"></path>
                    <path d="M89.3252084,28.5729134 L91.0057263,28.2382251 L94.4390244,18.3777915 L91.0057263,8.51969836 L89.3252084,8.18266953 C88.5572117,9.26397035 88,10.2235663 88,10.2235663 L90.4778036,18.3777915 L88,26.5343571 C88,26.5343571 88.5572117,27.4939531 89.3252084,28.5729134" id="Fill-24"></path>
                </g>
            </g>
        </g>
    </g>
</svg>