<svg width="500" height="501" viewBox="0 0 500 501" fill="none" xmlns="http://www.w3.org/2000/svg">
<circle cx="250" cy="250.379" r="242" fill="white" stroke="#11132F" stroke-width="16"/>
<path d="M250.45 389.86C246.607 389.86 242.823 388.839 239.399 386.797L136.217 325.476C129.67 321.573 125.646 314.486 125.646 306.858V264.516C125.646 258.69 130.331 254.006 136.157 254.006C141.983 254.006 146.667 258.69 146.667 264.516V306.858C146.667 307.098 146.787 307.278 146.968 307.399L250.15 368.719C250.33 368.839 250.631 368.839 250.811 368.719L353.032 305.537C353.212 305.417 353.333 305.236 353.333 304.996V203.796C353.333 203.615 353.333 203.435 353.032 203.255C352.732 203.075 352.492 203.195 352.372 203.255L258.558 257.789C251.591 261.813 243.063 261.693 236.276 257.489L150.391 204.156C143.965 200.132 140.121 193.225 140.181 185.658C140.241 178.03 144.145 171.183 150.631 167.279L239.039 114.007C245.946 109.862 254.474 109.862 261.381 114.007L306.246 141.093C311.231 144.096 312.792 150.523 309.789 155.508C306.786 160.493 300.36 162.054 295.375 159.051L250.51 131.964C250.33 131.844 250.03 131.844 249.85 131.964L161.442 185.177C161.322 185.237 161.142 185.357 161.142 185.718C161.142 186.078 161.322 186.198 161.442 186.258L247.327 239.591C247.507 239.711 247.808 239.711 247.988 239.591L341.801 185.057C348.588 181.093 356.696 181.093 363.483 184.997C370.269 188.901 374.353 195.928 374.353 203.736V304.936C374.353 312.504 370.51 319.35 364.083 323.374L261.862 386.617C258.318 388.779 254.414 389.86 250.45 389.86Z" fill="#11132F" stroke="#11132F" stroke-width="2.89582" stroke-miterlimit="10"/>
</svg>
