<svg width="492" height="249" viewBox="0 0 492 249" fill="none" xmlns="http://www.w3.org/2000/svg">
<g clip-path="url(#clip0_22778_235145)">
<path d="M385.086 244.625C381.78 244.625 378.473 243.732 375.534 242L286.518 189.095C280.902 185.736 277.386 179.595 277.386 173.034V136.452C277.386 131.465 281.427 127.372 286.466 127.372C291.504 127.372 295.546 131.413 295.546 136.452V173.034C295.546 173.244 295.651 173.401 295.808 173.506L384.824 226.464C384.981 226.569 385.244 226.569 385.401 226.464L473.63 171.984C473.787 171.879 473.892 171.722 473.892 171.512V84.1234C473.892 83.9659 473.892 83.8085 473.63 83.651C473.367 83.4935 473.21 83.5985 473.052 83.651L392.067 130.731C386.084 134.195 378.683 134.09 372.857 130.468L298.695 84.3858C293.131 80.9218 289.825 74.9384 289.877 68.3777C289.93 61.817 293.289 55.8861 298.905 52.527L375.219 6.60206C381.15 3.03304 388.55 3.03304 394.481 6.60206L433.268 29.9582C437.572 32.53 438.937 38.0935 436.365 42.3973C433.793 46.7011 428.23 48.0657 423.926 45.4939L385.191 22.1378C385.034 22.0328 384.771 22.0328 384.614 22.1378L308.3 68.0628C308.195 68.1152 308.037 68.2202 308.037 68.5351C308.037 68.8501 308.195 68.955 308.3 69.0075L382.41 115.037C382.567 115.142 382.777 115.142 382.987 115.037L463.972 67.9578C469.798 64.5462 476.779 64.5462 482.657 67.9053C488.536 71.2644 492 77.3527 492 84.0709V171.407C492 177.915 488.693 183.846 483.129 187.31L394.901 241.843C391.909 243.68 388.498 244.625 385.086 244.625Z" fill="white" fill-opacity="0.02" stroke="white" stroke-opacity="0.02" stroke-width="3.60765" stroke-miterlimit="10"/>
</g>
<defs>
<clipPath id="clip0_22778_235145">
<rect width="492" height="249" fill="white"/>
</clipPath>
</defs>
</svg>
