<svg width="1126" height="125" viewBox="0 0 1126 125" fill="none" xmlns="http://www.w3.org/2000/svg">
<g clip-path="url(#clip0_22778_235114)">
<path d="M386.84 102.949V25.6348H416.551C422.351 25.6348 427.768 26.6197 432.692 28.6442C437.617 30.614 441.939 33.3498 445.605 36.8517C449.271 40.3535 452.171 44.4573 454.251 49.1629C456.33 53.8685 457.424 58.9571 457.424 64.4288C457.424 69.9005 456.385 74.9344 454.305 79.64C452.226 84.2909 449.326 88.3947 445.66 91.8418C441.939 95.289 437.617 98.0248 432.692 99.9946C427.768 101.964 422.406 103.004 416.551 103.004H386.84V102.949ZM402.872 88.6682H416.332C419.779 88.6682 423.007 88.0664 426.017 86.8079C428.972 85.5494 431.598 83.8532 433.841 81.6098C436.085 79.4211 437.836 76.8495 439.039 73.9495C440.243 71.0495 440.845 67.876 440.845 64.3741C440.845 60.9817 440.243 57.8081 439.039 54.7987C437.836 51.7893 436.085 49.2176 433.841 46.9742C431.598 44.7308 428.972 42.9799 426.017 41.7214C423.007 40.463 419.834 39.8611 416.441 39.8611H402.872V88.6682Z" fill="#10123B"/>
<path d="M468.367 102.949V25.6348H483.633L521.935 75.5363V25.6348H537.091V102.949H522.974L483.524 51.2421V102.949H468.367Z" fill="#10123B"/>
<path d="M578.567 104.044C572.384 104.044 566.31 102.895 560.346 100.487C554.382 98.1343 549.075 94.8513 544.424 90.6381L553.616 79.0382C558.103 83.0325 562.426 85.8778 566.584 87.6834C570.742 89.4891 575.12 90.3645 579.771 90.3645C582.999 90.3645 585.79 89.9815 588.142 89.2155C590.495 88.4494 592.301 87.3004 593.614 85.823C594.927 84.3457 595.529 82.5948 595.529 80.625C595.529 77.9986 594.599 75.9194 592.684 74.442C590.769 72.9647 587.486 71.8703 582.835 71.1043L567.459 68.4779C560.894 67.3289 555.914 64.976 552.467 61.4742C549.02 57.9723 547.269 53.4308 547.269 47.8498C547.269 43.0894 548.528 38.931 551.045 35.4291C553.561 31.9272 557.063 29.2461 561.605 27.3858C566.146 25.5254 571.509 24.5952 577.801 24.5952C583.382 24.5952 589.073 25.5254 594.763 27.3858C600.454 29.2461 605.433 31.9272 609.701 35.3744L601.11 47.1932C593.012 41.0102 584.859 37.8913 576.707 37.8913C573.861 37.8913 571.344 38.2744 569.21 38.9857C567.076 39.697 565.435 40.7366 564.286 42.0498C563.137 43.363 562.59 44.8403 562.59 46.5366C562.59 49.0535 563.465 50.9139 565.161 52.1724C566.912 53.4308 569.703 54.4157 573.588 55.1818L588.142 57.4799C595.857 58.7383 601.657 61.2006 605.542 64.8119C609.427 68.4779 611.342 73.2382 611.342 79.2023C611.342 84.2363 609.974 88.5589 607.293 92.2249C604.612 95.8909 600.837 98.7909 595.912 100.815C591.097 103.004 585.297 104.044 578.567 104.044Z" fill="#10123B"/>
<path d="M658.781 104.153C653.2 104.153 647.947 103.114 643.077 101.089C638.208 99.0645 633.94 96.2193 630.274 92.608C626.608 88.942 623.762 84.7288 621.738 79.9137C619.713 75.0987 618.674 69.9006 618.674 64.2648C618.674 58.6837 619.659 53.4856 621.738 48.6159C623.762 43.8008 626.608 39.5329 630.274 35.9216C633.94 32.2556 638.208 29.4651 643.077 27.4406C647.947 25.4161 653.145 24.4312 658.781 24.4312C662.83 24.4312 666.715 24.9236 670.436 25.9085C674.156 26.8934 677.604 28.316 680.832 30.2311C684.06 32.0915 686.905 34.3896 689.368 37.1254L683.732 43.0895C680.722 39.6424 677.002 36.9612 672.57 35.1009C668.138 33.2405 663.541 32.3103 658.781 32.3103C654.294 32.3103 650.136 33.1311 646.306 34.7179C642.476 36.3594 639.138 38.6027 636.293 41.5027C633.447 44.4027 631.259 47.7951 629.672 51.68C628.085 55.5649 627.319 59.778 627.319 64.3195C627.319 68.8063 628.085 73.0195 629.672 76.9043C631.259 80.7892 633.502 84.2364 636.347 87.1363C639.193 90.0363 642.585 92.3344 646.47 93.9212C650.355 95.5627 654.513 96.3287 659 96.3287C663.76 96.3287 668.356 95.3985 672.679 93.5382C677.002 91.6778 680.668 89.0514 683.622 85.7684L689.149 91.5137C686.577 94.14 683.677 96.4381 680.504 98.3532C677.275 100.268 673.883 101.746 670.162 102.731C666.441 103.661 662.666 104.153 658.781 104.153Z" fill="#0CAD5A"/>
<path d="M720.064 104.044C715.851 104.044 712.13 103.168 708.902 101.363C705.674 99.5569 703.157 97.0399 701.351 93.8664C699.545 90.6381 698.67 86.9174 698.67 82.6495V47.6309H706.713V81.008C706.713 85.9325 708.136 89.8173 710.926 92.6626C713.717 95.5079 717.492 96.9305 722.198 96.9305C725.536 96.9305 728.49 96.1645 731.062 94.6871C733.689 93.155 735.768 91.0758 737.409 88.34V47.6856H745.562V103.004H737.409V96.6022C733.032 101.527 727.287 104.044 720.064 104.044Z" fill="#0CAD5A"/>
<path d="M759.459 102.949V25.6348L767.612 23.7744V53.4855C772.317 48.9988 778.227 46.7554 785.395 46.7554C790.647 46.7554 795.353 48.0139 799.512 50.5855C803.725 53.1025 807.062 56.5496 809.525 60.8175C811.987 65.0854 813.245 69.9005 813.245 75.2627C813.245 80.6249 811.987 85.4947 809.525 89.7626C807.062 94.0852 803.725 97.4776 799.512 100.049C795.298 102.566 790.593 103.879 785.285 103.879C782.057 103.879 778.883 103.332 775.819 102.238C772.755 101.144 769.965 99.5569 767.502 97.4776V103.004H759.459V102.949ZM784.683 96.6569C788.568 96.6569 792.07 95.7267 795.189 93.8663C798.308 92.006 800.715 89.4343 802.521 86.2607C804.327 83.0325 805.202 79.4212 805.202 75.3721C805.202 71.3231 804.327 67.6571 802.521 64.4288C800.715 61.2005 798.253 58.6289 795.189 56.7685C792.125 54.9081 788.623 53.978 784.683 53.978C781.236 53.978 778.008 54.6346 774.998 56.0025C771.989 57.3704 769.582 59.2855 767.666 61.693V89.106C769.582 91.4588 772.044 93.3192 775.053 94.6871C778.063 95.9456 781.291 96.6569 784.683 96.6569Z" fill="#0CAD5A"/>
<path d="M850.617 103.934C845.309 103.934 840.494 102.676 836.226 100.104C831.904 97.5871 828.511 94.1399 825.94 89.7626C823.423 85.44 822.109 80.5702 822.109 75.208C822.109 69.9005 823.313 65.0855 825.775 60.8176C828.183 56.495 831.466 53.1025 835.624 50.5308C839.728 48.0139 844.324 46.7007 849.413 46.7007C854.337 46.7007 858.77 47.9592 862.709 50.5308C866.649 53.0478 869.768 56.495 872.12 60.8176C874.418 65.1402 875.622 69.9552 875.622 75.208V77.725H830.207C830.645 81.3363 831.794 84.5645 833.709 87.4645C835.57 90.3098 838.032 92.6079 841.041 94.2494C844.051 95.8909 847.388 96.7116 851 96.7116C853.845 96.7116 856.69 96.2739 859.371 95.3984C862.107 94.523 864.351 93.2645 866.211 91.623L871.3 97.0399C868.235 99.338 865.007 101.034 861.615 102.183C858.222 103.387 854.556 103.934 850.617 103.934ZM830.372 71.2684H867.36C866.922 67.9307 865.828 64.976 864.077 62.4043C862.326 59.7779 860.192 57.7534 857.62 56.2214C855.049 54.6893 852.204 53.978 849.139 53.978C845.966 53.978 843.066 54.6893 840.439 56.1667C837.813 57.644 835.57 59.6685 833.819 62.2949C832.013 64.8666 830.919 67.876 830.372 71.2684Z" fill="#0CAD5A"/>
<path d="M306.297 125C304.601 125 302.85 124.562 301.318 123.632L255.137 96.1644C252.237 94.4134 250.377 91.2399 250.377 87.8474V68.8608C250.377 66.2891 252.456 64.1552 255.083 64.1552C257.709 64.1552 259.788 66.2344 259.788 68.8608V87.8474C259.788 87.9569 259.843 88.0663 259.952 88.121L306.188 115.589C306.297 115.643 306.407 115.643 306.461 115.589L352.259 87.3003C352.369 87.2456 352.423 87.1361 352.423 87.0267V41.6667C352.423 41.6119 352.423 41.5025 352.259 41.3931C352.095 41.3384 352.04 41.3384 351.986 41.3931L309.963 65.8514C306.844 67.657 303.014 67.6023 299.95 65.6872L261.43 41.8308C258.53 40.0252 256.834 36.9063 256.834 33.5139C256.834 30.1215 258.584 27.0573 261.539 25.2517L301.154 1.39527C304.218 -0.465091 308.103 -0.465091 311.167 1.39527L331.303 13.5424C333.546 14.9103 334.257 17.7555 332.89 19.9989C331.522 22.2423 328.676 22.9536 326.433 21.5857L306.297 9.43861C306.188 9.38389 306.078 9.38389 306.024 9.43861L266.409 33.3497C266.354 33.4045 266.245 33.4592 266.245 33.6233C266.245 33.7875 266.354 33.8422 266.409 33.8969L304.875 57.808C304.984 57.8628 305.094 57.8628 305.148 57.808L347.225 33.295C350.235 31.5441 353.901 31.5441 356.91 33.295C359.974 35.046 361.78 38.1648 361.78 41.7214V87.0814C361.78 90.4738 360.084 93.538 357.184 95.3436L311.386 123.577C309.799 124.508 308.048 125 306.297 125Z" fill="url(#paint0_linear_22778_235114)" stroke="url(#paint1_linear_22778_235114)" stroke-width="1.87295" stroke-miterlimit="10"/>
</g>
<defs>
<linearGradient id="paint0_linear_22778_235114" x1="250.379" y1="62.5204" x2="361.783" y2="62.5204" gradientUnits="userSpaceOnUse">
<stop offset="0.00117653" stop-color="#10123B"/>
<stop offset="0.1605" stop-color="#133849"/>
<stop offset="0.32" stop-color="#165753"/>
<stop offset="0.4759" stop-color="#167259"/>
<stop offset="0.6251" stop-color="#158A5B"/>
<stop offset="0.7657" stop-color="#119C5A"/>
<stop offset="0.8943" stop-color="#0EA75A"/>
<stop offset="1" stop-color="#0CAD5A"/>
</linearGradient>
<linearGradient id="paint1_linear_22778_235114" x1="249.442" y1="62.5204" x2="362.719" y2="62.5204" gradientUnits="userSpaceOnUse">
<stop offset="0.00117653" stop-color="#10123B"/>
<stop offset="0.1605" stop-color="#133849"/>
<stop offset="0.32" stop-color="#165753"/>
<stop offset="0.4759" stop-color="#167259"/>
<stop offset="0.6251" stop-color="#158A5B"/>
<stop offset="0.7657" stop-color="#119C5A"/>
<stop offset="0.8943" stop-color="#0EA75A"/>
<stop offset="1" stop-color="#0CAD5A"/>
</linearGradient>
<clipPath id="clip0_22778_235114">
<rect width="1126" height="125" fill="white"/>
</clipPath>
</defs>
</svg>
