<svg width="89" height="20" viewBox="0 0 89 20" fill="none" xmlns="http://www.w3.org/2000/svg">
<path d="M32.7866 3.53271H30.3184V19.2934H32.7866V3.53271Z" fill="#16173F" stroke="#16173F" stroke-width="0.0235516" stroke-miterlimit="10"/>
<path d="M34.8398 3.63623V19.1897H42.9416V17.1925H37.0725V3.63623H34.8398Z" fill="#16173F"/>
<path d="M56.8841 5.75578C56.1304 5.03981 55.2543 4.484 54.2557 4.09775C53.2571 3.7115 52.1455 3.51367 50.9491 3.51367H45.3721V19.3121H50.9491C52.1455 19.3121 53.2571 19.1142 54.2651 18.728C55.2732 18.3417 56.1493 17.7765 56.8935 17.07C57.6377 16.3634 58.2218 15.5156 58.6457 14.5641C59.0697 13.6126 59.2769 12.5481 59.2769 11.4176C59.2769 10.2965 59.0602 9.24142 58.6457 8.28051C58.2218 7.31961 57.6283 6.47175 56.8841 5.75578ZM56.6957 11.4364C56.6957 12.2278 56.5544 12.972 56.2623 13.6503C55.9797 14.3286 55.5746 14.9315 55.0565 15.4402C54.5383 15.9489 53.926 16.354 53.2383 16.6272C52.5506 16.9004 51.7969 17.0417 50.9868 17.0417H47.878V5.77462H50.9679C51.7875 5.77462 52.5506 5.91593 53.2383 6.20797C53.926 6.49059 54.5289 6.89568 55.0471 7.39497C55.5558 7.89427 55.9609 8.50661 56.2529 9.18489C56.5449 9.8726 56.6957 10.6357 56.6957 11.4364Z" fill="#0CAD5A"/>
<path d="M71.863 14.9597L63.2714 3.51367H60.8691V19.3121H63.2526V7.52686L72.0326 19.3121H74.237V3.51367H71.863V14.9597Z" fill="#0CAD5A"/>
<path d="M87.7087 11.7095C86.9268 11.003 85.6833 10.5037 84.0253 10.2399L81.4817 9.83479C80.5208 9.67464 79.8143 9.42029 79.3997 9.09056C78.9852 8.76084 78.7874 8.31807 78.7874 7.72457C78.7874 7.27238 78.9193 6.86729 79.1831 6.53757C79.4469 6.19843 79.8331 5.93465 80.3324 5.74624C80.8317 5.55783 81.4346 5.46362 82.1035 5.46362C83.7992 5.46362 85.5043 6.10422 87.1718 7.36659L87.2377 7.42311L88.632 5.48246L88.566 5.43536C87.6805 4.76649 86.6819 4.22952 85.5797 3.86211C84.4775 3.48529 83.347 3.29688 82.2165 3.29688C81.0672 3.29688 80.0309 3.48529 79.1548 3.86211C78.2693 4.23894 77.5816 4.78534 77.1011 5.47304C76.6207 6.17017 76.3757 6.98034 76.3757 7.88472C76.3757 9.02462 76.7431 9.93842 77.4591 10.6261C78.1751 11.3044 79.2773 11.7754 80.7281 12.011L83.3187 12.4537C84.4304 12.6327 85.2405 12.9059 85.7116 13.2733C86.1826 13.6313 86.4181 14.1589 86.4181 14.8277C86.4181 15.3082 86.2674 15.751 85.9565 16.1278C85.6456 16.5046 85.2123 16.8155 84.6659 17.0322C84.1101 17.2488 83.46 17.3619 82.7347 17.3619C81.7643 17.3619 80.8411 17.164 79.965 16.7684C79.0889 16.3727 78.2222 15.751 77.3837 14.9314L77.3178 14.8654L75.7822 16.6459L75.8387 16.7024C76.7337 17.6162 77.7794 18.3228 78.9476 18.8127C80.1157 19.3025 81.3404 19.5475 82.5933 19.5475C83.8369 19.5475 84.9485 19.3496 85.9 18.9445C86.8515 18.5489 87.6051 17.9648 88.1233 17.23C88.6414 16.4858 88.9052 15.6285 88.9052 14.6582C88.9052 13.4146 88.5001 12.4255 87.7087 11.7095Z" fill="#0CAD5A"/>
<path d="M5.815 9.90103L10.8456 3.43848H8.4151L2.22574 11.2105V3.43848H0.0966797V19.3499H2.22574V14.3193L4.47727 11.5779L10.0449 19.3499H12.4377L5.815 9.90103Z" fill="#16173F" stroke="#16173F" stroke-width="0.0942063" stroke-miterlimit="10"/>
<mask id="mask0_22778_235093" style="mask-type:luminance" maskUnits="userSpaceOnUse" x="11" y="8" width="18" height="12">
<path d="M28.9904 8.42188H11.7412V19.9998H28.9904V8.42188Z" fill="white"/>
</mask>
<g mask="url(#mask0_22778_235093)">
<path d="M28.1518 8.11148L26.2676 7.59335C26.2488 7.65929 26.23 7.72524 26.2111 7.8006L26.1263 7.78176L26.0981 7.86654C24.8263 12.4921 21.7175 15.6857 20.3703 16.8915C16.9506 13.8298 15.3774 10.2688 14.652 7.81944L14.6237 7.73466L14.539 7.76292C14.5201 7.69697 14.5013 7.62161 14.473 7.55566L12.5983 8.10206C12.457 7.81002 12.6171 8.40352 12.6171 8.40352C13.4838 11.3333 15.4057 15.5632 19.6826 19.0771L20.3232 19.6047L20.9921 19.1054C21.2088 18.9452 26.2865 15.1016 28.1235 8.42236C28.1329 8.42236 28.2837 7.82886 28.1518 8.11148Z" fill="#16173F" stroke="#16173F" stroke-width="0.0471032" stroke-miterlimit="10"/>
</g>
<mask id="mask1_22778_235093" style="mask-type:luminance" maskUnits="userSpaceOnUse" x="10" y="0" width="19" height="7">
<path d="M28.5757 0H10.8555V6.68865H28.5757V0Z" fill="white"/>
</mask>
<g mask="url(#mask1_22778_235093)">
<path d="M28.3121 4.09811L28.2932 3.25968L27.4736 3.17489C27.4265 3.17489 23.1402 2.69444 20.8509 1.05525L20.3422 0.697266L19.8147 1.03641C19.7864 1.05525 16.6964 3.02416 13.0601 3.25026L12.2028 3.30678L12.1934 4.1829C12.1934 4.23942 12.184 5.62426 12.6173 7.64969L12.6361 7.73448L14.4449 7.32939L14.4261 7.24461C14.2282 6.32138 14.134 5.54889 14.0869 5.0496C16.9414 4.68219 19.3342 3.47635 20.2857 2.9488C22.2735 4.15464 24.9583 4.71988 26.4374 4.94597C26.4091 5.7373 26.3337 6.53806 26.1924 7.31997L26.1736 7.40476L28.0012 7.7439L28.02 7.65911C28.2461 6.49095 28.3403 5.29453 28.3121 4.09811Z" fill="#0CAD5A" stroke="#0CAD5A" stroke-width="0.188413" stroke-miterlimit="10"/>
</g>
</svg>
