<svg width="1126" height="125" viewBox="0 0 1126 125" fill="none" xmlns="http://www.w3.org/2000/svg">
<path fill-rule="evenodd" clip-rule="evenodd" d="M165.622 8.68457C174.103 11.8345 186.979 17.0816 204.64 31.8536C174.37 50.0767 145.593 86.6875 129.378 123.717H74.6079C91.7155 83.4131 123.985 27.1374 165.622 8.68457Z" fill="#11132F"/>
<path fill-rule="evenodd" clip-rule="evenodd" d="M22.2769 114.994C36.1583 79.14 61.2164 31.676 97.3813 3.16949C101.119 2.31272 126.962 -2.56715 152.395 4.39435C132.873 14.1557 90.4966 52.4759 64.8968 114.994H22.2769Z" fill="#11132F"/>
<path fill-rule="evenodd" clip-rule="evenodd" d="M212.877 39.9307C220.026 47.3477 229.736 59.3793 236.601 77.0017C217.956 88.1888 203.745 103.287 191.76 123.716H141.352C156.874 89.4961 183.284 56.5796 212.877 39.9307Z" fill="#11132F"/>
<path fill-rule="evenodd" clip-rule="evenodd" d="M215.903 106.271C222.929 97.772 230.941 90.0515 239.476 85.0552C241.268 90.2299 243.295 97.3778 244.5 106.271H215.903Z" fill="#11132F"/>
<path fill-rule="evenodd" clip-rule="evenodd" d="M0.668213 99.0014C11.5257 42.9692 60.2129 12.863 80.891 7.78174C45.3616 30.3898 26.7775 66.6709 15.4464 99.0014H0.668213Z" fill="#11132F"/>
<path d="M337.515 8.23705H389.652C401.728 8.23705 412.439 10.4948 421.785 15.0102C431.131 19.5256 438.376 25.9312 443.522 34.2269C448.667 42.5227 451.24 52.2361 451.24 63.3671C451.24 74.4981 448.667 84.2115 443.522 92.5072C438.376 100.803 431.131 107.209 421.785 111.724C412.439 116.239 401.728 118.497 389.652 118.497H337.515V8.23705ZM388.392 93.6098C397.843 93.6098 405.403 90.9321 411.074 85.5766C416.849 80.2211 419.737 72.8179 419.737 63.3671C419.737 53.9162 416.849 46.513 411.074 41.1575C405.403 35.8021 397.843 33.1243 388.392 33.1243H368.703V93.6098H388.392ZM572.553 8.23705V118.497H546.878L498.206 59.7442V118.497H467.649V8.23705H493.323L541.995 66.9899V8.23705H572.553ZM633.301 120.702C624.375 120.702 615.712 119.6 607.311 117.394C598.91 115.189 592.085 112.249 586.834 108.574L597.072 85.5766C602.008 88.8319 607.731 91.4571 614.242 93.4523C620.752 95.4475 627.158 96.4451 633.458 96.4451C645.429 96.4451 651.415 93.4523 651.415 87.4668C651.415 84.3165 649.682 82.0063 646.217 80.5361C642.857 78.961 637.396 77.3333 629.835 75.6532C621.54 73.868 614.609 71.9778 609.044 69.9827C603.478 67.8825 598.7 64.5747 594.71 60.0593C590.719 55.5439 588.724 49.4533 588.724 41.7876C588.724 35.067 590.562 29.0289 594.237 23.6735C597.913 18.213 603.373 13.9076 610.619 10.7573C617.969 7.607 626.948 6.03185 637.554 6.03185C644.799 6.03185 651.94 6.87193 658.976 8.55209C666.011 10.1272 672.207 12.4899 677.562 15.6402L667.954 38.7948C657.453 33.1243 647.267 30.2891 637.396 30.2891C631.201 30.2891 626.685 31.2341 623.85 33.1243C621.015 34.9095 619.597 37.2722 619.597 40.2125C619.597 43.1527 621.277 45.3579 624.637 46.8281C627.998 48.2982 633.406 49.8208 640.861 51.396C649.262 53.1811 656.193 55.1238 661.653 57.224C667.219 59.2192 671.997 62.4745 675.987 66.9899C680.083 71.4003 682.13 77.4383 682.13 85.104C682.13 91.7196 680.293 97.7052 676.617 103.061C672.942 108.416 667.429 112.722 660.078 115.977C652.728 119.127 643.802 120.702 633.301 120.702Z" fill="#11132F"/>
<path d="M702.692 118.497V7.44444H743.963C762.55 7.44444 776.885 12.2226 786.966 21.7789C797.153 31.3352 802.246 45.0396 802.246 62.892C802.246 80.6394 797.153 94.3438 786.966 104.005C776.885 113.666 762.55 118.497 743.963 118.497H702.692ZM722.855 101.8H742.703C768.326 101.8 781.138 88.8305 781.138 62.892C781.138 37.0585 768.326 24.1417 742.703 24.1417H722.855V101.8ZM855.916 120.072C847.935 120.072 841.004 118.445 835.123 115.189C829.243 111.934 824.674 107.313 821.419 101.327C818.164 95.2364 816.536 88.0954 816.536 79.9043C816.536 71.7132 818.164 64.6247 821.419 58.6389C824.674 52.6531 829.243 48.0325 835.123 44.777C841.004 41.5216 847.935 39.8939 855.916 39.8939C863.897 39.8939 870.828 41.5216 876.709 44.777C882.59 48.0325 887.158 52.6531 890.413 58.6389C893.669 64.6247 895.297 71.7132 895.297 79.9043C895.297 88.0954 893.669 95.2364 890.413 101.327C887.158 107.313 882.59 111.934 876.709 115.189C870.828 118.445 863.897 120.072 855.916 120.072ZM855.916 105.108C861.797 105.108 866.523 103.007 870.093 98.8069C873.664 94.5013 875.449 88.2004 875.449 79.9043C875.449 71.5032 873.664 65.2548 870.093 61.1593C866.523 56.9587 861.797 54.8584 855.916 54.8584C850.035 54.8584 845.31 56.9587 841.739 61.1593C838.169 65.2548 836.384 71.5032 836.384 79.9043C836.384 88.2004 838.169 94.5013 841.739 98.8069C845.31 103.007 850.035 105.108 855.916 105.108ZM911.863 118.497V41.4691H931.081V53.2832C933.391 49.0826 936.594 45.8272 940.69 43.5169C944.785 41.1015 949.511 39.8939 954.867 39.8939C966.418 39.8939 973.979 44.9345 977.55 55.0159C979.965 50.2903 983.431 46.6148 987.946 43.9894C992.462 41.259 997.608 39.8939 1003.38 39.8939C1020.71 39.8939 1029.37 50.4478 1029.37 71.5557V118.497H1009.68V72.3433C1009.68 66.4625 1008.69 62.1569 1006.69 59.4265C1004.8 56.6961 1001.55 55.331 996.925 55.331C991.779 55.331 987.736 57.1687 984.796 60.8442C981.855 64.4147 980.385 69.4029 980.385 75.8088V118.497H960.695V72.3433C960.695 66.4625 959.697 62.1569 957.702 59.4265C955.812 56.6961 952.609 55.331 948.093 55.331C942.948 55.331 938.905 57.1687 935.964 60.8442C933.024 64.4147 931.554 69.4029 931.554 75.8088V118.497H911.863ZM1087.65 120.072C1078.93 120.072 1071.43 118.445 1065.12 115.189C1058.82 111.934 1053.94 107.313 1050.47 101.327C1047.11 95.3414 1045.43 88.2529 1045.43 80.0618C1045.43 72.0807 1047.06 65.0973 1050.32 59.1115C1053.68 53.1257 1058.25 48.4525 1064.02 45.0921C1069.9 41.6266 1076.57 39.8939 1084.03 39.8939C1094.95 39.8939 1103.56 43.3593 1109.86 50.2903C1116.27 57.2212 1119.47 66.6725 1119.47 78.6441V84.4724H1064.34C1065.81 98.2293 1073.68 105.108 1087.97 105.108C1092.27 105.108 1096.58 104.478 1100.88 103.217C1105.19 101.852 1109.13 99.752 1112.7 96.9166L1118.21 110.148C1114.53 113.194 1109.91 115.609 1104.35 117.394C1098.78 119.18 1093.22 120.072 1087.65 120.072ZM1084.81 53.2832C1079.04 53.2832 1074.37 55.0684 1070.8 58.6389C1067.22 62.2094 1065.07 67.0401 1064.34 73.1309H1103.09C1102.67 66.725 1100.88 61.8419 1097.73 58.4814C1094.69 55.0159 1090.38 53.2832 1084.81 53.2832Z" fill="#1EAE5A"/>
</svg>
