<svg id="12" viewBox="0 0 500 501" xmlns="http://www.w3.org/2000/svg" xmlns:xlink="http://www.w3.org/1999/xlink"><g transform="matrix(1,0,0,1,0,0)"><g id="12" opacity="1" style="mix-blend-mode:normal"><g><defs><clipPath id="12_clipPath" x="-50%" y="-50%" width="200%" height="200%"><path d="M0,0h500v0v501v0h-500v0v-501z" fill="white" clip-rule="nonzero"></path></clipPath></defs><g clip-path="url(#12_clipPath)"><g transform="matrix(1,0,0,1,0,0)"><g id="114" opacity="1" style="mix-blend-mode:normal"><g><g><defs><mask id="112_mask" style="mask-type:alpha" x="-50%" y="-50%" width="200%" height="200%"><g transform="matrix(1,0,0,1,0,0)"><g id="112" opacity="1" style="mix-blend-mode:normal"><g><g><g transform="matrix(1,0,0,1,0,0)"><g id="113" opacity="1" style="mix-blend-mode:normal"><g><g><path id="113_fill_path" d="M0,0h500v501h-500z" fill-rule="nonzero" fill="rgb(0, 0, 0)" fill-opacity="1" style="mix-blend-mode:NORMAL"></path></g></g></g></g></g></g></g></g></mask></defs><g mask="url(#112_mask)"><g transform="matrix(1,0,0,1,0.1348,0.3262)"><g id="13" opacity="1" style="mix-blend-mode:normal"><g><g><g transform="matrix(1,0,0,1,0,0)"><g id="14" opacity="1" style="mix-blend-mode:normal"><g><g><path id="14_fill_path" d="M499.76825,249.88383c0,26.213 -4.124,52.276 -12.22,77.214c-8.096,24.938 -20.09103,48.453 -35.50803,69.668c-15.418,21.215 -34.05999,39.85599 -55.27499,55.27399c-21.215,15.418 -44.72899,27.412 -69.66699,35.509c-24.939,8.096 -51.002,12.21899 -77.214,12.21899c-26.213,0 -52.276,-4.12299 -77.214,-12.21899c-24.939,-8.097 -48.45299,-20.091 -69.66799,-35.509c-21.2151,-15.418 -39.8566,-34.05899 -55.2744,-55.27399c-15.4178,-21.215 -27.4123,-44.73 -35.5085,-69.668c-8.09623,-24.938 -12.21933,-51.00101 -12.21933,-77.214c0,-26.213 4.12311,-52.276 12.21933,-77.214c8.0962,-24.938 20.0907,-48.453 35.5085,-69.668c15.4178,-21.2147 34.0593,-39.8562 55.2744,-55.274c21.215,-15.4178 44.72899,-27.4123 69.66799,-35.5085c24.938,-8.09623 51.00101,-12.21933 77.214,-12.21933c26.212,0 52.27501,4.1231 77.214,12.21933c24.938,8.0962 48.45199,20.0907 69.66699,35.5085c21.215,15.4178 39.85699,34.0593 55.27499,55.274c15.417,21.215 27.41203,44.73 35.50803,69.668c8.096,24.938 12.22,51.00101 12.22,77.214z" fill-rule="nonzero" fill="rgb(17, 19, 47)" fill-opacity="1" style="mix-blend-mode:NORMAL"></path></g></g></g></g><g transform="matrix(1,0,0,1,14.8847,14.8838)"><g id="15" opacity="1" style="mix-blend-mode:normal"><g><g><path id="15_fill_path" d="M470.00049,235c0,24.651 -3.87797,49.16202 -11.49197,72.61502c-7.614,23.453 -18.89401,45.56598 -33.39301,65.51797c-14.5,19.951 -32.03099,37.48203 -51.98199,51.98203c-19.952,14.499 -42.06501,25.77898 -65.51801,33.39297c-23.453,7.614 -47.96401,11.492 -72.61501,11.492c-24.652,0 -49.16201,-3.878 -72.61501,-11.492c-23.453,-7.614 -45.567,-18.89398 -65.518,-33.39297c-19.952,-14.5 -37.483,-32.03102 -51.9825,-51.98203c-14.4995,-19.952 -25.7795,-42.06498 -33.3935,-65.51797c-7.614,-23.453 -11.4915,-47.96402 -11.4915,-72.61502c0,-24.652 3.8775,-49.16201 11.4915,-72.61501c7.614,-23.453 18.894,-45.56699 33.3935,-65.51799c14.4995,-19.9515 32.0305,-37.4825 51.9825,-51.982c19.951,-14.4995 42.065,-25.7795 65.518,-33.3935c23.453,-7.614 47.96301,-11.4915 72.61501,-11.4915c24.651,0 49.16201,3.8775 72.61501,11.4915c23.453,7.614 45.56601,18.894 65.51801,33.3935c19.951,14.4995 37.48199,32.0305 51.98199,51.982c14.499,19.951 25.77901,42.06499 33.39301,65.51799c7.614,23.453 11.49197,47.96301 11.49197,72.61501z" fill-rule="nonzero" fill="rgb(255, 255, 255)" fill-opacity="1" style="mix-blend-mode:NORMAL"></path></g></g></g></g><g transform="matrix(1,0,0,1,235.7302,217.3998)"><g id="16" opacity="1" style="mix-blend-mode:normal"><g><g><path id="16_fill_path" d="M44.07298,28.16701l-44.07298,-28.16701c2.364,10.027 9.27499,30.927 18.01199,34.299c8.738,3.372 21.01499,-2.68299 26.06099,-6.13199z" fill-rule="nonzero" fill="rgb(255, 255, 255)" fill-opacity="1" style="mix-blend-mode:NORMAL"></path></g></g></g></g><g transform="matrix(1,0,0,1,177.1362,142.9988)"><g id="17" opacity="1" style="mix-blend-mode:normal"><g><g><path id="17_fill_path" d="M138.013,0c12.86,4.777 32.38502,12.733 59.16602,35.133c-45.901,27.634 -89.53701,83.149 -114.12601,139.3h-83.05301c25.942,-61.116 74.876,-146.451 138.013,-174.433z" fill-rule="evenodd" fill="rgb(17, 19, 47)" fill-opacity="0" style="mix-blend-mode:NORMAL"></path><defs><clipPath id="17_stroke_clip_path" clipPathUnits="userSpaceOnUse"><path d="M138.013,0c12.86,4.777 32.38502,12.733 59.16602,35.133c-45.901,27.634 -89.53701,83.149 -114.12601,139.3h-83.05301c25.942,-61.116 74.876,-146.451 138.013,-174.433z"></path></clipPath></defs><g style="mix-blend-mode:NORMAL"><g clip-path="url(#17_stroke_clip_path)"><path id="17_stroke_path" d="M138.013,0c12.86,4.777 32.38502,12.733 59.16602,35.133c-45.901,27.634 -89.53701,83.149 -114.12601,139.3h-83.05301c25.942,-61.116 74.876,-146.451 138.013,-174.433z" fill="none" stroke="rgb(17, 19, 47)" stroke-width="16" stroke-linecap="butt" stroke-linejoin="miter" stroke-dasharray="0 0" stroke-opacity="1"></path></g></g></g></g></g></g><g transform="matrix(1,0,0,1,97.7793,130.9044)"><g id="18" opacity="1" style="mix-blend-mode:normal"><g><g><path id="18_fill_path" d="M0,173.30042c21.0499,-54.369 59.0479,-126.343 113.8879,-169.56901c5.667,-1.3 44.855,-8.69901 83.422,1.85699c-29.604,14.802 -93.862,72.91001 -132.682,167.71201z" fill-rule="evenodd" fill="rgb(17, 19, 47)" fill-opacity="0" style="mix-blend-mode:NORMAL"></path><defs><clipPath id="18_stroke_clip_path" clipPathUnits="userSpaceOnUse"><path d="M0,173.30042c21.0499,-54.369 59.0479,-126.343 113.8879,-169.56901c5.667,-1.3 44.855,-8.69901 83.422,1.85699c-29.604,14.802 -93.862,72.91001 -132.682,167.71201z"></path></clipPath></defs><g style="mix-blend-mode:NORMAL"><g clip-path="url(#18_stroke_clip_path)"><path id="18_stroke_path" d="M0,173.30042c21.0499,-54.369 59.0479,-126.343 113.8879,-169.56901c5.667,-1.3 44.855,-8.69901 83.422,1.85699c-29.604,14.802 -93.862,72.91001 -132.682,167.71201z" fill="none" stroke="rgb(17, 19, 47)" stroke-width="16" stroke-linecap="butt" stroke-linejoin="miter" stroke-dasharray="0 0" stroke-opacity="1"></path></g></g></g></g></g></g><g transform="matrix(1,0,0,1,278.3442,190.3778)"><g id="19" opacity="1" style="mix-blend-mode:normal"><g><g><path id="19_fill_path" d="M108.45898,0c10.841,11.247 25.565,29.492 35.974,56.214c-28.273,16.964 -49.82199,39.859 -67.995,70.83701h-76.43799c23.538,-51.891 63.58498,-101.80501 108.45898,-127.05101z" fill-rule="evenodd" fill="rgb(17, 19, 47)" fill-opacity="0" style="mix-blend-mode:NORMAL"></path><defs><clipPath id="19_stroke_clip_path" clipPathUnits="userSpaceOnUse"><path d="M108.45898,0c10.841,11.247 25.565,29.492 35.974,56.214c-28.273,16.964 -49.82199,39.859 -67.995,70.83701h-76.43799c23.538,-51.891 63.58498,-101.80501 108.45898,-127.05101z"></path></clipPath></defs><g style="mix-blend-mode:NORMAL"><g clip-path="url(#19_stroke_clip_path)"><path id="19_stroke_path" d="M108.45898,0c10.841,11.247 25.565,29.492 35.974,56.214c-28.273,16.964 -49.82199,39.859 -67.995,70.83701h-76.43799c23.538,-51.891 63.58498,-101.80501 108.45898,-127.05101z" fill="none" stroke="rgb(17, 19, 47)" stroke-width="16" stroke-linecap="butt" stroke-linejoin="miter" stroke-dasharray="0 0" stroke-opacity="1"></path></g></g></g></g></g></g><g transform="matrix(1,0,0,1,391.3962,258.8078)"><g id="110" opacity="1" style="mix-blend-mode:normal"><g><g><path id="110_fill_path" d="M0,32.17099c10.654,-12.888 22.80401,-24.59499 35.74701,-32.17099c2.717,7.847 5.79098,18.68599 7.61798,32.17099z" fill-rule="evenodd" fill="rgb(17, 19, 47)" fill-opacity="0" style="mix-blend-mode:NORMAL"></path><defs><clipPath id="110_stroke_clip_path" clipPathUnits="userSpaceOnUse"><path d="M0,32.17099c10.654,-12.888 22.80401,-24.59499 35.74701,-32.17099c2.717,7.847 5.79098,18.68599 7.61798,32.17099z"></path></clipPath></defs><g style="mix-blend-mode:NORMAL"><g clip-path="url(#110_stroke_clip_path)"><path id="110_stroke_path" d="M0,32.17099c10.654,-12.888 22.80401,-24.59499 35.74701,-32.17099c2.717,7.847 5.79098,18.68599 7.61798,32.17099z" fill="none" stroke="rgb(17, 19, 47)" stroke-width="16" stroke-linecap="butt" stroke-linejoin="miter" stroke-dasharray="0 0" stroke-opacity="1"></path></g></g></g></g></g></g><g transform="matrix(1,0,0,1,65.0117,141.6298)"><g id="111" opacity="1" style="mix-blend-mode:normal"><g><g><path id="111_fill_path" d="M0,138.32501c16.4639,-84.967 90.2935,-130.62001 121.64951,-138.32501c-53.877,34.283 -82.058,89.29901 -99.2402,138.32501z" fill-rule="evenodd" fill="rgb(17, 19, 47)" fill-opacity="0" style="mix-blend-mode:NORMAL"></path><defs><clipPath id="111_stroke_clip_path" clipPathUnits="userSpaceOnUse"><path d="M0,138.32501c16.4639,-84.967 90.2935,-130.62001 121.64951,-138.32501c-53.877,34.283 -82.058,89.29901 -99.2402,138.32501z"></path></clipPath></defs><g style="mix-blend-mode:NORMAL"><g clip-path="url(#111_stroke_clip_path)"><path id="111_stroke_path" d="M0,138.32501c16.4639,-84.967 90.2935,-130.62001 121.64951,-138.32501c-53.877,34.283 -82.058,89.29901 -99.2402,138.32501z" fill="none" stroke="rgb(17, 19, 47)" stroke-width="16" stroke-linecap="butt" stroke-linejoin="miter" stroke-dasharray="0 0" stroke-opacity="1"></path></g></g></g></g></g></g></g></g></g></g></g></g></g></g></g></g></g></g></g><animate href="#17_fill_path" attributeName="fill" values="rgb(17, 19, 47;rgb(17, 19, 47;rgb(17, 19, 47;rgb(17, 19, 47" dur="5s" repeatCount="indefinite" keyTimes="0;0.51;0.57;1" fill="freeze"></animate><animate href="#17_fill_path" attributeName="fill-opacity" values="0;0;1;1" dur="5s" repeatCount="indefinite" keyTimes="0;0.51;0.57;1" fill="freeze"></animate><animate href="#17_stroke_path" attributeName="stroke-dasharray" values="0 567.5272269080264;0 567.5272269080264;0 567.5272269080264;0 567.5272269080264;67.93469478532711 499.59253212269925;454.8646437446013 112.66258316342504;553.5919049007797 13.935322007246613;561.9081454534914 5.6190814545349195;561.9081454534914 5.6190814545349195;561.9081454534914 5.6190814545349195;561.9081454534914 5.6190814545349195;561.9081454534914 5.6190814545349195;561.9081454534914 5.6190814545349195;561.9081454534914 5.6190814545349195;561.9081454534914 5.6190814545349195;561.9081454534914 5.6190814545349195;561.9081454534914 5.6190814545349195;561.9081454534914 5.6190814545349195;561.9081454534914 5.6190814545349195;561.9081454534914 5.6190814545349195;561.9081454534914 5.6190814545349195;561.9081454534914 5.6190814545349195;561.9081454534914 5.6190814545349195;561.9081454534914 5.6190814545349195;561.9081454534914 5.6190814545349195;561.9081454534914 5.6190814545349195" dur="5s" repeatCount="indefinite" keyTimes="0;0.04;0.08;0.12;0.16;0.2;0.24;0.28;0.32;0.36;0.4;0.44;0.48;0.52;0.56;0.6;0.64;0.68;0.72;0.76;0.8;0.84;0.88;0.92;0.96;1" fill="freeze"></animate><animate href="#17_stroke_path" attributeName="stroke-dashoffset" values="0;0;0;0;0;0;0;0;0;0;0;0;0;0;0;0;0;0;0;0;0;0;0;0;0;0" dur="5s" repeatCount="indefinite" keyTimes="0;0.04;0.08;0.12;0.16;0.2;0.24;0.28;0.32;0.36;0.4;0.44;0.48;0.52;0.56;0.6;0.64;0.68;0.72;0.76;0.8;0.84;0.88;0.92;0.96;1" fill="freeze"></animate><animate href="#18_fill_path" attributeName="fill" values="rgb(17, 19, 47;rgb(17, 19, 47;rgb(17, 19, 47;rgb(17, 19, 47" dur="5s" repeatCount="indefinite" keyTimes="0;0.48;0.52;1" fill="freeze"></animate><animate href="#18_fill_path" attributeName="fill-opacity" values="0;0;1;1" dur="5s" repeatCount="indefinite" keyTimes="0;0.48;0.52;1" fill="freeze"></animate><animate href="#18_stroke_path" attributeName="stroke-dasharray" values="0 578.4088862239598;0 578.4088862239598;30.123076648891374 548.2858095750685;402.4236874748283 175.98519874913154;556.2460902864675 22.162795937492298;572.682065568277 5.726820655682776;572.682065568277 5.726820655682776;572.682065568277 5.726820655682776;572.682065568277 5.726820655682776;572.682065568277 5.726820655682776;572.682065568277 5.726820655682776;572.682065568277 5.726820655682776;572.682065568277 5.726820655682776;572.682065568277 5.726820655682776;572.682065568277 5.726820655682776;572.682065568277 5.726820655682776;572.682065568277 5.726820655682776;572.682065568277 5.726820655682776;572.682065568277 5.726820655682776;572.682065568277 5.726820655682776;572.682065568277 5.726820655682776;572.682065568277 5.726820655682776;572.682065568277 5.726820655682776;572.682065568277 5.726820655682776;572.682065568277 5.726820655682776;572.682065568277 5.726820655682776" dur="5s" repeatCount="indefinite" keyTimes="0;0.04;0.08;0.12;0.16;0.2;0.24;0.28;0.32;0.36;0.4;0.44;0.48;0.52;0.56;0.6;0.64;0.68;0.72;0.76;0.8;0.84;0.88;0.92;0.96;1" fill="freeze"></animate><animate href="#18_stroke_path" attributeName="stroke-dashoffset" values="0;0;0;0;0;0;0;0;0;0;0;0;0;0;0;0;0;0;0;0;0;0;0;0;0;0" dur="5s" repeatCount="indefinite" keyTimes="0;0.04;0.08;0.12;0.16;0.2;0.24;0.28;0.32;0.36;0.4;0.44;0.48;0.52;0.56;0.6;0.64;0.68;0.72;0.76;0.8;0.84;0.88;0.92;0.96;1" fill="freeze"></animate><animate href="#19_fill_path" attributeName="fill" values="rgb(17, 19, 47;rgb(17, 19, 47;rgb(17, 19, 47;rgb(17, 19, 47" dur="5s" repeatCount="indefinite" keyTimes="0;0.56;0.62;1" fill="freeze"></animate><animate href="#19_fill_path" attributeName="fill-opacity" values="0;0;1;1" dur="5s" repeatCount="indefinite" keyTimes="0;0.56;0.62;1" fill="freeze"></animate><animate href="#19_stroke_path" attributeName="stroke-dasharray" values="0 416.6506045173613;0 416.6506045173613;0 416.6506045173613;0 416.6506045173613;0 416.6506045173613;0 416.6506045173613;0 416.6506045173613;113.07319871109776 303.5774058062635;371.52033111716395 45.130273400197375;411.16401734896436 5.486587168396927;412.5253510072884 4.125253510072888;412.5253510072884 4.125253510072888;412.5253510072884 4.125253510072888;412.5253510072884 4.125253510072888;412.5253510072884 4.125253510072888;412.5253510072884 4.125253510072888;412.5253510072884 4.125253510072888;412.5253510072884 4.125253510072888;412.5253510072884 4.125253510072888;412.5253510072884 4.125253510072888;412.5253510072884 4.125253510072888;412.5253510072884 4.125253510072888;412.5253510072884 4.125253510072888;412.5253510072884 4.125253510072888;412.5253510072884 4.125253510072888;412.5253510072884 4.125253510072888" dur="5s" repeatCount="indefinite" keyTimes="0;0.04;0.08;0.12;0.16;0.2;0.24;0.28;0.32;0.36;0.4;0.44;0.48;0.52;0.56;0.6;0.64;0.68;0.72;0.76;0.8;0.84;0.88;0.92;0.96;1" fill="freeze"></animate><animate href="#19_stroke_path" attributeName="stroke-dashoffset" values="0;0;0;0;0;0;0;0;0;0;0;0;0;0;0;0;0;0;0;0;0;0;0;0;0;0" dur="5s" repeatCount="indefinite" keyTimes="0;0.04;0.08;0.12;0.16;0.2;0.24;0.28;0.32;0.36;0.4;0.44;0.48;0.52;0.56;0.6;0.64;0.68;0.72;0.76;0.8;0.84;0.88;0.92;0.96;1" fill="freeze"></animate><animate href="#110_fill_path" attributeName="fill" values="rgb(17, 19, 47;rgb(17, 19, 47;rgb(17, 19, 47;rgb(17, 19, 47" dur="5s" repeatCount="indefinite" keyTimes="0;0.6;0.65;1" fill="freeze"></animate><animate href="#110_fill_path" attributeName="fill-opacity" values="0;0;1;1" dur="5s" repeatCount="indefinite" keyTimes="0;0.6;0.65;1" fill="freeze"></animate><animate href="#110_stroke_path" attributeName="stroke-dasharray" values="0 126.05873378348731;0 126.05873378348731;0 126.05873378348731;0 126.05873378348731;0 126.05873378348731;0 126.05873378348731;0 126.05873378348731;0 126.05873378348731;0 126.05873378348731;19.270760887297467 106.78797289618984;111.84280331028017 14.215930473207132;124.74822219464907 1.3105115888382286;124.81062750840327 1.248106275084034;124.81062750840327 1.248106275084034;124.81062750840327 1.248106275084034;124.81062750840327 1.248106275084034;124.81062750840327 1.248106275084034;124.81062750840327 1.248106275084034;124.81062750840327 1.248106275084034;124.81062750840327 1.248106275084034;124.81062750840327 1.248106275084034;124.81062750840327 1.248106275084034;124.81062750840327 1.248106275084034;124.81062750840327 1.248106275084034;124.81062750840327 1.248106275084034;124.81062750840327 1.248106275084034" dur="5s" repeatCount="indefinite" keyTimes="0;0.04;0.08;0.12;0.16;0.2;0.24;0.28;0.32;0.36;0.4;0.44;0.48;0.52;0.56;0.6;0.64;0.68;0.72;0.76;0.8;0.84;0.88;0.92;0.96;1" fill="freeze"></animate><animate href="#110_stroke_path" attributeName="stroke-dashoffset" values="0;0;0;0;0;0;0;0;0;0;0;0;0;0;0;0;0;0;0;0;0;0;0;0;0;0" dur="5s" repeatCount="indefinite" keyTimes="0;0.04;0.08;0.12;0.16;0.2;0.24;0.28;0.32;0.36;0.4;0.44;0.48;0.52;0.56;0.6;0.64;0.68;0.72;0.76;0.8;0.84;0.88;0.92;0.96;1" fill="freeze"></animate><animate href="#111_fill_path" attributeName="fill" values="rgb(17, 19, 47;rgb(17, 19, 47;rgb(17, 19, 47;rgb(17, 19, 47" dur="5s" repeatCount="indefinite" keyTimes="0;0.45;0.5;1" fill="freeze"></animate><animate href="#111_fill_path" attributeName="fill-opacity" values="0;0;1;1" dur="5s" repeatCount="indefinite" keyTimes="0;0.45;0.5;1" fill="freeze"></animate><animate href="#111_stroke_path" attributeName="stroke-dasharray" values="0 392.68449917402404;207.2674321877943 185.41706698622977;369.628864717569 23.055634456455085;388.7965338356674 3.8879653383566772;388.7965338356674 3.8879653383566772;388.7965338356674 3.8879653383566772;388.7965338356674 3.8879653383566772;388.7965338356674 3.8879653383566772;388.7965338356674 3.8879653383566772;388.7965338356674 3.8879653383566772;388.7965338356674 3.8879653383566772;388.7965338356674 3.8879653383566772;388.7965338356674 3.8879653383566772;388.7965338356674 3.8879653383566772;388.7965338356674 3.8879653383566772;388.7965338356674 3.8879653383566772;388.7965338356674 3.8879653383566772;388.7965338356674 3.8879653383566772;388.7965338356674 3.8879653383566772;388.7965338356674 3.8879653383566772;388.7965338356674 3.8879653383566772;388.7965338356674 3.8879653383566772;388.7965338356674 3.8879653383566772;388.7965338356674 3.8879653383566772;388.7965338356674 3.8879653383566772;388.7965338356674 3.8879653383566772" dur="5s" repeatCount="indefinite" keyTimes="0;0.04;0.08;0.12;0.16;0.2;0.24;0.28;0.32;0.36;0.4;0.44;0.48;0.52;0.56;0.6;0.64;0.68;0.72;0.76;0.8;0.84;0.88;0.92;0.96;1" fill="freeze"></animate><animate href="#111_stroke_path" attributeName="stroke-dashoffset" values="0;0;0;0;0;0;0;0;0;0;0;0;0;0;0;0;0;0;0;0;0;0;0;0;0;0" dur="5s" repeatCount="indefinite" keyTimes="0;0.04;0.08;0.12;0.16;0.2;0.24;0.28;0.32;0.36;0.4;0.44;0.48;0.52;0.56;0.6;0.64;0.68;0.72;0.76;0.8;0.84;0.88;0.92;0.96;1" fill="freeze"></animate></svg>
