<svg width="1126" height="125" viewBox="0 0 1126 125" fill="none" xmlns="http://www.w3.org/2000/svg">
<path fill-rule="evenodd" clip-rule="evenodd" d="M165.622 8.38867C174.103 11.5386 186.979 16.7857 204.64 31.5577C174.37 49.7808 145.593 86.3916 129.378 123.421H74.6079C91.7155 83.1172 123.985 26.8415 165.622 8.38867Z" fill="white"/>
<path fill-rule="evenodd" clip-rule="evenodd" d="M22.2769 114.698C36.1583 78.8441 61.2164 31.3801 97.3813 2.87359C101.119 2.01682 126.962 -2.86305 152.395 4.09845C132.873 13.8598 90.4966 52.18 64.8968 114.698H22.2769Z" fill="white"/>
<path fill-rule="evenodd" clip-rule="evenodd" d="M212.877 39.6348C220.026 47.0518 229.736 59.0834 236.601 76.7058C217.956 87.8929 203.745 102.991 191.76 123.421H141.352C156.874 89.2002 183.284 56.2837 212.877 39.6348Z" fill="white"/>
<path fill-rule="evenodd" clip-rule="evenodd" d="M215.903 105.975C222.929 97.4761 230.941 89.7556 239.476 84.7593C241.268 89.934 243.295 97.0819 244.5 105.975H215.903Z" fill="white"/>
<path fill-rule="evenodd" clip-rule="evenodd" d="M0.668213 98.7055C11.5257 42.6733 60.2129 12.5671 80.891 7.48584C45.3616 30.0939 26.7775 66.375 15.4464 98.7055H0.668213Z" fill="white"/>
<path d="M337.515 7.94116H389.652C401.728 7.94116 412.439 10.1989 421.785 14.7143C431.131 19.2297 438.376 25.6353 443.522 33.931C448.667 42.2268 451.24 51.9402 451.24 63.0712C451.24 74.2022 448.667 83.9156 443.522 92.2113C438.376 100.507 431.131 106.913 421.785 111.428C412.439 115.943 401.728 118.201 389.652 118.201H337.515V7.94116ZM388.392 93.3139C397.843 93.3139 405.403 90.6362 411.074 85.2807C416.849 79.9252 419.737 72.522 419.737 63.0712C419.737 53.6203 416.849 46.2171 411.074 40.8616C405.403 35.5062 397.843 32.8284 388.392 32.8284H368.703V93.3139H388.392ZM572.553 7.94116V118.201H546.878L498.206 59.4483V118.201H467.649V7.94116H493.323L541.995 66.694V7.94116H572.553ZM633.301 120.406C624.375 120.406 615.712 119.304 607.311 117.099C598.91 114.893 592.085 111.953 586.834 108.278L597.072 85.2807C602.008 88.536 607.731 91.1612 614.242 93.1564C620.752 95.1516 627.158 96.1492 633.458 96.1492C645.429 96.1492 651.415 93.1564 651.415 87.1709C651.415 84.0206 649.682 81.7104 646.217 80.2402C642.857 78.6651 637.396 77.0374 629.835 75.3573C621.54 73.5721 614.609 71.6819 609.044 69.6868C603.478 67.5866 598.7 64.2788 594.71 59.7634C590.719 55.248 588.724 49.1574 588.724 41.4917C588.724 34.7711 590.562 28.733 594.237 23.3776C597.913 17.9171 603.373 13.6117 610.619 10.4614C617.969 7.3111 626.948 5.73596 637.554 5.73596C644.799 5.73596 651.94 6.57603 658.976 8.25619C666.011 9.83133 672.207 12.194 677.562 15.3443L667.954 38.4989C657.453 32.8284 647.267 29.9932 637.396 29.9932C631.201 29.9932 626.685 30.9382 623.85 32.8284C621.015 34.6136 619.597 36.9763 619.597 39.9166C619.597 42.8568 621.277 45.062 624.637 46.5322C627.998 48.0023 633.406 49.5249 640.861 51.1001C649.262 52.8852 656.193 54.8279 661.653 56.9281C667.219 58.9233 671.997 62.1786 675.987 66.694C680.083 71.1044 682.13 77.1424 682.13 84.8081C682.13 91.4237 680.293 97.4093 676.617 102.765C672.942 108.12 667.429 112.426 660.078 115.681C652.728 118.831 643.802 120.406 633.301 120.406Z" fill="white"/>
<path d="M702.692 118.201V7.14854H743.963C762.55 7.14854 776.885 11.9267 786.966 21.483C797.153 31.0393 802.246 44.7437 802.246 62.5961C802.246 80.3435 797.153 94.0479 786.966 103.709C776.885 113.371 762.55 118.201 743.963 118.201H702.692ZM722.855 101.504H742.703C768.326 101.504 781.138 88.5346 781.138 62.5961C781.138 36.7626 768.326 23.8458 742.703 23.8458H722.855V101.504ZM855.916 119.776C847.935 119.776 841.004 118.149 835.123 114.893C829.243 111.638 824.674 107.017 821.419 101.031C818.164 94.9405 816.536 87.7995 816.536 79.6084C816.536 71.4173 818.164 64.3288 821.419 58.343C824.674 52.3572 829.243 47.7366 835.123 44.4811C841.004 41.2257 847.935 39.598 855.916 39.598C863.897 39.598 870.828 41.2257 876.709 44.4811C882.59 47.7366 887.158 52.3572 890.413 58.343C893.669 64.3288 895.297 71.4173 895.297 79.6084C895.297 87.7995 893.669 94.9405 890.413 101.031C887.158 107.017 882.59 111.638 876.709 114.893C870.828 118.149 863.897 119.776 855.916 119.776ZM855.916 104.812C861.797 104.812 866.523 102.712 870.093 98.511C873.664 94.2054 875.449 87.9045 875.449 79.6084C875.449 71.2073 873.664 64.9589 870.093 60.8634C866.523 56.6628 861.797 54.5625 855.916 54.5625C850.035 54.5625 845.31 56.6628 841.739 60.8634C838.169 64.9589 836.384 71.2073 836.384 79.6084C836.384 87.9045 838.169 94.2054 841.739 98.511C845.31 102.712 850.035 104.812 855.916 104.812ZM911.863 118.201V41.1732H931.081V52.9873C933.391 48.7867 936.594 45.5313 940.69 43.221C944.785 40.8056 949.511 39.598 954.867 39.598C966.418 39.598 973.979 44.6387 977.55 54.72C979.965 49.9944 983.431 46.3189 987.946 43.6935C992.462 40.9631 997.608 39.598 1003.38 39.598C1020.71 39.598 1029.37 50.1519 1029.37 71.2598V118.201H1009.68V72.0474C1009.68 66.1666 1008.69 61.861 1006.69 59.1306C1004.8 56.4003 1001.55 55.0351 996.925 55.0351C991.779 55.0351 987.736 56.8728 984.796 60.5483C981.855 64.1188 980.385 69.107 980.385 75.5129V118.201H960.695V72.0474C960.695 66.1666 959.697 61.861 957.702 59.1306C955.812 56.4003 952.609 55.0351 948.093 55.0351C942.948 55.0351 938.905 56.8728 935.964 60.5483C933.024 64.1188 931.554 69.107 931.554 75.5129V118.201H911.863ZM1087.65 119.776C1078.93 119.776 1071.43 118.149 1065.12 114.893C1058.82 111.638 1053.94 107.017 1050.47 101.031C1047.11 95.0455 1045.43 87.9571 1045.43 79.7659C1045.43 71.7848 1047.06 64.8014 1050.32 58.8156C1053.68 52.8298 1058.25 48.1566 1064.02 44.7962C1069.9 41.3307 1076.57 39.598 1084.03 39.598C1094.95 39.598 1103.56 43.0634 1109.86 49.9944C1116.27 56.9253 1119.47 66.3766 1119.47 78.3482V84.1765H1064.34C1065.81 97.9334 1073.68 104.812 1087.97 104.812C1092.27 104.812 1096.58 104.182 1100.88 102.922C1105.19 101.556 1109.13 99.4561 1112.7 96.6207L1118.21 109.853C1114.53 112.898 1109.91 115.313 1104.35 117.099C1098.78 118.884 1093.22 119.776 1087.65 119.776ZM1084.81 52.9873C1079.04 52.9873 1074.37 54.7725 1070.8 58.343C1067.22 61.9135 1065.07 66.7442 1064.34 72.835H1103.09C1102.67 66.4291 1100.88 61.546 1097.73 58.1855C1094.69 54.72 1090.38 52.9873 1084.81 52.9873Z" fill="#1EAE5A"/>
</svg>
