<svg width="500" height="501" viewBox="0 0 500 501" fill="none" xmlns="http://www.w3.org/2000/svg">
<g clip-path="url(#clip0_18436_203635)">
<path d="M499.903 250.21C499.903 276.423 495.779 302.486 487.683 327.424C479.587 352.362 467.592 375.877 452.175 397.092C436.757 418.307 418.115 436.948 396.9 452.366C375.685 467.784 352.171 479.778 327.233 487.875C302.294 495.971 276.231 500.094 250.019 500.094C223.806 500.094 197.743 495.971 172.805 487.875C147.866 479.778 124.352 467.784 103.137 452.366C81.9219 436.948 63.2804 418.307 47.8626 397.092C32.4448 375.877 20.4503 352.362 12.3541 327.424C4.25787 302.486 0.134766 276.423 0.134766 250.21C0.134766 223.997 4.25787 197.934 12.3541 172.996C20.4503 148.058 32.4448 124.543 47.8626 103.328C63.2804 82.1133 81.9219 63.4718 103.137 48.054C124.352 32.6362 147.866 20.6417 172.805 12.5455C197.743 4.44927 223.806 0.326172 250.019 0.326172C276.231 0.326172 302.294 4.44927 327.233 12.5455C352.171 20.6417 375.685 32.6362 396.9 48.054C418.115 63.4718 436.757 82.1133 452.175 103.328C467.592 124.543 479.587 148.058 487.683 172.996C495.779 197.934 499.903 223.997 499.903 250.21Z" fill="#11132F"/>
<path d="M485.02 250.21C485.02 274.861 481.142 299.372 473.528 322.825C465.914 346.278 454.634 368.391 440.135 388.343C425.635 408.294 408.104 425.825 388.153 440.325C368.201 454.824 346.088 466.104 322.635 473.718C299.182 481.332 274.671 485.21 250.02 485.21C225.368 485.21 200.858 481.332 177.405 473.718C153.952 466.104 131.838 454.824 111.887 440.325C91.935 425.825 74.404 408.294 59.9045 388.343C45.405 368.391 34.125 346.278 26.511 322.825C18.897 299.372 15.0195 274.861 15.0195 250.21C15.0195 225.558 18.897 201.048 26.511 177.595C34.125 154.142 45.405 132.028 59.9045 112.077C74.404 92.1255 91.935 74.5945 111.887 60.095C131.838 45.5955 153.952 34.3155 177.405 26.7015C200.858 19.0875 225.368 15.21 250.02 15.21C274.671 15.21 299.182 19.0875 322.635 26.7015C346.088 34.3155 368.201 45.5955 388.153 60.095C408.104 74.5945 425.635 92.1255 440.135 112.077C454.634 132.028 465.914 154.142 473.528 177.595C481.142 201.048 485.02 225.558 485.02 250.21Z" fill="white"/>
<path d="M279.938 245.893L235.865 217.726C238.229 227.753 245.14 248.653 253.877 252.025C262.615 255.397 274.892 249.342 279.938 245.893Z" fill="white"/>
<path fill-rule="evenodd" clip-rule="evenodd" d="M315.284 143.325C328.144 148.102 347.669 156.058 374.45 178.458C328.549 206.092 284.913 261.607 260.324 317.758H177.271C203.213 256.642 252.147 171.307 315.284 143.325Z" fill="#11132F"/>
<path fill-rule="evenodd" clip-rule="evenodd" d="M97.9141 304.531C118.964 250.162 156.962 178.188 211.802 134.962C217.469 133.662 256.657 126.263 295.224 136.819C265.62 151.621 201.362 209.729 162.542 304.531H97.9141Z" fill="#11132F"/>
<path fill-rule="evenodd" clip-rule="evenodd" d="M386.938 190.704C397.779 201.951 412.503 220.196 422.912 246.918C394.639 263.882 373.09 286.777 354.917 317.755H278.479C302.017 265.864 342.064 215.95 386.938 190.704Z" fill="#11132F"/>
<path fill-rule="evenodd" clip-rule="evenodd" d="M391.531 291.305C402.185 278.417 414.335 266.71 427.278 259.134C429.995 266.981 433.069 277.82 434.896 291.305H391.531Z" fill="#11132F"/>
<path fill-rule="evenodd" clip-rule="evenodd" d="M65.1465 280.281C81.6104 195.314 155.44 149.661 186.796 141.956C132.919 176.239 104.738 231.255 87.5558 280.281H65.1465Z" fill="#11132F"/>
</g>
<defs>
<clipPath id="clip0_18436_203635">
<rect width="500" height="501" fill="white"/>
</clipPath>
</defs>
</svg>
