<svg width="180" height="64" viewBox="0 0 180 64" fill="none" xmlns="http://www.w3.org/2000/svg">
<path d="M40.8553 31.2949V43.5759H34.4168V20.5156H35.1028C36.4558 20.5156 37.8106 20.538 39.1636 20.5035C39.6694 20.5035 39.7159 20.5035 39.8533 20.5035L40.2886 21.0478C40.2886 21.0478 46.0376 28.5871 48.92 32.3507C49.0737 32.5511 49.2379 32.7429 49.4246 32.971V20.5726H55.8164V43.6294C54.5239 43.6294 53.2593 43.6553 51.9941 43.6553C51.2013 43.6553 51.425 43.6553 50.4409 43.6553C50.1559 43.3704 49.2164 42.1149 48.92 41.7133C46.3608 38.2383 44.0971 35.4715 41.4688 32.0449C41.2977 31.8219 41.1128 31.6094 40.8536 31.2949H40.8553Z" fill="#11132F"/>
<path d="M9.84106 20.6035C9.93092 20.5707 10.0018 20.524 10.0726 20.524C13.7084 20.5326 17.3458 20.4722 20.9781 20.581C23.6375 20.6605 26.0792 21.5176 28.1079 23.3147C30.0813 25.0652 31.1094 27.3255 31.4446 29.8933C31.7626 32.3384 31.5933 34.7576 30.6273 37.0645C29.0669 40.7918 26.1604 42.7877 22.2464 43.4305C21.4394 43.5636 20.6118 43.6154 19.791 43.6206C16.6339 43.6431 13.4751 43.631 10.3163 43.631C10.1867 43.631 10.0553 43.631 9.84106 43.631V20.6035ZM16.252 38.065C17.6638 38.065 19.041 38.1376 20.4061 38.0478C22.4849 37.9095 23.8984 36.7794 24.6484 34.8527C25.229 33.3614 25.3102 31.8114 25.0061 30.251C24.5292 27.8041 23.126 26.3508 20.6843 26.0536C19.2311 25.8756 17.7381 26.0208 16.2503 26.0208V38.065H16.252Z" fill="#11132F"/>
<path d="M58.2841 40.2268C59.4903 38.8289 60.648 37.4879 61.8213 36.1298C62.1117 36.3682 62.3691 36.5911 62.6386 36.7985C64.9005 38.5317 67.4514 39.0293 70.2197 38.5092C70.6239 38.4332 71.0316 38.2431 71.3755 38.0115C72.4432 37.2927 72.4038 36.0209 71.3044 35.3487C70.3749 34.7802 69.3159 34.654 68.2584 34.5469C66.6478 34.3862 65.0581 34.1408 63.5146 33.6207C58.9509 32.081 58.5189 27.8906 59.3103 25.0532C59.7856 23.3511 60.9988 22.2123 62.5179 21.3881C63.8396 20.671 65.2741 20.2787 66.7582 20.1387C68.989 19.9296 71.2096 20.0091 73.366 20.7211C74.7314 21.1721 75.9806 21.8305 77.1368 22.793C76.074 24.165 75.0408 25.499 74.0606 26.7639C73.0104 26.3527 72.039 25.8792 71.0126 25.5958C69.7824 25.2554 68.5001 25.1863 67.2334 25.4783C66.9275 25.5492 66.6234 25.6563 66.3399 25.7911C65.7941 26.0485 65.4623 26.4857 65.4725 27.1026C65.4828 27.7351 65.7717 28.2656 66.3695 28.4815C67.0107 28.7131 67.6863 28.8825 68.362 28.9723C69.9896 29.1918 71.6401 29.3317 73.1763 29.9469C74.1263 30.3271 75.0734 30.7798 75.9134 31.357C79.4314 33.7658 79.4489 39.5875 75.9684 42.138C74.3875 43.2975 72.6023 43.9179 70.6828 44.1374C68.165 44.4242 65.6525 44.4173 63.2106 43.5982C61.279 42.9502 59.7131 41.7648 58.2876 40.2234L58.2841 40.2268Z" fill="#11132F"/>
<path d="M99.7046 24.3136C98.5571 24.9132 97.4388 25.499 96.2743 26.1072C95.2343 24.6833 93.7755 23.9299 92.0856 23.6569C90.6618 23.4254 89.2224 23.4686 87.8779 24.0838C86.888 24.5365 86.1914 25.2519 86.1223 26.4252C86.0688 27.3462 86.4662 28.008 87.247 28.4487C88.1337 28.9498 89.1168 29.1399 90.1087 29.3127C91.7971 29.6065 93.4836 29.9141 95.1613 30.2648C95.6954 30.3771 96.2086 30.6208 96.713 30.842C99.5178 32.0706 100.772 34.749 100.354 37.8767C99.9775 40.702 98.3047 42.4819 95.7421 43.4115C92.4018 44.6246 88.9943 44.6108 85.6369 43.4323C83.4211 42.6546 81.9059 41.0804 80.9505 38.9567C80.8985 38.8427 80.8795 38.7131 80.824 38.5178C82.0027 37.9026 83.1638 37.2944 84.3838 36.6585C84.4461 36.7621 84.4928 36.8243 84.5253 36.8935C85.6038 39.0984 87.5306 40.0074 89.8304 40.2493C91.0383 40.3754 92.2826 40.3875 93.4437 39.94C94.0712 39.698 94.6948 39.3645 95.2168 38.9429C96.3764 38.0046 96.5005 35.5836 94.7556 34.5935C93.7477 34.0215 92.6576 33.745 91.5257 33.593C89.5629 33.3286 87.5962 33.0936 85.7419 32.3281C83.6322 31.4571 82.1773 29.9883 81.8835 27.6849C81.5411 25.0099 82.1185 22.7618 85.0317 21.0666C86.3952 20.2735 87.8988 19.9071 89.4763 19.7533C91.3253 19.5719 93.1295 19.7309 94.8884 20.2752C97.0244 20.9353 98.6865 22.2037 99.7027 24.3188L99.7046 24.3136Z" fill="#1EAE5A"/>
<path d="M170.159 36.93H157.503C157.565 37.8682 157.971 38.5715 158.602 39.1521C159.685 40.1475 161.039 40.4361 162.435 40.3738C163.9 40.3065 165.313 39.9436 166.39 39.0122C167.24 39.8658 168.073 40.7022 168.906 41.5385L168.975 41.606C168.687 41.8565 168.558 41.9677 168.241 42.2073C164.778 44.4865 161.13 44.7941 157.41 42.9797C154.864 41.739 153.672 39.4649 153.364 36.7399C153.155 34.8857 153.287 33.0419 154.149 31.326C155.481 28.6735 157.677 27.2876 160.591 26.9092C162.008 26.7243 163.387 26.8297 164.752 27.2133C167.691 28.0376 169.326 30.0663 169.875 32.9676C170.114 34.2239 170.107 35.482 170.159 36.9317V36.93ZM166.069 33.5551C166.032 32.2384 165.223 31.1981 163.871 30.7402C162.63 30.3203 161.37 30.3048 160.14 30.7575C158.856 31.2309 157.964 32.1053 157.563 33.5551H166.069Z" fill="#1EAE5A"/>
<path d="M105.903 36.9333C106.022 38.1152 106.622 38.9378 107.524 39.5443C108.549 40.2338 109.732 40.4498 110.933 40.372C112.372 40.2787 113.755 39.9245 114.804 39.0155C115.657 39.8744 116.489 40.709 117.37 41.5937C116.969 42.1104 116.259 42.5631 115.509 42.9329C112.772 44.2825 109.924 44.4899 107.038 43.5308C104.598 42.7187 102.939 41.0425 102.187 38.5714C101.415 36.033 101.455 33.5083 102.692 31.1099C104.009 28.5576 106.202 27.2702 109.017 26.9056C110.435 26.7207 111.813 26.833 113.178 27.2132C116.048 28.015 117.644 29.9953 118.286 32.8137C118.586 34.1356 118.564 35.4852 118.436 36.9333H105.903ZM114.522 33.555C114.439 32.4318 113.943 31.5765 112.995 31.0822C111.14 30.1163 109.272 30.1716 107.508 31.3121C106.723 31.8184 106.183 32.5631 106.019 33.5567H114.522V33.555Z" fill="#1EAE5A"/>
<path d="M136.304 43.657H132.288C132.288 43.3563 132.288 43.0988 132.288 42.8413C132.288 40.4343 132.305 38.0254 132.277 35.6183C132.269 34.9392 132.191 34.2462 132.036 33.5844C131.63 31.8564 130.463 30.9267 128.725 30.7919C127.183 30.6727 125.936 31.2896 125.085 32.6046C124.605 33.3494 124.339 34.1685 124.341 35.067C124.344 37.6072 124.339 40.1474 124.335 42.6858C124.335 42.9744 124.335 43.263 124.335 43.6898C122.984 43.7054 121.679 43.7019 120.321 43.6898V27.291H123.881C123.978 27.9424 124.076 28.6043 124.194 29.3923C124.557 29.0916 124.833 28.86 125.113 28.6319C127.944 26.3319 131.894 26.5445 134.299 29.1365C135.317 30.2338 135.884 31.5644 136.124 33.0211C136.252 33.797 136.29 34.5953 136.297 35.385C136.317 37.8716 136.304 40.3582 136.304 42.8466V43.6604V43.657Z" fill="#1EAE5A"/>
<path d="M151.466 29.0501C150.728 29.9297 150.015 30.7781 149.278 31.6576C149.186 31.6127 149.084 31.5868 149.013 31.5264C147.416 30.1802 145.571 30.0264 143.627 30.4463C143.109 30.5586 142.63 30.8317 142.41 31.376C142.148 32.0274 142.417 32.7947 143.148 33.0902C143.796 33.3528 144.513 33.4634 145.21 33.5861C146.301 33.7779 147.424 33.8298 148.488 34.1063C150.247 34.5625 151.609 35.5474 152.065 37.4309C152.711 40.099 151.567 42.5856 148.949 43.5274C145.215 44.8718 141.619 44.5538 138.426 41.9428C138.201 41.7579 137.947 41.6093 137.693 41.4348C138.445 40.3305 139.079 39.3992 139.746 38.4211C141.012 39.5512 142.447 40.1957 144.021 40.5103C144.93 40.6917 145.865 40.7729 146.762 40.4256C147.076 40.3046 147.393 40.1353 147.648 39.9193C148.578 39.1261 148.386 37.8629 147.246 37.4534C146.658 37.2426 146.015 37.1475 145.388 37.0992C144.062 36.9972 142.763 36.7985 141.526 36.3043C140.027 35.7047 138.842 34.7664 138.486 33.1161C138.078 31.2256 138.531 29.5426 140.159 28.3347C141.362 27.4413 142.739 27.0197 144.218 26.9247C145.623 26.8348 147.028 26.8348 148.389 27.2564C149.537 27.6124 150.574 28.1705 151.466 29.0535V29.0501Z" fill="#1EAE5A"/>
</svg>
