<svg width="3393" height="522" viewBox="0 0 3393 522" fill="none" xmlns="http://www.w3.org/2000/svg">
<g clip-path="url(#clip0_1403_1239)">
<path fill-rule="evenodd" clip-rule="evenodd" d="M1244.24 119.264C1286.47 119.264 1324.54 127.685 1357.8 152.946L1425.66 65.2422C1373.71 23.8507 1316.95 7.00977 1244.24 7.00977C1141.75 7.00977 1041.35 51.9099 1041.35 155.753C1041.35 277.831 1132.76 305.19 1238.69 315.012C1292.01 319.926 1319.71 335.362 1319.71 359.913C1319.71 387.279 1288.55 403.411 1243.54 403.411C1202.68 403.411 1149.37 394.989 1101.59 347.992L1026.11 435.679C1093.29 507.243 1155.61 522.681 1242.85 521.979C1351.56 521.278 1455.43 473.572 1455.43 362.018C1455.43 249.062 1355.02 209.775 1258.78 199.25C1211 194.338 1178.45 189.426 1178.45 155.753C1178.45 129.79 1211 119.264 1244.24 119.264ZM135.72 390.781H207.727C294.969 390.781 325.432 324.837 325.432 257.484C325.432 190.128 291.515 132.598 207.727 132.598H135.72V390.781ZM207.727 16.8344C378.757 16.8344 461.161 123.484 461.161 258.886C461.161 394.289 381.528 507.946 207.727 507.946H0V16.8344H207.727ZM837.556 199.948V199.941V199.938C837.412 194.523 837.286 189.769 837.118 185.217V16.8353H974.907V507.948H858.57L656.393 243.45L658.47 350.793V507.948H519.979V16.8353H636.301L841.266 285.543C838.641 240.782 838.01 217.064 837.556 199.948Z" fill="white"/>
<path fill-rule="evenodd" clip-rule="evenodd" d="M1829.94 135.402C1813.31 107.334 1767.61 80.6781 1715 80.6781C1647.13 80.6781 1614.59 109.439 1614.59 145.928C1614.59 188.723 1664.44 200.652 1722.6 207.669C1823.7 220.299 1917.88 246.956 1917.88 364.121C1917.88 473.569 1822.31 520.575 1714.3 520.575C1615.28 520.575 1539.11 489.71 1503.1 399.909L1579.28 359.912C1600.74 413.933 1656.82 437.793 1715.69 437.793C1773.15 437.793 1827.16 417.443 1827.16 364.121C1827.16 317.818 1779.38 298.873 1715 291.855C1615.97 279.936 1524.57 253.27 1524.57 143.121C1524.57 42.0934 1622.9 0.693038 1712.22 0C1787.7 0 1865.93 21.744 1902.63 97.5103L1829.94 135.402ZM2218.59 294.665C2213.06 249.764 2178.44 227.309 2129.96 227.309C2084.25 227.309 2046.87 249.764 2034.41 294.665H2218.59ZM2033.02 365.528C2038.56 408.324 2075.26 439.189 2134.81 439.189C2165.97 439.189 2206.82 427.259 2226.22 406.919L2280.2 460.941C2244.21 498.825 2185.35 517.069 2133.42 517.069C2015.71 517.069 1945.78 443.4 1945.78 332.557C1945.78 227.309 2016.41 151.535 2127.19 151.535C2241.45 151.535 2312.76 223.101 2299.61 365.528H2033.02ZM2592.86 326.935V507.947H2677.34V326.233C2677.34 217.487 2612.94 156.448 2532.64 156.448C2489.7 156.448 2455.07 173.99 2420.45 208.365L2414.92 161.36H2339.43V507.947H2423.21V331.146C2423.21 278.526 2458.53 234.328 2510.45 234.328C2564.48 234.328 2592.86 274.315 2592.86 326.935ZM2951.34 253.973C2927.11 230.815 2899.41 223.105 2866.87 223.105C2826.72 223.105 2804.55 235.737 2804.55 257.481C2804.55 279.936 2824.63 292.557 2868.26 295.363C2932.66 299.574 3014.35 314.309 3014.35 406.216C3014.35 467.255 2965.2 519.873 2867.56 519.873C2813.56 519.873 2759.55 510.751 2709.7 458.133L2751.24 397.094C2775.47 424.46 2830.87 444.809 2868.93 445.501C2900.8 446.203 2930.57 429.371 2930.57 404.111C2930.57 380.262 2911.19 370.437 2862.73 367.629C2798.33 362.718 2721.47 338.861 2721.47 260.287C2721.47 180.302 2803.18 152.234 2865.5 152.234C2918.81 152.234 2958.96 162.769 2998.43 197.845L2951.34 253.973ZM3221.81 227.309C3270.26 227.309 3304.89 249.764 3310.42 294.665H3126.24C3138.7 249.764 3176.09 227.309 3221.81 227.309ZM3226.66 439.189C3167.1 439.189 3130.39 408.324 3124.87 365.528H3391.46C3404.61 223.101 3333.3 151.535 3219.04 151.535C3108.25 151.535 3037.6 227.309 3037.6 332.557C3037.6 443.4 3107.55 517.069 3225.26 517.069C3277.18 517.069 3336.04 498.825 3372.05 460.941L3318.05 406.919C3298.67 427.259 3257.8 439.189 3226.66 439.189Z" fill="#1EAE5A"/>
</g>
<defs>
<clipPath id="clip0_1403_1239">
<rect width="3393" height="522" fill="white"/>
</clipPath>
</defs>
</svg>
