<svg width="180" height="64" viewBox="0 0 180 64" fill="none" xmlns="http://www.w3.org/2000/svg">
<path d="M88.6218 44.124C86.7437 44.124 84.89 43.7582 83.0851 43.0508C81.2803 42.3435 79.6705 41.3435 78.2559 40.0508L79.6705 38.2703C80.4022 37.3435 81.7437 37.1728 82.7193 37.8557C83.4998 38.4167 84.2559 38.8557 85.012 39.1728C86.2803 39.7338 87.6218 40.0021 89.0364 40.0021C90.012 40.0021 90.8657 39.8801 91.5974 39.6606C92.3047 39.4167 92.8657 39.0752 93.2559 38.6362C93.6462 38.1972 93.8413 37.6606 93.8413 37.0508C93.8413 36.2459 93.5486 35.6118 92.9632 35.1728C92.3779 34.7337 91.3779 34.3923 89.9632 34.1728L85.3047 33.3679C83.3047 33.002 81.7925 32.2947 80.7437 31.2459C79.6949 30.1727 79.1583 28.8069 79.1583 27.0995C79.1583 25.6361 79.5485 24.3922 80.3046 23.319C81.0608 22.2459 82.1339 21.441 83.5242 20.8556C84.89 20.2946 86.5486 20.002 88.451 20.002C90.1584 20.002 91.8657 20.2946 93.5974 20.8556C95.3291 21.4166 96.8413 22.2459 98.1584 23.2947L96.8169 25.1483C96.1584 26.0752 94.8901 26.3434 93.9145 25.7825C91.9876 24.6361 90.0608 24.0751 88.134 24.0751C87.2559 24.0751 86.4998 24.1971 85.8413 24.4166C85.1827 24.6361 84.6949 24.9532 84.3535 25.3434C84.012 25.7337 83.8413 26.1971 83.8413 26.7093C83.8413 27.4654 84.1095 28.0508 84.6217 28.4166C85.1583 28.8069 86.012 29.0996 87.1827 29.3191L91.6218 30.0264C93.9633 30.4166 95.7438 31.1484 96.9145 32.2703C98.0852 33.3679 98.6706 34.8313 98.6706 36.6606C98.6706 38.1728 98.256 39.5142 97.4511 40.6362C96.6218 41.7582 95.4755 42.6362 93.9876 43.246C92.4267 43.807 90.6462 44.124 88.6218 44.124Z" fill="#0CAD5A"/>
<path d="M108.695 44.124C106.939 44.124 105.354 43.7093 103.939 42.9045C102.524 42.0996 101.402 41.002 100.573 39.6361C99.7437 38.2703 99.3291 36.7581 99.3291 35.0508C99.3291 33.3678 99.7193 31.8312 100.524 30.4654C101.329 29.0995 102.402 28.0019 103.768 27.1971C105.134 26.3922 106.646 25.9775 108.305 25.9775C109.988 25.9775 111.476 26.3922 112.793 27.1971C114.11 28.0263 115.134 29.1239 115.89 30.5385C116.646 31.9532 117.012 33.5629 117.012 35.3678V36.5873H104.036C104.232 37.2703 104.573 37.9044 105.036 38.4654C105.5 39.0264 106.085 39.4654 106.744 39.7581C107.427 40.0508 108.134 40.2215 108.939 40.2215C109.695 40.2215 110.427 40.0996 111.085 39.88C111.232 39.8313 111.378 39.7581 111.524 39.7093C112.402 39.3191 113.451 39.4654 114.183 40.124L115.817 41.6118C114.744 42.4898 113.646 43.124 112.5 43.5386C111.378 43.9288 110.11 44.124 108.695 44.124ZM103.963 33.2946H112.5C112.329 32.6117 112.012 32.002 111.622 31.4654C111.207 30.9288 110.719 30.5385 110.134 30.2459C109.549 29.9532 108.915 29.8068 108.256 29.8068C107.549 29.8068 106.89 29.9532 106.305 30.2215C105.719 30.4898 105.232 30.9044 104.841 31.441C104.427 31.9776 104.158 32.5873 103.963 33.2946Z" fill="#0CAD5A"/>
<path d="M118.476 43.7825V28.7092C118.476 27.3678 119.573 26.2946 120.89 26.2946H123.061V27.7336C124.427 26.5385 126.061 25.9531 128.012 25.9531C129.354 25.9531 130.549 26.2458 131.598 26.8312C132.646 27.4165 133.451 28.2458 134.037 29.2946C134.622 30.3434 134.915 31.5385 134.915 32.9044V41.3678C134.915 42.7093 133.817 43.7825 132.5 43.7825H130.354V33.6117C130.354 32.4654 130.012 31.5629 129.354 30.9044C128.695 30.2458 127.793 29.9044 126.695 29.9044C125.915 29.9044 125.207 30.0507 124.622 30.3678C124.012 30.6605 123.524 31.0995 123.11 31.6605V41.3678C123.11 42.7093 122.012 43.7825 120.695 43.7825H118.476Z" fill="#0CAD5A"/>
<path d="M144.061 44.124C142.5 44.124 141.012 43.9288 139.646 43.5142C138.281 43.0996 137.085 42.5142 136.061 41.7581L137.354 40.0264C137.89 39.2947 138.915 39.0752 139.72 39.4898C140.232 39.7581 140.744 40.002 141.256 40.1727C142.183 40.5142 143.11 40.6849 144.037 40.6849C145.061 40.6849 145.89 40.5142 146.5 40.1727C147.11 39.8313 147.427 39.3678 147.427 38.8069C147.427 38.3678 147.256 38.002 146.915 37.7337C146.573 37.4654 146.012 37.2703 145.256 37.1727L141.89 36.6605C140.159 36.3922 138.842 35.8312 137.939 34.9532C137.037 34.0995 136.573 32.9532 136.573 31.5385C136.573 30.3922 136.866 29.4166 137.451 28.5873C138.037 27.758 138.89 27.1239 139.988 26.6605C141.085 26.2214 142.354 25.9775 143.817 25.9775C145.11 25.9775 146.378 26.1483 147.598 26.5141C148.817 26.88 149.964 27.4166 151.037 28.1483L149.793 29.8312C149.256 30.5385 148.281 30.7824 147.476 30.3922C146.988 30.1483 146.5 29.9776 146.037 29.8312C145.159 29.5629 144.281 29.4166 143.403 29.4166C142.598 29.4166 141.939 29.5629 141.427 29.88C140.915 30.1971 140.646 30.6117 140.646 31.1239C140.646 31.5873 140.817 31.9532 141.183 32.2215C141.549 32.4898 142.134 32.6849 142.988 32.8312L146.354 33.2946C148.11 33.5386 149.427 34.0995 150.354 34.9776C151.281 35.8556 151.72 36.9532 151.72 38.2947C151.72 39.4166 151.378 40.4166 150.72 41.2703C150.037 42.124 149.134 42.8069 147.988 43.3191C146.866 43.8801 145.549 44.124 144.061 44.124Z" fill="#0CAD5A"/>
<path d="M161.842 44.124C160.086 44.124 158.501 43.7093 157.086 42.9045C155.671 42.0752 154.549 41.002 153.72 39.6361C152.891 38.2703 152.476 36.7581 152.476 35.0508C152.476 33.3678 152.866 31.8312 153.671 30.4654C154.476 29.0995 155.549 28.0019 156.915 27.1971C158.281 26.3922 159.793 25.9775 161.452 25.9775C163.135 25.9775 164.622 26.3922 165.94 27.1971C167.257 28.0263 168.281 29.1239 169.037 30.5385C169.793 31.9532 170.159 33.5629 170.159 35.3678V36.5873H157.183C157.379 37.2703 157.72 37.9044 158.183 38.4654C158.647 39.0264 159.232 39.4654 159.891 39.7581C160.574 40.0508 161.281 40.2215 162.086 40.2215C162.842 40.2215 163.574 40.0996 164.232 39.88C164.379 39.8313 164.525 39.7581 164.671 39.7093C165.549 39.3191 166.598 39.4654 167.33 40.124L168.964 41.6118C167.891 42.4898 166.793 43.124 165.647 43.5386C164.525 43.9288 163.232 44.124 161.842 44.124ZM157.086 33.2946H165.622C165.452 32.6117 165.135 32.002 164.744 31.4654C164.33 30.9288 163.842 30.5385 163.257 30.2459C162.671 29.9532 162.037 29.8068 161.379 29.8068C160.671 29.8068 160.013 29.9532 159.427 30.2215C158.842 30.4898 158.354 30.9044 157.964 31.441C157.549 31.9776 157.281 32.5873 157.086 33.2946Z" fill="#0CAD5A"/>
<path d="M33.7925 43.7828V20.2705H39.2315L49.9145 33.9047V23.0998C49.9145 21.5388 51.1828 20.2705 52.7438 20.2705H55.3536V43.7828H50.256L39.2315 29.612V40.9535C39.2315 42.5145 37.9632 43.7828 36.4023 43.7828H33.7925Z" fill="#13173F"/>
<path d="M67.2314 44.124C65.3289 44.124 63.4509 43.7825 61.5972 43.0752C59.7435 42.3923 58.085 41.4166 56.6216 40.1971L58.2801 38.0264C59.1094 36.9532 60.646 36.6849 61.7923 37.4166C62.4997 37.88 63.1582 38.2215 63.8167 38.4898C65.0363 39.002 66.3046 39.2459 67.6704 39.2459C68.5729 39.2459 69.329 39.1483 69.9631 38.9776C70.5973 38.8069 71.0607 38.5386 71.4021 38.1971C71.7436 37.8557 71.9143 37.441 71.9143 36.9776C71.9143 36.3191 71.6704 35.8313 71.1826 35.4654C70.6948 35.0995 69.8412 34.8312 68.6704 34.6361L63.4997 33.7337C61.5972 33.3922 60.1338 32.6605 59.1094 31.5385C58.085 30.4166 57.5728 29.002 57.5728 27.2702C57.5728 25.758 57.9631 24.441 58.7435 23.3434C59.524 22.2458 60.6216 21.4165 62.0606 20.8312C63.4997 20.2458 65.2314 19.9531 67.207 19.9531C68.9631 19.9531 70.7192 20.2458 72.4753 20.8312C74.2558 21.4165 75.768 22.2458 77.0851 23.2946L75.4997 25.5141C74.7192 26.6117 73.2558 26.9044 72.0851 26.2458C70.329 25.2458 68.5729 24.758 66.8168 24.758C66.0363 24.758 65.3533 24.8312 64.7924 25.0019C64.085 25.2214 63.5728 25.5141 63.2802 25.9288C63.085 26.1971 63.0119 26.5141 63.0119 26.8556C63.0362 27.4166 63.2558 27.8312 63.6704 28.1483C64.1094 28.4654 64.8167 28.7093 65.7924 28.88L70.6704 29.6849C72.9387 30.0507 74.6461 30.7824 75.8168 31.9288C76.9875 33.0751 77.5729 34.5386 77.5729 36.3678C77.5729 37.9532 77.1583 39.3191 76.329 40.4898C75.4997 41.6362 74.3046 42.5386 72.768 43.1484C71.207 43.8069 69.3534 44.124 67.2314 44.124Z" fill="#13173F"/>
<path d="M19.8654 35.3924C21.7243 35.3924 23.2313 33.8854 23.2313 32.0265C23.2313 30.1676 21.7243 28.6606 19.8654 28.6606C18.0065 28.6606 16.4995 30.1676 16.4995 32.0265C16.4995 33.8854 18.0065 35.3924 19.8654 35.3924Z" fill="#0CAD5A"/>
<path d="M30.8409 27.4652C30.2068 26.0262 29.3287 24.7823 28.1824 23.7091C27.0604 22.6359 25.7433 21.7822 24.2311 21.1969C22.7189 20.5871 21.1092 20.2944 19.3531 20.2944H9.84082V38.7092C9.84082 39.1482 10.3774 39.3677 10.6701 39.0506L13.8408 35.8799C14.353 35.3677 14.5726 34.5872 14.3286 33.8799C14.0847 33.1482 13.9872 32.3677 14.0604 31.5384C14.3043 28.7091 16.597 26.4408 19.4262 26.2213C23.0116 25.953 26.0116 28.9286 25.7189 32.514C25.4994 35.1482 23.0604 37.5872 20.4506 37.8555C19.4994 37.9531 18.5726 37.8067 17.7433 37.4896C17.036 37.2213 16.2311 37.4165 15.6945 37.9531L10.6701 42.9531C10.353 43.2702 10.5725 43.7824 11.0116 43.7824H19.3775C21.1336 43.7824 22.7433 43.4897 24.2555 42.8799C25.7677 42.2702 27.0604 41.4409 28.2068 40.3677C29.3531 39.2945 30.2312 38.075 30.8653 36.6604C31.4995 35.2457 31.8165 33.7335 31.8165 32.0994C31.7921 30.4408 31.4751 28.9042 30.8409 27.4652Z" fill="#13173F"/>
</svg>
