<svg width="133" height="20" viewBox="0 0 133 20" fill="none" xmlns="http://www.w3.org/2000/svg">
<path d="M65.187 19.9998C63.633 19.9998 62.0992 19.6971 60.6058 19.1118C59.1124 18.5265 57.7804 17.6991 56.6098 16.6295L57.7804 15.1562C58.3858 14.3893 59.4958 14.248 60.3031 14.8131C60.9489 15.2773 61.5745 15.6406 62.2002 15.9029C63.2496 16.3671 64.3596 16.5891 65.5301 16.5891C66.3374 16.5891 67.0437 16.4882 67.6492 16.3066C68.2345 16.1047 68.6986 15.8222 69.0215 15.4589C69.3445 15.0957 69.5059 14.6517 69.5059 14.1471C69.5059 13.4811 69.2637 12.9564 68.7794 12.5931C68.295 12.2299 67.4676 11.9473 66.297 11.7657L62.4423 11.0997C60.7874 10.797 59.5362 10.2117 58.6684 9.34389C57.8006 8.4559 57.3566 7.32573 57.3566 5.91302C57.3566 4.70212 57.6795 3.67285 58.3051 2.78486C58.9307 1.89687 59.8187 1.23088 60.9691 0.746516C62.0992 0.282339 63.4716 0.0401589 65.0458 0.0401589C66.4585 0.0401589 67.8712 0.282339 69.3041 0.746516C70.737 1.21069 71.9883 1.89687 73.0781 2.76468L71.9681 4.29848C71.4232 5.06539 70.3737 5.28738 69.5665 4.82321C67.9721 3.87467 66.3777 3.41049 64.7834 3.41049C64.0569 3.41049 63.4312 3.5114 62.8863 3.69304C62.3414 3.87467 61.9378 4.13703 61.6552 4.45994C61.3727 4.78284 61.2314 5.16629 61.2314 5.59011C61.2314 6.21574 61.4534 6.7001 61.8773 7.00282C62.3212 7.32573 63.0276 7.56791 63.9963 7.74954L67.6694 8.33481C69.6068 8.65772 71.0801 9.26317 72.0488 10.1915C73.0175 11.0997 73.5019 12.3106 73.5019 13.8242C73.5019 15.0755 73.1588 16.1855 72.4928 17.1138C71.8066 18.0422 70.8581 18.7687 69.627 19.2733C68.3354 19.7374 66.8621 19.9998 65.187 19.9998Z" fill="#0CAD5A"/>
<path d="M81.7961 19.9999C80.343 19.9999 79.0312 19.6568 77.8607 18.9909C76.6901 18.3249 75.7618 17.4167 75.0756 16.2865C74.3895 15.1563 74.0464 13.9051 74.0464 12.4924C74.0464 11.0998 74.3693 9.82839 75.0353 8.69822C75.7012 7.56805 76.5892 6.65987 77.7194 5.99388C78.8496 5.32788 80.1009 4.9848 81.4732 4.9848C82.8657 4.9848 84.0968 5.32788 85.1866 5.99388C86.2764 6.68005 87.1241 7.58823 87.7497 8.75876C88.3753 9.9293 88.678 11.2613 88.678 12.7547V13.7638H77.9414C78.1029 14.3289 78.3854 14.8536 78.7689 15.3178C79.1523 15.782 79.6367 16.1452 80.1816 16.3874C80.7467 16.6296 81.3319 16.7709 81.9979 16.7709C82.6236 16.7709 83.229 16.67 83.7739 16.4883C83.895 16.448 84.0161 16.3874 84.1372 16.3471C84.8637 16.0242 85.7315 16.1452 86.337 16.6901L87.6891 17.9212C86.8011 18.6478 85.893 19.1725 84.9444 19.5156C84.0161 19.8385 82.9666 19.9999 81.7961 19.9999ZM77.8809 11.0393H84.9444C84.8032 10.4742 84.5408 9.96966 84.2179 9.52566C83.8748 9.08167 83.4712 8.75876 82.9868 8.51658C82.5025 8.2744 81.9777 8.15331 81.4328 8.15331C80.8476 8.15331 80.3027 8.2744 79.8183 8.4964C79.3339 8.7184 78.9303 9.06149 78.6074 9.50548C78.2643 9.94948 78.0423 10.454 77.8809 11.0393Z" fill="#0CAD5A"/>
<path d="M89.8887 19.7172V7.24492C89.8887 6.13493 90.7969 5.24694 91.8867 5.24694H93.6829V6.43765C94.813 5.44875 96.1652 4.96439 97.7798 4.96439C98.8897 4.96439 99.8786 5.20657 100.746 5.69093C101.614 6.17529 102.28 6.86147 102.765 7.72928C103.249 8.59709 103.491 9.58599 103.491 10.7162V17.7192C103.491 18.8292 102.583 19.7172 101.493 19.7172H99.7172V11.3014C99.7172 10.3529 99.4346 9.60617 98.8897 9.06126C98.3448 8.51636 97.5981 8.23382 96.6899 8.23382C96.0441 8.23382 95.4589 8.35491 94.9745 8.61727C94.47 8.85945 94.0663 9.22272 93.7232 9.6869V17.7192C93.7232 18.8292 92.8151 19.7172 91.7253 19.7172H89.8887Z" fill="#0CAD5A"/>
<path d="M111.06 19.9999C109.768 19.9999 108.537 19.8385 107.407 19.4954C106.277 19.1523 105.288 18.6679 104.44 18.0423L105.51 16.6094C105.954 16.004 106.801 15.8223 107.467 16.1654C107.891 16.3874 108.315 16.5892 108.739 16.7305C109.506 17.0131 110.273 17.1543 111.039 17.1543C111.887 17.1543 112.573 17.0131 113.078 16.7305C113.582 16.448 113.845 16.0645 113.845 15.6003C113.845 15.2371 113.703 14.9343 113.421 14.7123C113.138 14.4903 112.674 14.3289 112.049 14.2482L109.263 13.8244C107.831 13.6024 106.741 13.1382 105.994 12.4116C105.247 11.7053 104.864 10.7567 104.864 9.58621C104.864 8.63767 105.106 7.83041 105.59 7.14423C106.075 6.45806 106.781 5.93333 107.689 5.54988C108.597 5.18661 109.647 4.9848 110.858 4.9848C111.927 4.9848 112.977 5.12607 113.986 5.42879C114.995 5.73152 115.944 6.17551 116.832 6.78096L115.802 8.1735C115.358 8.75876 114.551 8.96058 113.885 8.63767C113.481 8.43586 113.078 8.29459 112.694 8.1735C111.968 7.9515 111.241 7.83041 110.515 7.83041C109.849 7.83041 109.304 7.9515 108.88 8.21386C108.456 8.47622 108.234 8.81931 108.234 9.24312C108.234 9.62657 108.375 9.9293 108.678 10.1513C108.981 10.3733 109.465 10.5347 110.172 10.6558L112.957 11.0393C114.41 11.2411 115.5 11.7053 116.266 12.4318C117.033 13.1584 117.397 14.0665 117.397 15.1765C117.397 16.1049 117.114 16.9323 116.569 17.6387C116.004 18.345 115.257 18.9101 114.309 19.3339C113.38 19.7981 112.291 19.9999 111.06 19.9999Z" fill="#0CAD5A"/>
<path d="M125.772 19.9999C124.319 19.9999 123.007 19.6568 121.837 18.9909C120.666 18.3047 119.738 17.4167 119.052 16.2865C118.366 15.1563 118.022 13.9051 118.022 12.4924C118.022 11.0998 118.345 9.82839 119.011 8.69822C119.677 7.56805 120.565 6.65987 121.696 5.99388C122.826 5.32788 124.077 4.9848 125.449 4.9848C126.842 4.9848 128.073 5.32788 129.163 5.99388C130.253 6.68005 131.1 7.58823 131.726 8.75876C132.351 9.9293 132.654 11.2613 132.654 12.7547V13.7638H121.918C122.079 14.3289 122.362 14.8536 122.745 15.3178C123.128 15.782 123.613 16.1452 124.158 16.3874C124.723 16.6296 125.308 16.7709 125.974 16.7709C126.6 16.7709 127.205 16.67 127.75 16.4883C127.871 16.448 127.992 16.3874 128.113 16.3471C128.84 16.0242 129.708 16.1452 130.313 16.6901L131.665 17.9212C130.777 18.6478 129.869 19.1725 128.921 19.5156C127.992 19.8385 126.923 19.9999 125.772 19.9999ZM121.837 11.0393H128.9C128.759 10.4742 128.497 9.96966 128.174 9.52566C127.831 9.08167 127.427 8.75876 126.943 8.51658C126.458 8.2744 125.934 8.15331 125.389 8.15331C124.804 8.15331 124.259 8.2744 123.774 8.4964C123.29 8.7184 122.886 9.06149 122.563 9.50548C122.22 9.94948 121.998 10.454 121.837 11.0393Z" fill="#0CAD5A"/>
<path d="M19.8184 19.7174V0.262328H24.3189L33.1585 11.5439V2.6034C33.1585 1.31177 34.2079 0.262328 35.4996 0.262328H37.659V19.7174H33.441L24.3189 7.9919V17.3764C24.3189 18.668 23.2695 19.7174 21.9779 19.7174H19.8184Z" fill="#13173F"/>
<path d="M47.4877 20C45.9135 20 44.3595 19.7175 42.8257 19.1322C41.2919 18.5671 39.9196 17.7598 38.7087 16.7508L40.081 14.9546C40.7672 14.0666 42.0386 13.8446 42.9872 14.4501C43.5724 14.8335 44.1174 15.116 44.6623 15.338C45.6713 15.7619 46.7208 15.9637 47.851 15.9637C48.5977 15.9637 49.2233 15.8829 49.748 15.7417C50.2728 15.6004 50.6562 15.3784 50.9387 15.0959C51.2213 14.8133 51.3626 14.4702 51.3626 14.0868C51.3626 13.5419 51.1607 13.1382 50.7571 12.8355C50.3535 12.5328 49.6471 12.3108 48.6784 12.1493L44.3999 11.4026C42.8257 11.1201 41.6148 10.5146 40.7672 9.58628C39.9196 8.65792 39.4958 7.48739 39.4958 6.05449C39.4958 4.80323 39.8187 3.71342 40.4645 2.80525C41.1103 1.89707 42.0185 1.2109 43.2092 0.726539C44.3999 0.24218 45.8328 0 47.4675 0C48.9206 0 50.3737 0.24218 51.8267 0.726539C53.3 1.2109 54.5513 1.89707 55.6411 2.76488L54.3293 4.60141C53.6834 5.50959 52.4725 5.75177 51.5038 5.20686C50.0508 4.37942 48.5977 3.97578 47.1446 3.97578C46.4988 3.97578 45.9337 4.03633 45.4695 4.1776C44.8843 4.35923 44.4604 4.60141 44.2183 4.9445C44.0568 5.1665 43.9963 5.42886 43.9963 5.7114C44.0164 6.17558 44.1981 6.51867 44.5412 6.78103C44.9044 7.04339 45.4897 7.24521 46.297 7.38648L50.3333 8.05247C52.2102 8.3552 53.6229 8.96064 54.5916 9.90918C55.5603 10.8577 56.0447 12.0686 56.0447 13.5822C56.0447 14.894 55.7016 16.0242 55.0154 16.9929C54.3293 17.9415 53.3404 18.6882 52.0689 19.1927C50.7773 19.7376 49.2435 20 47.4877 20Z" fill="#13173F"/>
<path d="M8.29461 12.7751C9.83276 12.7751 11.0797 11.5281 11.0797 9.98998C11.0797 8.45184 9.83276 7.20492 8.29461 7.20492C6.75646 7.20492 5.50955 8.45184 5.50955 9.98998C5.50955 11.5281 6.75646 12.7751 8.29461 12.7751Z" fill="#0CAD5A"/>
<path d="M17.3764 6.21581C16.8517 5.02509 16.1251 3.99583 15.1766 3.10784C14.2482 2.21984 13.1584 1.51349 11.9072 1.02913C10.6559 0.524588 9.32392 0.282408 7.87084 0.282408H0V15.5195C0 15.8828 0.443996 16.0644 0.686175 15.8021L3.30979 13.1785C3.7336 12.7547 3.91524 12.1088 3.71342 11.5236C3.5116 10.9181 3.43088 10.2723 3.49142 9.58614C3.69324 7.24507 5.59031 5.36818 7.93138 5.18655C10.8981 4.96455 13.3804 7.42671 13.1382 10.3934C12.9566 12.573 10.9384 14.5912 8.77901 14.8132C7.99193 14.8939 7.22503 14.7728 6.53885 14.5105C5.95358 14.2885 5.28759 14.4499 4.84359 14.8939L0.686175 19.0311C0.423814 19.2935 0.605449 19.7173 0.968718 19.7173H7.89102C9.3441 19.7173 10.6761 19.4751 11.9273 18.9706C13.1786 18.4661 14.2482 17.7799 15.1968 16.8919C16.1453 16.0039 16.8718 14.9948 17.3966 13.8243C17.9213 12.6538 18.1837 11.4025 18.1837 10.0503C18.1635 8.67797 17.9011 7.40653 17.3764 6.21581Z" fill="#13173F"/>
</svg>
