<svg width="180" height="64" viewBox="0 0 180 64" fill="none" xmlns="http://www.w3.org/2000/svg">
<g clip-path="url(#clip0_5076_121441)">
<mask id="mask0_5076_121441" style="mask-type:luminance" maskUnits="userSpaceOnUse" x="10" y="20" width="145" height="24">
<path d="M154.717 20.0037H10.022V43.9964H154.717V20.0037Z" fill="white"/>
</mask>
<g mask="url(#mask0_5076_121441)">
<path d="M37.7345 30.989V41.9625H31.9814V21.3572H32.5944C33.8034 21.3572 35.014 21.3773 36.2229 21.3464C36.6749 21.3464 36.7164 21.3464 36.8392 21.3464L37.2281 21.8328C37.2281 21.8328 42.3651 28.5695 44.9406 31.9324C45.078 32.1115 45.2247 32.2829 45.3915 32.4867V21.4082H51.1029V42.0104C49.9479 42.0104 48.818 42.0335 47.6875 42.0335C46.979 42.0335 47.1789 42.0335 46.2996 42.0335C46.045 41.7789 45.2054 40.6571 44.9406 40.2983C42.6539 37.1932 40.6312 34.7209 38.2827 31.6591C38.1298 31.4599 37.9646 31.27 37.733 30.989H37.7345Z" fill="white"/>
<path d="M10.022 21.4358C10.1023 21.4065 10.1656 21.3648 10.2289 21.3648C13.4775 21.3725 16.7278 21.3185 19.9734 21.4158C22.3496 21.4868 24.5314 22.2526 26.3441 23.8584C28.1074 25.4226 29.026 27.4422 29.3256 29.7366C29.6097 31.9214 29.4584 34.0831 28.5953 36.1444C27.201 39.4749 24.6039 41.2583 21.1067 41.8326C20.3856 41.9516 19.646 41.9979 18.9126 42.0025C16.0916 42.0226 13.2691 42.0118 10.4466 42.0118C10.3308 42.0118 10.2134 42.0118 10.022 42.0118V21.4358ZM15.7504 37.0384C17.0119 37.0384 18.2425 37.1033 19.4622 37.023C21.3197 36.8994 22.5828 35.8896 23.2529 34.168C23.7717 32.8355 23.8443 31.4505 23.5725 30.0562C23.1463 27.8699 21.8926 26.5713 19.7109 26.3057C18.4123 26.1467 17.0783 26.2764 15.7488 26.2764V37.0384H15.7504Z" fill="white"/>
<path d="M53.3076 38.9702C54.3855 37.7211 55.4199 36.5229 56.4683 35.3093C56.7278 35.5224 56.9577 35.7215 57.1985 35.9068C59.2197 37.4555 61.499 37.9002 63.9726 37.4354C64.3338 37.3675 64.698 37.1976 65.0053 36.9907C65.9594 36.3484 65.9241 35.212 64.9418 34.6114C64.1112 34.1034 63.165 33.9906 62.22 33.8949C60.7809 33.7513 59.3605 33.5321 57.9813 33.0673C53.9034 31.6916 53.5175 27.9473 54.2246 25.4119C54.6493 23.8911 55.7333 22.8735 57.0907 22.137C58.2717 21.4963 59.5535 21.1458 60.8796 21.0207C62.8729 20.8339 64.8571 20.9049 66.7839 21.541C68.004 21.944 69.1201 22.5323 70.1533 23.3923C69.2036 24.6183 68.2804 25.8103 67.4046 26.9406C66.4662 26.5731 65.5982 26.15 64.681 25.8968C63.5818 25.5926 62.4361 25.5309 61.3042 25.7918C61.0308 25.8551 60.7592 25.9508 60.5058 26.0713C60.0181 26.3013 59.7217 26.6919 59.7308 27.2432C59.7399 27.8083 59.9981 28.2823 60.5323 28.4753C61.1052 28.6823 61.7089 28.8336 62.3126 28.9138C63.767 29.11 65.2417 29.235 66.6144 29.7847C67.4632 30.1244 68.3095 30.5289 69.0602 31.0446C72.2035 33.197 72.2192 38.3989 69.1093 40.6779C67.6967 41.714 66.1015 42.2683 64.3863 42.4644C62.1366 42.7207 59.8916 42.7145 57.7097 41.9826C55.9837 41.4036 54.5845 40.3444 53.3107 38.9671L53.3076 38.9702Z" fill="white"/>
<path d="M90.3183 24.7509C89.293 25.2866 88.2937 25.8101 87.2531 26.3536C86.3239 25.0813 85.0203 24.4081 83.5104 24.1641C82.2381 23.9572 80.952 23.9958 79.7506 24.5455C78.8661 24.9501 78.2437 25.5893 78.182 26.6377C78.1342 27.4606 78.4893 28.052 79.1869 28.4458C79.9793 28.8935 80.8577 29.0634 81.7439 29.2178C83.2526 29.4803 84.7595 29.7551 86.2587 30.0685C86.7359 30.1689 87.1945 30.3866 87.6452 30.5843C90.1514 31.6821 91.2724 34.0753 90.8986 36.8701C90.5621 39.3946 89.0674 40.9849 86.7776 41.8156C83.7929 42.8996 80.7482 42.8872 77.7482 41.8342C75.7684 41.1393 74.4144 39.7327 73.5608 37.8351C73.5143 37.7332 73.4973 37.6174 73.4478 37.4429C74.5009 36.8932 75.5384 36.3497 76.6285 35.7815C76.6842 35.8741 76.7259 35.9297 76.755 35.9915C77.7186 37.9617 79.4403 38.7739 81.4953 38.99C82.5746 39.1028 83.6864 39.1135 84.7239 38.7137C85.2846 38.4975 85.8418 38.1995 86.3082 37.8227C87.3444 36.9843 87.4553 34.8211 85.8962 33.9364C84.9956 33.4253 84.0215 33.1783 83.0101 33.0424C81.2563 32.8062 79.499 32.5961 77.8421 31.9121C75.957 31.1339 74.657 29.8215 74.3944 27.7633C74.0884 25.3731 74.6044 23.3643 77.2075 21.8496C78.4258 21.1409 79.7693 20.8135 81.1789 20.6761C82.831 20.514 84.4431 20.6561 86.0148 21.1424C87.9234 21.7323 89.4086 22.8656 90.3166 24.7555L90.3183 24.7509Z" fill="#1EAE5A"/>
<path d="M153.272 36.0242H141.963C142.019 36.8626 142.382 37.491 142.946 38.0098C143.914 38.8992 145.123 39.157 146.37 39.1014C147.679 39.0412 148.942 38.717 149.904 37.8847C150.664 38.6475 151.408 39.3948 152.153 40.1421L152.214 40.2024C151.957 40.4263 151.842 40.5256 151.558 40.7397C148.464 42.7763 145.204 43.0511 141.88 41.4298C139.606 40.3212 138.54 38.2893 138.265 35.8543C138.079 34.1976 138.196 32.5501 138.966 31.0168C140.157 28.6467 142.119 27.4084 144.722 27.0702C145.989 26.905 147.221 26.9992 148.441 27.342C151.067 28.0785 152.528 29.8912 153.019 32.4837C153.232 33.6062 153.225 34.7304 153.272 36.0257V36.0242ZM149.617 33.0087C149.585 31.8321 148.862 30.9026 147.653 30.4934C146.544 30.1182 145.419 30.1043 144.319 30.5088C143.172 30.9319 142.376 31.7132 142.018 33.0087H149.617Z" fill="#1EAE5A"/>
<path d="M95.8569 36.0272C95.9634 37.0834 96.4993 37.8183 97.3052 38.3603C98.221 38.9764 99.2785 39.1694 100.352 39.0999C101.638 39.0165 102.873 38.7 103.81 37.8878C104.573 38.6552 105.316 39.401 106.103 40.1915C105.745 40.6532 105.11 41.0577 104.44 41.3882C101.995 42.5941 99.4497 42.7793 96.8714 41.9224C94.6912 41.1967 93.209 39.699 92.537 37.491C91.8468 35.2228 91.8825 32.9669 92.9882 30.8238C94.1648 28.5433 96.1242 27.3929 98.6391 27.0671C99.907 26.9019 101.137 27.0023 102.358 27.342C104.922 28.0584 106.349 29.8279 106.921 32.3462C107.19 33.5274 107.17 34.7333 107.056 36.0272H95.8569ZM103.558 33.0086C103.485 32.005 103.041 31.2407 102.194 30.7991C100.537 29.936 98.8677 29.9854 97.2913 31.0045C96.5902 31.4569 96.1068 32.1224 95.9604 33.0102H103.558V33.0086Z" fill="#1EAE5A"/>
<path d="M123.021 42.035H119.433C119.433 41.7664 119.433 41.5363 119.433 41.3062C119.433 39.1554 119.448 37.003 119.424 34.8522C119.416 34.2453 119.346 33.6262 119.208 33.0348C118.845 31.4908 117.802 30.6601 116.249 30.5396C114.871 30.4331 113.757 30.9843 112.997 32.1593C112.568 32.8248 112.33 33.5567 112.332 34.3596C112.335 36.6294 112.33 38.8991 112.327 41.1673C112.327 41.4252 112.327 41.683 112.327 42.0644C111.12 42.0783 109.954 42.0752 108.74 42.0644V27.4114H111.921C112.008 27.9935 112.095 28.5849 112.2 29.289C112.525 29.0203 112.772 28.8134 113.022 28.6096C115.551 26.5544 119.081 26.7444 121.23 29.0604C122.14 30.0409 122.646 31.2298 122.86 32.5315C122.975 33.2247 123.009 33.9381 123.015 34.6437C123.033 36.8656 123.021 39.0875 123.021 41.3109V42.0381V42.035Z" fill="#1EAE5A"/>
<path d="M136.568 28.9834C135.909 29.7693 135.273 30.5274 134.613 31.3133C134.532 31.2732 134.44 31.25 134.377 31.196C132.95 29.9932 131.301 29.8558 129.565 30.2309C129.101 30.3313 128.673 30.5753 128.477 31.0617C128.243 31.6437 128.484 32.3293 129.137 32.5934C129.716 32.828 130.356 32.9269 130.979 33.0365C131.953 33.2079 132.957 33.2542 133.908 33.5013C135.48 33.9089 136.696 34.789 137.104 36.472C137.682 38.856 136.659 41.0779 134.32 41.9194C130.984 43.1207 127.77 42.8365 124.917 40.5035C124.716 40.3383 124.489 40.2055 124.262 40.0495C124.934 39.0629 125.501 38.2307 126.096 37.3567C127.228 38.3665 128.51 38.9424 129.917 39.2235C130.729 39.3856 131.564 39.4582 132.365 39.1478C132.647 39.0397 132.929 38.8884 133.157 38.6954C133.988 37.9867 133.817 36.858 132.798 36.4921C132.273 36.3037 131.698 36.2187 131.138 36.1755C129.954 36.0844 128.793 35.9069 127.687 35.4653C126.348 34.9295 125.289 34.0911 124.971 32.6165C124.606 30.9273 125.011 29.4234 126.465 28.3441C127.54 27.5458 128.771 27.1691 130.093 27.0842C131.348 27.0039 132.603 27.0039 133.82 27.3806C134.845 27.6987 135.772 28.1974 136.568 28.9865V28.9834Z" fill="#1EAE5A"/>
</g>
</g>
<circle cx="25.3877" cy="19.9304" r="0.263672" fill="#D9D9D9"/>
<defs>
<clipPath id="clip0_5076_121441">
<rect width="144.739" height="23.9927" fill="white" transform="translate(10 20.0037)"/>
</clipPath>
</defs>
</svg>
