<svg width="180" height="64" viewBox="0 0 180 64" fill="none" xmlns="http://www.w3.org/2000/svg">
<path d="M80.3531 42.831C78.676 42.831 77.0206 42.5043 75.4088 41.8727C73.797 41.241 72.3595 40.348 71.0962 39.1936L72.3595 37.6036C73.0129 36.7759 74.2109 36.6234 75.0821 37.2333C75.7791 37.7343 76.4543 38.1263 77.1296 38.4095C78.2622 38.9104 79.4601 39.15 80.7234 39.15C81.5947 39.15 82.357 39.0411 83.0104 38.8451C83.6421 38.6273 84.1431 38.3224 84.4916 37.9303C84.84 37.5382 85.0143 37.059 85.0143 36.5145C85.0143 35.7957 84.7529 35.2294 84.2302 34.8374C83.7074 34.4453 82.8144 34.1404 81.5511 33.9444L77.3909 33.2256C75.6049 32.8989 74.2544 32.2672 73.3179 31.3306C72.3813 30.3723 71.9021 29.1525 71.9021 27.6278C71.9021 26.321 72.2506 25.2101 72.9258 24.2518C73.601 23.2934 74.5594 22.5746 75.8009 22.0519C77.0206 21.5509 78.5018 21.2896 80.2007 21.2896C81.7254 21.2896 83.25 21.5509 84.7965 22.0519C86.3429 22.5529 87.6934 23.2934 88.8695 24.23L87.6716 25.8854C87.0835 26.713 85.9509 26.9526 85.0796 26.4517C83.3589 25.428 81.6382 24.927 79.9175 24.927C79.1334 24.927 78.4582 25.0359 77.8701 25.2319C77.282 25.428 76.8464 25.7111 76.5415 26.0596C76.2365 26.4081 76.0841 26.8219 76.0841 27.2793C76.0841 27.9546 76.3237 28.4773 76.7811 28.804C77.2602 29.1525 78.0226 29.4139 79.0681 29.6099L83.0322 30.2416C85.1232 30.5901 86.7132 31.2435 87.7587 32.2454C88.8042 33.2256 89.327 34.5324 89.327 36.166C89.327 37.5165 88.9567 38.7144 88.2379 39.7163C87.4973 40.7183 86.4736 41.5024 85.145 42.0469C83.751 42.5479 82.161 42.831 80.3531 42.831Z" fill="#0CAD5A"/>
<path d="M98.2785 42.8311C96.7102 42.8311 95.2945 42.4608 94.0312 41.742C92.7679 41.0233 91.7659 40.0431 91.0254 38.8234C90.2848 37.6036 89.9146 36.2532 89.9146 34.7285C89.9146 33.2256 90.263 31.8534 90.9818 30.6337C91.7006 29.414 92.659 28.4338 93.8787 27.715C95.0984 26.9963 96.4489 26.626 97.93 26.626C99.4329 26.626 100.762 26.9963 101.938 27.715C103.114 28.4556 104.029 29.4357 104.704 30.699C105.379 31.9623 105.706 33.3999 105.706 35.0117V36.1007H94.1183C94.2926 36.7106 94.5975 37.2769 95.0113 37.7779C95.4252 38.2789 95.9479 38.6709 96.536 38.9323C97.1459 39.1937 97.7775 39.3461 98.4963 39.3461C99.1715 39.3461 99.8249 39.2372 100.413 39.0412C100.544 38.9976 100.674 38.9323 100.805 38.8887C101.589 38.5402 102.526 38.6709 103.179 39.259L104.639 40.5876C103.68 41.3718 102.7 41.9381 101.676 42.3084C100.674 42.6568 99.5418 42.8311 98.2785 42.8311ZM94.053 33.1603H101.676C101.524 32.5504 101.241 32.0059 100.892 31.5267C100.522 31.0475 100.086 30.699 99.5636 30.4377C99.0408 30.1763 98.4745 30.0456 97.8864 30.0456C97.2548 30.0456 96.6667 30.1763 96.1439 30.4159C95.6212 30.6555 95.1856 31.0258 94.8371 31.5049C94.4668 31.9841 94.2272 32.5286 94.053 33.1603Z" fill="#0CAD5A"/>
<path d="M107.013 42.526V29.0653C107.013 27.8673 107.993 26.9089 109.169 26.9089H111.108V28.194C112.327 27.1267 113.787 26.604 115.529 26.604C116.727 26.604 117.794 26.8654 118.731 27.3881C119.668 27.9109 120.386 28.6514 120.909 29.588C121.432 30.5246 121.693 31.5919 121.693 32.8116V40.3696C121.693 41.5676 120.713 42.526 119.537 42.526H117.62V33.4433C117.62 32.4196 117.315 31.6137 116.727 31.0256C116.139 30.4375 115.333 30.1325 114.353 30.1325C113.656 30.1325 113.024 30.2632 112.502 30.5464C111.957 30.8078 111.521 31.1998 111.151 31.7008V40.3696C111.151 41.5676 110.171 42.526 108.995 42.526H107.013Z" fill="#0CAD5A"/>
<path d="M129.861 42.8311C128.467 42.8311 127.138 42.6568 125.919 42.2866C124.699 41.9163 123.632 41.3935 122.717 40.7183L123.871 39.1719C124.35 38.5184 125.265 38.3224 125.984 38.6927C126.441 38.9323 126.899 39.1501 127.356 39.3026C128.184 39.6075 129.012 39.76 129.839 39.76C130.754 39.76 131.495 39.6075 132.039 39.3026C132.584 38.9976 132.867 38.5838 132.867 38.0828C132.867 37.6908 132.714 37.364 132.409 37.1245C132.104 36.8849 131.603 36.7106 130.928 36.6235L127.922 36.1661C126.376 35.9265 125.2 35.4255 124.394 34.6414C123.588 33.8791 123.174 32.8554 123.174 31.5921C123.174 30.5684 123.436 29.6971 123.958 28.9566C124.481 28.216 125.243 27.6497 126.224 27.2358C127.204 26.8438 128.336 26.626 129.643 26.626C130.798 26.626 131.93 26.7784 133.019 27.1052C134.108 27.4319 135.132 27.9111 136.09 28.5645L134.98 30.0674C134.5 30.699 133.629 30.9168 132.91 30.5684C132.475 30.3505 132.039 30.1981 131.625 30.0674C130.841 29.8278 130.057 29.6971 129.273 29.6971C128.554 29.6971 127.966 29.8278 127.509 30.1109C127.051 30.3941 126.812 30.7644 126.812 31.2218C126.812 31.6356 126.964 31.9623 127.291 32.2019C127.618 32.4415 128.14 32.6158 128.903 32.7465L131.908 33.1603C133.477 33.3781 134.653 33.8791 135.481 34.6632C136.308 35.4473 136.7 36.4275 136.7 37.6254C136.7 38.6273 136.395 39.5204 135.807 40.2827C135.197 41.045 134.391 41.6549 133.368 42.1123C132.366 42.6133 131.19 42.8311 129.861 42.8311Z" fill="#0CAD5A"/>
<path d="M145.74 42.8311C144.172 42.8311 142.756 42.4608 141.493 41.742C140.229 41.0015 139.227 40.0431 138.487 38.8234C137.746 37.6036 137.376 36.2532 137.376 34.7285C137.376 33.2256 137.724 31.8534 138.443 30.6337C139.162 29.414 140.12 28.4338 141.34 27.715C142.56 26.9963 143.91 26.626 145.391 26.626C146.894 26.626 148.223 26.9963 149.399 27.715C150.575 28.4556 151.49 29.4357 152.165 30.699C152.841 31.9623 153.167 33.3999 153.167 35.0117V36.1007H141.58C141.754 36.7106 142.059 37.2769 142.473 37.7779C142.887 38.2789 143.409 38.6709 143.997 38.9323C144.607 39.1937 145.239 39.3461 145.958 39.3461C146.633 39.3461 147.286 39.2372 147.874 39.0412C148.005 38.9976 148.136 38.9323 148.267 38.8887C149.051 38.5402 149.987 38.6709 150.641 39.259L152.1 40.5876C151.142 41.3718 150.161 41.9381 149.138 42.3084C148.136 42.6568 146.981 42.8311 145.74 42.8311ZM141.493 33.1603H149.116C148.964 32.5504 148.68 32.0059 148.332 31.5267C147.962 31.0475 147.526 30.699 147.003 30.4377C146.48 30.1763 145.914 30.0456 145.326 30.0456C144.694 30.0456 144.106 30.1763 143.584 30.4159C143.061 30.6555 142.625 31.0258 142.277 31.5049C141.906 31.9841 141.667 32.5286 141.493 33.1603Z" fill="#0CAD5A"/>
<path d="M31.3892 42.5263V21.5293H36.2463L45.7865 33.7049V24.0559C45.7865 22.6619 46.9191 21.5293 48.3131 21.5293H50.6436V42.5263H46.0914L36.2463 29.8714V39.9996C36.2463 41.3936 35.1137 42.5263 33.7197 42.5263H31.3892Z" fill="white"/>
<path d="M61.2511 42.8311C59.5522 42.8311 57.8751 42.5262 56.2197 41.8945C54.5643 41.2847 53.0832 40.4134 51.7764 39.3244L53.2575 37.3859C53.998 36.4275 55.3702 36.1879 56.394 36.8413C57.0256 37.2552 57.6137 37.5601 58.2018 37.7997C59.2908 38.2571 60.4235 38.4749 61.6432 38.4749C62.4491 38.4749 63.1243 38.3878 63.6906 38.2353C64.2569 38.0829 64.6708 37.8433 64.9757 37.5383C65.2806 37.2334 65.4331 36.8631 65.4331 36.4493C65.4331 35.8612 65.2153 35.4256 64.7797 35.0989C64.344 34.7721 63.5817 34.5325 62.5362 34.3583L57.9186 33.5524C56.2197 33.2475 54.9128 32.594 53.998 31.5921C53.0832 30.5902 52.6258 29.3269 52.6258 27.7804C52.6258 26.43 52.9743 25.2538 53.6713 24.2737C54.3683 23.2935 55.3485 22.553 56.6335 22.0302C57.9186 21.5075 59.4651 21.2461 61.2294 21.2461C62.7976 21.2461 64.3658 21.5075 65.9341 22.0302C67.5241 22.553 68.8745 23.2935 70.0507 24.2301L68.6349 26.2122C67.9379 27.1923 66.6311 27.4537 65.5856 26.8656C64.0173 25.9726 62.4491 25.537 60.8809 25.537C60.1839 25.537 59.574 25.6023 59.073 25.7548C58.4414 25.9508 57.984 26.2122 57.7226 26.5825C57.5484 26.822 57.483 27.1052 57.483 27.4101C57.5048 27.9111 57.7008 28.2814 58.0711 28.5645C58.4632 28.8477 59.0948 29.0655 59.966 29.218L64.3223 29.9367C66.3479 30.2635 67.8726 30.9169 68.9181 31.9406C69.9636 32.9643 70.4863 34.2712 70.4863 35.9048C70.4863 37.3205 70.116 38.5403 69.3755 39.5858C68.6349 40.6095 67.5676 41.4154 66.1954 41.9599C64.8014 42.548 63.1461 42.8311 61.2511 42.8311Z" fill="white"/>
<path d="M18.9521 35.0335C20.6121 35.0335 21.9579 33.6878 21.9579 32.0278C21.9579 30.3677 20.6121 29.022 18.9521 29.022C17.292 29.022 15.9463 30.3677 15.9463 32.0278C15.9463 33.6878 17.292 35.0335 18.9521 35.0335Z" fill="#0CAD5A"/>
<path d="M28.7535 27.9544C28.1872 26.6693 27.4031 25.5585 26.3794 24.6001C25.3774 23.6418 24.2013 22.8794 22.8508 22.3567C21.5004 21.8122 20.0629 21.5508 18.4946 21.5508H10V37.9955C10 38.3875 10.4792 38.5836 10.7406 38.3004L13.5721 35.4689C14.0295 35.0115 14.2255 34.3145 14.0077 33.6828C13.7899 33.0294 13.7028 32.3324 13.7681 31.5919C13.9859 29.0653 16.0334 27.0396 18.56 26.8436C21.7618 26.604 24.4409 29.2613 24.1795 32.4631C23.9834 34.8155 21.8053 36.9936 19.4748 37.2332C18.6253 37.3203 17.7976 37.1896 17.0571 36.9064C16.4254 36.6668 15.7066 36.8411 15.2275 37.3203L10.7406 41.7854C10.4574 42.0685 10.6534 42.526 11.0455 42.526H18.5164C20.0846 42.526 21.5222 42.2646 22.8726 41.7201C24.223 41.1755 25.3774 40.435 26.4011 39.4766C27.4249 38.5182 28.209 37.4292 28.7753 36.1659C29.3416 34.9026 29.6247 33.5522 29.6247 32.0928C29.603 30.6117 29.3198 29.2395 28.7535 27.9544Z" fill="white"/>
</svg>
