<svg width="492" height="249" viewBox="0 0 492 249" fill="none" xmlns="http://www.w3.org/2000/svg">
<path fill-rule="evenodd" clip-rule="evenodd" d="M333.048 16.6439C350.133 22.9895 376.071 33.5597 411.649 63.3177C350.67 100.028 292.701 173.78 260.034 248.375H149.701C184.164 167.184 249.171 53.8169 333.048 16.6439Z" fill="white" fill-opacity="0.02"/>
<path fill-rule="evenodd" clip-rule="evenodd" d="M44.2791 230.802C72.2433 158.575 122.722 62.9599 195.576 5.53412C203.105 3.80817 255.165 -6.02229 306.401 8.00159C267.073 27.6656 181.707 104.861 130.137 230.802H44.2791Z" fill="white" fill-opacity="0.02"/>
<path fill-rule="evenodd" clip-rule="evenodd" d="M428.243 79.5892C442.645 94.5309 462.205 118.768 476.034 154.269C438.474 176.805 409.846 207.22 385.703 248.375H284.156C315.426 179.438 368.628 113.128 428.243 79.5892Z" fill="white" fill-opacity="0.02"/>
<path fill-rule="evenodd" clip-rule="evenodd" d="M434.338 213.23C448.491 196.109 464.632 180.556 481.827 170.491C485.436 180.916 489.52 195.315 491.947 213.23H434.338Z" fill="white" fill-opacity="0.02"/>
<path fill-rule="evenodd" clip-rule="evenodd" d="M0.750488 198.586C22.6228 85.7094 120.703 25.0609 162.359 14.8246C90.7849 60.3683 53.3475 133.456 30.521 198.586H0.750488Z" fill="white" fill-opacity="0.02"/>
</svg>
