<?xml version="1.0" encoding="UTF-8"?>
<svg width="160px" height="160px" viewBox="0 0 160 160" version="1.1" xmlns="http://www.w3.org/2000/svg" xmlns:xlink="http://www.w3.org/1999/xlink">
    <!-- Generator: Sketch 58 (84663) - https://sketch.com -->
    <title>Group 6</title>
    <desc>Created with Sketch.</desc>
    <defs>
        <path d="M90.7739909,0 C62.8080821,0 40.0566657,22.6539259 40.0566657,50.5 L40.0566657,50.5 C40.0566657,80.1874537 65.4153283,101.059852 90.7739909,100.965098 L90.7739909,100.965098 C116.132653,100.870321 141.491316,80.6952593 141.491316,50.5 L141.491316,50.5 C141.491316,46.7324506 141.071802,43.0609136 140.281614,39.5274722 L140.281614,39.5274722 L128.95631,51.4729043 C128.435362,71.9958549 111.507672,88.5308642 90.7739909,88.5308642 L90.7739909,88.5308642 C69.7137781,88.5308642 52.5797751,71.4699691 52.5797751,50.5 L52.5797751,50.5 C52.5797751,29.5300309 69.7137781,12.4691358 90.7739909,12.4691358 L90.7739909,12.4691358 C97.6086201,12.4691358 104.029371,14.2674969 109.585109,17.4119012 L109.585109,17.4119012 L118.36672,8.14858025 C110.420067,2.99789198 100.942502,0 90.7739909,0 Z M91.6897204,54.4514691 L73.4865836,37.2213056 L64.8577508,46.2576883 L92.1693435,72.1102593 L142.91328,18.5868056 L133.807641,10.027679 L91.6897204,54.4514691 Z" id="path-1"></path>
    </defs>
    <g id="Login" stroke="none" stroke-width="1" fill="none" fill-rule="evenodd">
        <g id="Activasyon-Completed_notification_1" transform="translate(-640.000000, -324.000000)">
            <g id="Group-6" transform="translate(640.000000, 324.000000)">
                <g id="Group-5">
                    <path d="M67.1629026,101.869254 L110.401444,101.85224 C110.663944,101.851002 110.918007,101.853477 111.175508,101.857189 C123.836476,102.008154 135.971505,105.944067 146.269655,113.239258 L160,122.964426 L160,107.748221 L153.543735,103.175657 C143.984337,96.4035842 133.106811,92.0401433 121.638033,90.3154937 C110.96332,89.0486883 103.367677,92.0373591 86.2238857,92.1728563 C73.4976052,92.2737057 66.8794644,87.8391134 58.7685074,91.620659 C55.8031878,93.2314663 53.358807,95.6670119 51.7503656,98.6148479 L31.8831305,79.3130026 C28.3078094,75.8398831 23.5740481,73.9562254 18.5740361,74 C13.5652741,74.0465568 8.87526289,76.0211646 5.36712948,79.5607953 C1.85993358,83.0988791 -0.0466334918,87.7778613 0,92.7349528 C0.0471167329,97.6929724 2.04180901,102.33576 5.61744258,105.80857 L52.0028662,150.871577 C58.0613182,156.757968 66.0728999,160 74.5629203,160 L160,160 L160,147.625832 L74.5629203,147.625832 C69.3688453,147.625832 64.4650836,145.642872 60.7591372,142.039514 L14.3721511,96.9765081 C13.1808982,95.8185954 12.5155841,94.2708964 12.4996466,92.618945 C12.484959,90.9657562 13.1199606,89.4069204 14.2893384,88.2261155 C15.4587162,87.0468573 17.0224699,86.3894797 18.6912239,86.3737026 C20.3596654,86.3604004 21.9356067,86.9865333 23.127172,88.1453741 L53.1222439,117.283755 L53.179744,117.225905 C54.3175593,118.724108 55.7028751,120.052165 57.3119414,121.138617 C59.0000705,122.277041 62.339766,124.280418 65.7360241,124.899127 C67.6622787,125.249625 100.906733,128.741925 115.111142,130.227134 L116.424583,117.921952 C98.1907894,116.015093 70.3832228,113.072516 67.956342,112.72078 C67.4179032,112.607247 66.0116498,112.033086 64.3503958,110.912914 C62.979455,109.987327 62.1603906,108.456333 62.1603906,106.817684 C62.1603906,104.08918 64.4028959,101.868017 67.1629026,101.869254" id="Fill-1" fill="#D8D8D8"></path>
                    <mask id="mask-2" fill="white">
                        <use xlink:href="#path-1"></use>
                    </mask>
                    <use id="Clip-4" fill="#28A745" xlink:href="#path-1"></use>
                </g>
            </g>
        </g>
    </g>
</svg>