<?xml version="1.0" encoding="UTF-8"?>
<svg width="236px" height="36px" viewBox="0 0 236 36" version="1.1" xmlns="http://www.w3.org/2000/svg" xmlns:xlink="http://www.w3.org/1999/xlink">
    <title>Logo/dark</title>
    <g id="V5-Preject" stroke="none" stroke-width="1" fill="none" fill-rule="evenodd">
        <g id="Logo" transform="translate(-128.000000, -214.000000)" fill="#FFFFFF">
            <g id="Logo/dark" transform="translate(128.000000, 214.000000)">
                <path d="M120.701021,-2.84217094e-14 C126.021564,-2.84217094e-14 131.537286,1.50388255 134.123789,6.74417618 L128.999194,9.3639411 C127.827352,7.42317648 124.605366,5.57941189 120.8962,5.57941189 C116.112015,5.57941189 113.81828,7.56905843 113.81828,10.0918233 C113.81828,13.0514703 117.332266,13.8763525 121.432558,14.3613527 C128.559657,15.2351169 135.198041,17.0781177 135.198041,25.1802945 C135.198041,32.7493529 128.462068,36 120.84779,36 C113.867459,36 108.497737,33.8652353 105.959644,27.6549412 L111.329366,24.8892944 C112.842386,28.6249417 116.795909,30.2747062 120.945379,30.2747062 C124.996492,30.2747062 128.803246,28.8678237 128.803246,25.1802945 C128.803246,21.9785293 125.43526,20.6686468 120.8962,20.1836466 C113.915869,19.3587644 107.472664,17.5149998 107.472664,9.89782323 C107.472664,2.91152883 114.404584,0.0488819111 120.701021,-2.84217094e-14 Z M199.672818,10.5281707 C203.431931,10.5281707 206.262023,11.256053 209.044473,13.6818178 L205.725666,17.5633471 C204.016699,15.9624645 202.064142,15.4285823 199.770407,15.4285823 C196.939546,15.4285823 195.377348,16.3023465 195.377348,17.806229 C195.377348,19.3589935 196.792778,20.2319939 199.867997,20.425994 C204.407825,20.7169941 210.167136,21.7358764 210.167136,28.0912887 C210.167136,32.3127 206.702328,35.9513472 199.818818,35.9513472 C196.012063,35.9513472 192.20454,35.3204651 188.690553,31.6818178 L191.619003,27.4604065 C193.327202,29.353053 197.232315,30.7599355 199.916407,30.8088174 C202.1625,30.8569355 204.261825,29.692935 204.261825,27.9461705 C204.261825,26.296406 202.894036,25.6174057 199.477639,25.4234056 C194.93858,25.0835236 189.519679,23.4337591 189.519679,18.0002291 C189.519679,12.4689354 195.279758,10.5281707 199.672818,10.5281707 Z M149.350885,10.4797471 C157.405468,10.4797471 162.433243,15.4290406 161.50576,25.2779819 L142.71327,25.2779819 C143.102859,28.2376289 145.690899,30.3716298 149.888011,30.3716298 C152.084925,30.3716298 154.964965,29.5467476 156.331216,28.1398651 L160.137971,31.8762761 C157.600647,34.4960411 153.451177,35.7570416 149.79119,35.7570416 C141.493018,35.7570416 136.562833,30.6626299 136.562833,22.9973353 C136.562833,15.719277 141.541429,10.4797471 149.350885,10.4797471 Z M223.735366,10.4797471 C231.789948,10.4797471 236.817723,15.4290406 235.89024,25.2779819 L217.09775,25.2779819 C217.487339,28.2376289 220.075379,30.3716298 224.272491,30.3716298 C226.469405,30.3716298 229.349445,29.5467476 230.715697,28.1398651 L234.522451,31.8762761 C231.985127,34.4960411 227.835657,35.7570416 224.17567,35.7570416 C215.877498,35.7570416 210.947313,30.6626299 210.947313,22.9973353 C210.947313,15.719277 215.925909,10.4797471 223.735366,10.4797471 Z M87.7108115,7.10542736e-15 C92.8361757,7.10542736e-15 96.8388777,1.16476429 100.499633,4.02741121 L95.7162155,10.0918233 C93.3725332,8.34505877 90.6884406,7.76305851 87.7108115,7.76305851 C85.3678976,7.76305851 83.0733942,8.49017694 83.0733942,10.2858234 C83.0733942,12.6145882 85.3678976,12.9544702 88.7358843,13.2935885 C95.5202682,14.0214707 102.598189,16.7382357 102.598189,24.5494123 C102.598189,32.2635889 95.276679,35.5631179 87.6132221,35.6119998 C81.462785,35.660118 77.0697254,34.5931175 72.3347188,29.643824 L77.6552618,23.5794119 C81.0232485,26.830059 84.7823612,27.4120592 87.662401,27.4120592 C90.8344405,27.4120592 93.0313545,26.2961769 93.0313545,24.4042941 C93.0313545,22.7064115 91.0787982,21.6386473 87.3196855,21.2987652 C79.8514074,20.6197649 73.4089705,18.7278822 73.4089705,10.2858234 C73.4089705,3.10552892 80.4868911,7.10542736e-15 87.7108115,7.10542736e-15 Z M177.124058,10.8193236 C182.78578,10.8193236 187.325608,15.0407349 187.325608,22.5609114 L187.325608,35.1266177 L181.37035,35.1266177 L181.37035,22.6090296 C181.37035,18.9703823 179.369383,16.2047354 175.561091,16.2047354 C171.901105,16.2047354 169.411423,19.2613824 169.411423,22.9000297 L169.411423,35.1266177 L163.505343,35.1266177 L163.505343,11.1592057 L168.825886,11.1592057 L169.216244,14.4098528 C171.656747,12.0322061 174.09725,10.8193236 177.124058,10.8193236 Z M14.6430196,0.679534943 C26.7003045,0.679534943 32.5087945,8.05382951 32.5087945,17.4177706 C32.5087945,26.7817117 26.8954833,34.6410065 14.6430196,34.6410065 L-4.22953727e-13,34.6410065 L-4.22953727e-13,0.679534943 L14.6430196,0.679534943 Z M44.8554665,0.679229431 L59.3040757,19.2612297 C59.0604865,15.1857003 59.0604865,13.6329359 59.0113076,12.3238172 L59.0113076,0.679229431 L68.7249101,0.679229431 L68.7249101,34.6414648 L60.5243274,34.6414648 L46.2716653,16.3504646 L46.4176652,23.7736411 L46.4176652,34.6414648 L36.6548837,34.6414648 L36.6548837,0.679229431 L44.8554665,0.679229431 Z M14.6430196,8.68471167 L9.56760271,8.68471167 L9.56760271,26.5388297 L14.6430196,26.5388297 C20.7934567,26.5388297 22.9411918,21.9783002 22.9411918,17.3207706 C22.9411918,12.663241 20.5498674,8.68471167 14.6430196,8.68471167 Z M149.546064,15.719277 C146.324846,15.719277 143.689164,17.2728052 142.810859,20.3775703 L155.794091,20.3775703 C155.403733,17.2728052 152.96323,15.719277 149.546064,15.719277 Z M223.930544,15.719277 C220.709326,15.719277 218.073644,17.2728052 217.195339,20.3775703 L230.178571,20.3775703 C229.788213,17.2728052 227.34771,15.719277 223.930544,15.719277 Z" id="Combined-Shape"></path>
            </g>
        </g>
    </g>
</svg>