<svg xmlns="http://www.w3.org/2000/svg" viewBox="0 0 722.46 176.63"><defs><style>.cls-1,.cls-3{fill:#08377c;}.cls-1{stroke:#08377c;}.cls-1,.cls-2{stroke-miterlimit:10;stroke-width:6px;}.cls-2,.cls-4{fill:#515151;}.cls-2{stroke:#515151;}</style></defs><title>DNSCyte_logo</title><g id="Layer_2" data-name="Layer 2"><g id="Layer_1-2" data-name="Layer 1"><path class="cls-1" d="M111.28,71.72a80.85,80.85,0,0,1-2.9,22,59.67,59.67,0,0,1-8.74,18.53,57.42,57.42,0,0,1-14.58,14.23,68.91,68.91,0,0,1-20.43,9.29,81.36,81.36,0,0,1-14.48,2.65q-7.8.75-16.88.75H3V5.5H33.57q9.09,0,16.88.75A82.28,82.28,0,0,1,64.93,8.89a70.59,70.59,0,0,1,20.43,9.19A56.15,56.15,0,0,1,99.84,32a57.92,57.92,0,0,1,8.59,18.08A78.86,78.86,0,0,1,111.28,71.72Zm-16.18,0q0-19.28-8.51-31.26t-24.39-17a66.07,66.07,0,0,0-13.56-2.6q-7.5-.69-16.91-.7H19.28V124.46H31.73q9.42,0,16.91-.69a66.75,66.75,0,0,0,13.56-2.6q15.89-5,24.39-17.48T95.1,71.72Z"/><path class="cls-1" d="M199.27,80q12.28,17.68,24.28,36.36h.6q-1.31-19.47-1.3-39.75V5.5h16.38V139.15H223L170.51,64.63q-13.59-19.47-24.28-36.36h-.6q1.31,18.29,1.3,42.65v68.23H130.65V5.5h16.18Z"/><path class="cls-1" d="M276.48,40.86a18.21,18.21,0,0,0,2.39,9.74,19.46,19.46,0,0,0,6.42,6.34,39.09,39.09,0,0,0,9.37,4.1q5.32,1.59,11.1,3,7.77,1.91,15.29,4.2a48.2,48.2,0,0,1,13.4,6.34A30.87,30.87,0,0,1,344,85.11q3.65,6.49,3.64,16.68a38.2,38.2,0,0,1-3.94,17.93,34,34,0,0,1-10.89,12.39,48.92,48.92,0,0,1-16.43,7.19,86.78,86.78,0,0,1-20.78,2.35,90.37,90.37,0,0,1-10.64-.65q-5.44-.66-10.39-1.75a77.15,77.15,0,0,1-8.94-2.5A34.1,34.1,0,0,1,259.3,134V119.07a61.76,61.76,0,0,0,8.09,3.3,88,88,0,0,0,9.29,2.54c3.2.7,6.42,1.25,9.69,1.65a75.63,75.63,0,0,0,9.19.6,71.61,71.61,0,0,0,13.33-1.2A34.9,34.9,0,0,0,320,122a20.61,20.61,0,0,0,7.59-7.64,23.94,23.94,0,0,0,2.8-12.14A18.31,18.31,0,0,0,328,92.3a20.13,20.13,0,0,0-6.54-6.44A39,39,0,0,0,312,81.71q-5.34-1.59-11.24-3-7.78-1.8-15.23-4a48.14,48.14,0,0,1-13.29-6.24,30.53,30.53,0,0,1-9.39-10.29q-3.54-6.3-3.54-16.08A38.34,38.34,0,0,1,263,24.53a34.6,34.6,0,0,1,10.09-12.14A43.18,43.18,0,0,1,287.77,5.3,66,66,0,0,1,305.45,3a91.68,91.68,0,0,1,19.92,2.05,94.79,94.79,0,0,1,16.94,5.34V25.48a115.86,115.86,0,0,0-17.13-5.7,82.19,82.19,0,0,0-18.93-2.3,46.85,46.85,0,0,0-13.19,1.65,26,26,0,0,0-9.29,4.7,18.75,18.75,0,0,0-5.49,7.39A25,25,0,0,0,276.48,40.86Z"/><path class="cls-2" d="M487.44,46.45h13.69l26.07,65.82h.54l26.75-65.82h13.69l-53,127.18H501.52l19-44.93Z"/><path class="cls-2" d="M634.12,130.55a29,29,0,0,1-5.39,1.33,58.83,58.83,0,0,1-8.65.7A36.14,36.14,0,0,1,608.59,131a21.6,21.6,0,0,1-8.08-4.68,19,19,0,0,1-4.81-7.38,27.71,27.71,0,0,1-1.59-9.63V58.2H577.94V46.45h16.17v-23H607.8v23h25.09V58.2H607.8v48.94a16.64,16.64,0,0,0,.84,5.39,11,11,0,0,0,2.65,4.29,12.24,12.24,0,0,0,4.64,2.82,20.08,20.08,0,0,0,6.8,1,41,41,0,0,0,5.78-.44,46.93,46.93,0,0,0,5.61-1.15Z"/><path class="cls-2" d="M692.51,120.66a64.23,64.23,0,0,0,12.42-1.11,74.57,74.57,0,0,0,11.17-3.13v11.39A44.15,44.15,0,0,1,705,131.3a74.46,74.46,0,0,1-14.22,1.28,60.43,60.43,0,0,1-16.92-2.29,35.19,35.19,0,0,1-13.69-7.42,34.52,34.52,0,0,1-9-13.39q-3.27-8.25-3.28-19.92A56.48,56.48,0,0,1,651,69.64a41.84,41.84,0,0,1,8.46-14.09,34.54,34.54,0,0,1,12.16-8.48A37.47,37.47,0,0,1,686,44.25a36.66,36.66,0,0,1,13.18,2.34A27,27,0,0,1,709.76,54a36.15,36.15,0,0,1,7.1,13A61.84,61.84,0,0,1,719.46,86v1.81c0,.5,0,1.64-.09,3.4h-58a34.29,34.29,0,0,0,2.43,13.65,24.08,24.08,0,0,0,6.62,9.1,26.31,26.31,0,0,0,9.85,5.08A44.91,44.91,0,0,0,692.51,120.66ZM685.29,56a20.92,20.92,0,0,0-8.81,1.85,23,23,0,0,0-7.11,5,25.34,25.34,0,0,0-4.92,7.46,29.14,29.14,0,0,0-2.32,9.14h42.93a31.92,31.92,0,0,0-1.3-9.23A22.37,22.37,0,0,0,700,62.8a17.72,17.72,0,0,0-6.17-5A19,19,0,0,0,685.29,56Z"/><path class="cls-3" d="M486.1,26.81a9.5,9.5,0,0,0-.87-1C466.52,5.88,443.72-1.48,417,4.13a48.61,48.61,0,0,0-12,4.16h0c-3.88,1.75-10.47,7.17-10.47,7.17l-2.28,13,2.05,6,1.16-1.21C419,11.64,454.4,14.41,475,38.77l11.55-11A5.19,5.19,0,0,0,486.1,26.81Z"/><path class="cls-4" d="M468.75,43.64c-13.44-18.92-44.6-22.78-63-8.87h0c-2.67,1.84-8,7.51-8,7.51l6,16.59.89-1.62C411.22,47.54,420,43,430.86,42.73s19.65,4.38,26.81,13.44l11.1-12.49C468.87,44.06,468.87,43.81,468.75,43.64Z"/><path class="cls-3" d="M486.1,118.32a9.5,9.5,0,0,1-.87,1.05C466.52,139.25,443.72,146.61,417,141a48.61,48.61,0,0,1-12-4.16h0c-3.88-1.75-10.47-7.17-10.47-7.17l-2.28-13,2.05-6,1.16,1.21C419,133.49,454.4,130.72,475,106.36l11.55,11A5.19,5.19,0,0,1,486.1,118.32Z"/><path class="cls-4" d="M468.75,101.49c-13.44,18.91-44.6,22.78-63,8.87h0c-2.67-1.84-8-7.51-8-7.51l6-16.59.89,1.62c6.66,9.72,15.41,14.29,26.3,14.53S450.51,98,457.67,89l11.1,12.49C468.87,101.07,468.87,101.32,468.75,101.49Z"/><path class="cls-4" d="M376,67.11l-6.31-23.75c-9.23,10.61-9,51.38-.77,57.13l7.2-23.35,1.42-4.9Z"/><path class="cls-4" d="M380.1,115.8l7-1.43,14.3-42.13-14.3-42.12-7-1.44c-3.2,4.62-5.52,8.72-5.52,8.72L384.9,72.24l-10.32,34.85S376.9,111.19,380.1,115.8Z"/></g></g></svg>