<?xml version="1.0" encoding="UTF-8"?>
<svg width="60px" height="60px" viewBox="0 0 60 60" version="1.1" xmlns="http://www.w3.org/2000/svg" xmlns:xlink="http://www.w3.org/1999/xlink">
    <!-- Generator: Sketch 58 (84663) - https://sketch.com -->
    <title>Group 4</title>
    <desc>Created with Sketch.</desc>
    <g id="Login" stroke="none" stroke-width="1" fill="none" fill-rule="evenodd">
        <g id="Sign_up_1" transform="translate(-411.000000, -700.000000)">
            <g id="Group-4" transform="translate(411.000000, 700.000000)">
                <circle id="Oval" fill="#000000" opacity="0.5" cx="30" cy="30" r="30"></circle>
                <g id="Button/play" transform="translate(20.000000, 16.000000)" fill="#FFFFFF">
                    <path d="M21.16065,13.4417383 L4.15625,2.50423833 C3.96636217,2.39030167 3.76223517,2.33333333 3.54386433,2.33333333 C3.32549257,2.33333333 3.12136592,2.39030167 2.93147785,2.50423833 C2.74158978,2.56120667 2.59442867,2.67988 2.48999018,2.86027 C2.38555178,3.04067167 2.33333333,3.24479167 2.33333333,3.472665 L2.33333333,25.3476592 C2.33333333,25.5945141 2.38555178,25.8081349 2.48999018,25.9885286 C2.59442867,26.1689224 2.74158978,26.3255777 2.93147785,26.4584994 C3.04541078,26.5154658 3.14510047,26.5486957 3.23055017,26.5581901 C3.31599975,26.5676845 3.41568955,26.5724317 3.52962283,26.5724317 C3.6625435,26.5724317 3.78122267,26.548696 3.88566033,26.501224 C3.99009917,26.4537519 4.08029533,26.3920392 4.15625,26.316084 L21.16065,15.3785835 C21.3505367,15.2646515 21.4976883,15.1222377 21.6021283,14.9513373 C21.7065683,14.7804417 21.7587883,14.6000517 21.7587883,14.410165 C21.7587883,14.23926 21.7065683,14.0493733 21.6021283,13.8404933 C21.4976883,13.631625 21.3505367,13.4987067 21.16065,13.4417383 Z M4.75439417,23.1829465 L4.75439417,5.66585833 L18.3693067,14.410165 L4.75439417,23.1829465 Z" id="Fill-1"></path>
                </g>
            </g>
        </g>
    </g>
</svg>