<?xml version="1.0" encoding="UTF-8"?>
<svg width="149px" height="59px" viewBox="0 0 149 59" version="1.1" xmlns="http://www.w3.org/2000/svg" xmlns:xlink="http://www.w3.org/1999/xlink">
    <title>Roksit/logo/normal Copy 2</title>
    <g id="preview" stroke="none" stroke-width="1" fill="none" fill-rule="evenodd">
        <g id="UI-Style-Guide_2" transform="translate(-337.000000, -3099.000000)" fill="#FFFFFF">
            <g id="Roksit/logo/tram" transform="translate(337.000000, 3099.000000)">
                <path d="M91.1419377,52.8214678 C91.7267318,54.4279023 92.1031535,55.5174137 92.2705489,56.0910936 C92.4303156,55.5409896 92.8065193,54.4516965 93.4006859,52.8214678 L93.4006859,52.8214678 L94.1465545,52.8214678 L92.182274,58.2249293 C92.0198917,58.5370915 91.7849278,58.7313742 91.4784722,58.8066861 C91.2079804,58.8662807 90.8925883,58.858422 90.5346934,58.7828919 L90.5346934,58.7828919 L90.5346934,58.1668628 C90.7273725,58.2105218 90.9228851,58.2196902 91.1181797,58.1948046 C91.386056,58.1483077 91.5525795,58.0094719 91.6173145,57.7793888 L91.6173145,57.7793888 L91.8997942,57.0166653 L90.3949792,52.8214678 Z M65.7464413,52.7487755 C66.2795783,52.7487755 66.7298894,52.93258 67.0967207,53.303027 C67.5060548,53.7127672 67.7107218,54.2668004 67.7107218,54.9633805 C67.7107218,54.9976528 67.709414,55.0703451 67.7067985,55.1842952 L64.5557107,55.1842952 C64.5727118,55.5636923 64.6969506,55.882185 64.9264654,56.1373721 C65.1642628,56.4004179 65.4639616,56.5327048 65.8281774,56.5327048 C66.386598,56.5167692 66.7760975,56.3569771 66.99515,56.0526736 L67.5258894,56.3742225 C67.1906627,56.9214886 66.626793,57.1952308 65.8347163,57.1952308 C65.2606023,57.1952308 64.7786866,56.9915613 64.3894051,56.5829127 C63.9866099,56.1624761 63.7860842,55.6219771 63.7860842,54.9633805 C63.7860842,54.2668004 63.9907512,53.7127672 64.3998673,53.303027 C64.7669166,52.93258 65.215702,52.7487755 65.7464413,52.7487755 Z M115.737075,52.7487755 C116.270212,52.7487755 116.720523,52.93258 117.087354,53.303027 C117.496688,53.7127672 117.701355,54.2668004 117.701355,54.9633805 C117.701355,54.9976528 117.700047,55.0703451 117.697432,55.1842952 L114.546344,55.1842952 C114.563345,55.5636923 114.687584,55.882185 114.917099,56.1373721 C115.154896,56.4004179 115.454595,56.5327048 115.818811,56.5327048 C116.377449,56.5167692 116.766731,56.3569771 116.986001,56.0526736 L117.516523,56.3742225 C117.181296,56.9214886 116.617426,57.1952308 115.82535,57.1952308 C115.251236,57.1952308 114.769538,56.9915613 114.380038,56.5829127 C113.977461,56.1624761 113.776718,55.6219771 113.776718,54.9633805 C113.776718,54.2668004 113.981385,53.7127672 114.390501,53.303027 C114.75755,52.93258 115.206553,52.7487755 115.737075,52.7487755 Z M127.587057,52.7487755 C128.12063,52.7487755 128.570505,52.93258 128.937772,53.303027 C129.346888,53.7127672 129.551337,54.2668004 129.551337,54.9633805 C129.551337,54.9976528 129.550029,55.0703451 129.547632,55.1842952 L126.396326,55.1842952 C126.413763,55.5636923 126.537566,55.882185 126.767517,56.1373721 C127.004878,56.4004179 127.304577,56.5327048 127.668793,56.5327048 C128.227431,56.5167692 128.616931,56.3569771 128.835983,56.0526736 L129.366505,56.3742225 C129.031278,56.9214886 128.467626,57.1952308 127.675768,57.1952308 C127.101436,57.1952308 126.61952,56.9915613 126.23002,56.5829127 C125.827443,56.1624761 125.6267,55.6219771 125.6267,54.9633805 C125.6267,54.2668004 125.831367,53.7127672 126.240701,53.303027 C126.607532,52.93258 127.056535,52.7487755 127.587057,52.7487755 Z M146.64049,52.7487755 C147.173845,52.7487755 147.623938,52.93258 147.990988,53.303027 C148.400322,53.7127672 148.604771,54.2668004 148.604771,54.9633805 C148.604771,54.9976528 148.603463,55.0703451 148.600847,55.1842952 L145.44976,55.1842952 C145.466979,55.5636923 145.591,55.882185 145.820732,56.1373721 C146.058312,56.4004179 146.358011,56.5327048 146.722226,56.5327048 C147.280865,56.5167692 147.670146,56.3569771 147.889199,56.0526736 L148.419938,56.3742225 C148.084712,56.9214886 147.520842,57.1952308 146.728983,57.1952308 C146.154651,57.1952308 145.672954,56.9915613 145.283454,56.5829127 C144.880659,56.1624761 144.680133,55.6219771 144.680133,54.9633805 C144.680133,54.2668004 144.8848,53.7127672 145.294134,53.303027 C145.660966,52.93258 146.109751,52.7487755 146.64049,52.7487755 Z M109.032976,51.0288274 L109.032976,53.5462079 C109.381716,53.001343 109.85426,52.7291289 110.452131,52.7291289 C111.025156,52.7291289 111.50293,52.9524449 111.887198,53.3992952 C112.255555,53.8304283 112.44017,54.3486611 112.44017,54.952684 C112.44017,55.5571435 112.255555,56.0740665 111.887198,56.5049813 C111.50293,56.9518316 111.025156,57.1753659 110.452131,57.1753659 C109.85426,57.1753659 109.381716,56.9016237 109.032976,56.3541393 L109.032976,56.3541393 L109.032976,57.0828087 L108.287107,57.0828087 L108.287107,51.0288274 L109.032976,51.0288274 Z M132.809881,52.7291289 C133.392059,52.7291289 133.87659,52.9537547 134.260641,53.4034428 L134.260641,53.4034428 L133.830382,53.8409064 C133.579507,53.5763326 133.254743,53.4429543 132.852165,53.4377152 C132.489039,53.4429543 132.177571,53.6042744 131.920157,53.9216757 C131.682359,54.2137547 131.564877,54.5575696 131.564877,54.952684 C131.564877,55.3440873 131.682359,55.6931414 131.920157,55.9985364 C132.177571,56.3028399 132.490347,56.4547734 132.856089,56.4547734 C133.240357,56.4547734 133.552916,56.3358025 133.796162,56.0991705 L133.796162,56.0991705 L134.295079,56.5130582 C133.902964,56.9544511 133.407752,57.1753659 132.809881,57.1753659 C132.236856,57.1753659 131.759082,56.9518316 131.374814,56.5049813 C131.006675,56.0740665 130.821842,55.5571435 130.821842,54.952684 C130.821842,54.3486611 131.006675,53.8304283 131.374814,53.3992952 C131.759082,52.9524449 132.236856,52.7291289 132.809881,52.7291289 Z M102.696362,52.7291289 C103.227101,52.7291289 103.677195,52.9140249 104.045552,53.2831622 C104.45336,53.6953035 104.656501,54.2534844 104.656501,54.9568316 C104.656501,55.6534116 104.45336,56.2074449 104.045552,56.6174033 C103.677195,56.9874137 103.227101,57.1712183 102.696362,57.1712183 C102.163007,57.1712183 101.712696,56.9874137 101.345865,56.6174033 C100.936531,56.2074449 100.731864,55.6534116 100.731864,54.9568316 C100.731864,54.2534844 100.936531,53.6953035 101.345865,53.2831622 C101.712696,52.9140249 102.163007,52.7291289 102.696362,52.7291289 Z M136.435255,52.8175385 L136.435255,55.2279543 C136.435255,55.645553 136.547506,55.9708129 136.772008,56.2037339 C136.977765,56.4176632 137.224717,56.5036715 137.511338,56.462632 C137.806895,56.4218108 138.053629,56.251104 138.248924,55.950948 C138.473643,55.6086611 138.585676,55.1578815 138.585676,54.5999189 L138.585676,54.5999189 L138.585676,52.8175385 L139.331545,52.8175385 L139.331545,57.0786611 L138.663707,57.0786611 L138.663707,56.2615821 C138.536852,56.5196071 138.367713,56.7285156 138.156725,56.8883077 C137.957289,57.0391497 137.738237,57.1290873 137.49935,57.1607401 C137.261552,57.1910832 137.026806,57.1594304 136.795548,57.0668732 C136.555353,56.9716965 136.341531,56.8223825 136.152776,56.6174033 C135.838691,56.2869044 135.68154,55.8241185 135.68154,55.2279543 L135.68154,55.2279543 L135.68154,52.8175385 L136.435255,52.8175385 Z M53.2449686,52.7212703 C53.7083575,52.7212703 54.0806379,52.8295447 54.3618099,53.0465301 C54.7234101,53.3226736 54.9030114,53.7734532 54.9030114,54.398869 L54.9030114,57.0786611 L54.2271089,57.0786611 L54.2271089,56.5089106 C53.8785864,56.9332765 53.3663739,57.1526632 52.6917791,57.1675073 C52.3103443,57.1675073 52.0001833,57.0762599 51.7626038,56.8924553 C51.4485195,56.6807089 51.2911504,56.3700748 51.2911504,55.9590249 C51.2911504,55.4923098 51.4997407,55.1364886 51.9182293,54.8948358 C52.4844965,54.6328815 53.2528153,54.5099813 54.2231856,54.5219875 C54.2336478,54.1423721 54.1623739,53.8647006 54.0106719,53.688973 C53.845674,53.4748254 53.5538219,53.3676424 53.1368591,53.3676424 C52.8648416,53.3676424 52.6431734,53.427237 52.4714188,53.5462079 C52.2905097,53.6704179 52.15995,53.8382869 52.0806115,54.049815 L51.4034012,53.9954595 C51.5117287,53.5302723 51.7375381,53.194316 52.0806115,52.9882453 C52.376387,52.8096798 52.7645787,52.7212703 53.2449686,52.7212703 Z M87.4385322,52.7212703 C87.9019211,52.7212703 88.2742015,52.8295447 88.5553735,53.0465301 C88.9171917,53.3226736 89.096793,53.7734532 89.096793,54.398869 L89.096793,57.0786611 L88.4208904,57.0786611 L88.4208904,56.5089106 C88.07215,56.9332765 87.5601554,57.1526632 86.8855607,57.1675073 C86.5041258,57.1675073 86.1937468,57.0762599 85.9561674,56.8924553 C85.6420831,56.6807089 85.4849319,56.3700748 85.4849319,55.9590249 C85.4849319,55.4923098 85.6935223,55.1364886 86.1120108,54.8948358 C86.6782781,54.6328815 87.4465968,54.5099813 88.4167491,54.5219875 C88.4274293,54.1423721 88.3561555,53.8647006 88.2042354,53.688973 C88.0392376,53.4748254 87.7476034,53.3676424 87.3304227,53.3676424 C87.0584052,53.3676424 86.8365191,53.427237 86.6649823,53.5462079 C86.4840732,53.6704179 86.3537315,53.8382869 86.2741751,54.049815 L85.5971827,53.9954595 C85.7052923,53.5302723 85.9311017,53.194316 86.2741751,52.9882453 C86.5701685,52.8096798 86.9581423,52.7212703 87.4385322,52.7212703 Z M122.711447,52.7014054 C123.085036,52.7118836 123.540578,52.8611975 124.076548,53.150657 L123.701652,53.6782765 C123.369041,53.5025489 123.030981,53.3966757 122.689215,53.3595655 C122.203376,53.3132869 121.936808,53.4735156 121.887766,53.8409064 C121.865316,54.0194719 121.973426,54.1714054 122.212531,54.2969252 C122.336769,54.3645967 122.580888,54.4492952 122.944014,54.5494927 C123.374272,54.6660624 123.690972,54.815158 123.895639,54.9991809 C124.137142,55.215948 124.252226,55.5187235 124.238931,55.9085988 C124.226943,56.2958545 124.048867,56.6080166 123.705576,56.8420291 C123.396722,57.0535572 123.038828,57.155501 122.63516,57.1448046 C122.051456,57.1290873 121.499792,56.9029335 120.979733,56.4667796 L121.435057,56.0092328 C121.861393,56.3277256 122.250892,56.4997422 122.603338,56.5248462 C122.786863,56.5407817 122.966246,56.5076008 123.140616,56.4283597 C123.342668,56.3344927 123.466688,56.2061351 123.51682,56.041104 C123.585478,55.8029439 123.511589,55.6086611 123.292318,55.4551996 C123.155002,55.3600229 122.904344,55.2661559 122.537077,55.1735988 C121.611825,54.922341 121.149744,54.5058337 121.149744,53.9216757 C121.149744,53.5090977 121.309729,53.1932245 121.629044,52.9736195 C121.904985,52.7819563 122.265278,52.6920187 122.711447,52.7014054 Z M70.736699,52.7014054 C71.1102872,52.7118836 71.5658294,52.8611975 72.1015818,53.150657 L71.7269038,53.6782765 C71.3940747,53.5025489 71.0562324,53.3966757 70.7144668,53.3595655 C70.2286278,53.3132869 69.9618413,53.4735156 69.9130177,53.8409064 C69.8905675,54.0194719 69.998677,54.1714054 70.2377822,54.2969252 C70.361803,54.3645967 70.6061393,54.4492952 70.9690473,54.5494927 C71.3995238,54.6660624 71.7162237,54.815158 71.9208907,54.9991809 C72.1623935,55.215948 72.2772598,55.5187235 72.2641821,55.9085988 C72.2521941,56.2958545 72.0739006,56.6080166 71.7308272,56.8420291 C71.4219739,57.0535572 71.064297,57.155501 70.660194,57.1448046 C70.0767077,57.1290873 69.5250439,56.9029335 69.0047668,56.4667796 L69.460309,56.0092328 C69.8866442,56.3277256 70.2759257,56.4997422 70.6285894,56.5248462 C70.8118961,56.5407817 70.9914975,56.5076008 71.1658677,56.4283597 C71.3677012,56.3344927 71.49194,56.2061351 71.5420714,56.041104 C71.6105117,55.8029439 71.5368403,55.6086611 71.3175698,55.4551996 C71.1802532,55.3600229 70.9293781,55.2661559 70.5623288,55.1735988 C69.6370768,54.922341 69.1752137,54.5058337 69.1752137,53.9216757 C69.1752137,53.5090977 69.3347624,53.1932245 69.6542959,52.9736195 C69.9302367,52.7819563 70.2905292,52.6920187 70.736699,52.7014054 Z M58.1892361,52.7014054 C58.5628243,52.7118836 59.0183665,52.8611975 59.554119,53.150657 L59.179223,53.6782765 C58.8466119,53.5025489 58.5087696,53.3966757 58.166786,53.3595655 C57.680947,53.3132869 57.4143785,53.4735156 57.3655548,53.8409064 C57.3428867,54.0194719 57.4512142,54.1714054 57.6901014,54.2969252 C57.8143402,54.3645967 58.0584585,54.4492952 58.4215845,54.5494927 C58.851843,54.6660624 59.1685429,54.815158 59.3732099,54.9991809 C59.6149306,55.215948 59.729797,55.5187235 59.7165013,55.9085988 C59.7047313,56.2958545 59.5264377,56.6080166 59.1831464,56.8420291 C58.8742931,57.0535572 58.5166162,57.155501 58.1127312,57.1448046 C57.5290269,57.1290873 56.9773631,56.9029335 56.457304,56.4667796 L56.9126282,56.0092328 C57.3389634,56.3277256 57.7284628,56.4997422 58.0809086,56.5248462 C58.2644333,56.5407817 58.4440346,56.5076008 58.6184048,56.4283597 C58.8202384,56.3344927 58.9442592,56.2061351 58.9943906,56.041104 C59.0630489,55.8029439 58.9891595,55.6086611 58.7701069,55.4551996 C58.6327904,55.3600229 58.3819152,55.2661559 58.0148659,55.1735988 C57.089614,54.922341 56.6275329,54.5058337 56.6275329,53.9216757 C56.6275329,53.5090977 56.7872996,53.1932245 57.106833,52.9736195 C57.3825559,52.7819563 57.7430663,52.6920187 58.1892361,52.7014054 Z M74.9207123,51.0288274 L74.9207123,52.8295447 L75.7125711,52.8295447 L75.7125711,53.4416445 L74.9207123,53.4416445 L74.9207123,55.769763 C74.9350979,56.1282037 75.0050639,56.3449709 75.1293027,56.420501 C75.2533235,56.487736 75.4710683,56.4997422 75.7827551,56.4587027 L75.7827551,56.4587027 L75.8869413,57.0284532 C75.2624779,57.1526632 74.8320015,57.1356362 74.5959478,56.9782453 C74.3171734,56.7970603 74.1759335,56.3687651 74.173318,55.6918316 L74.173318,55.6918316 L74.173318,53.4416445 L73.651951,53.4416445 L73.651951,52.8295447 L74.2513487,52.8295447 L74.2513487,51.4466445 L74.9207123,51.0288274 Z M98.5031943,51.0288274 L98.5031943,52.8295447 L99.295271,52.8295447 L99.295271,53.4416445 L98.5031943,53.4416445 L98.5031943,55.769763 C98.5175799,56.1282037 98.5877639,56.3449709 98.7117847,56.420501 C98.8358055,56.487736 99.0535503,56.4997422 99.3652371,56.4587027 L99.3652371,56.4587027 L99.4694233,57.0284532 C98.8451779,57.1526632 98.4149194,57.1356362 98.1786478,56.9782453 C97.8998734,56.7970603 97.7586335,56.3687651 97.7560179,55.6918316 L97.7560179,55.6918316 L97.7560179,53.4416445 L97.234651,53.4416445 L97.234651,52.8295447 L97.8340486,52.8295447 L97.8340486,51.4466445 L98.5031943,51.0288274 Z M49.882239,51.0248981 L49.882239,51.7256258 L47.0044765,51.7256258 L47.0044765,53.5619252 L49.5112664,53.5619252 L49.5112664,54.2626528 L47.0044765,54.2626528 L47.0044765,56.3779335 L49.9589619,56.3779335 L49.9589619,57.0786611 L46.2586079,57.0786611 L46.2586079,51.0248981 L49.882239,51.0248981 Z M62.1210666,52.8173202 L62.1210666,57.0786611 L61.375198,57.0786611 L61.375198,52.8173202 L62.1210666,52.8173202 Z M141.936418,53.4455738 C142.331366,52.6893992 142.947765,52.5189106 143.784742,52.9338898 L143.784742,52.9338898 L143.479594,53.6241393 C143.082466,53.3132869 142.71934,53.3187443 142.389344,53.6387651 C142.08703,53.9467796 141.936418,54.2969252 141.936418,54.6883285 L141.936418,54.6883285 L141.936418,57.0786611 L141.190549,57.0786611 L141.190549,52.8175385 L141.936418,52.8175385 Z M79.5848977,52.8175385 C80.0417476,54.6276424 80.3229196,55.7501164 80.4284136,56.1836507 L80.4279331,56.1818551 L81.2324782,52.8175385 L81.9953479,52.8175385 L82.7989331,56.1818551 L82.8220476,56.0888028 C82.9435825,55.5823688 83.1905215,54.5929783 83.5628645,53.1188317 L83.6390052,52.8175385 L84.4007851,52.8175385 L83.1703852,57.0786611 L82.3702439,57.0786611 C82.0297861,55.6405322 81.7776031,54.5706674 81.6126053,53.8673202 C81.4476075,54.5706674 81.1941168,55.6405322 80.853441,57.0786611 L80.853441,57.0786611 L80.0535176,57.0786611 L78.8233357,52.8175385 Z M88.370759,55.0758025 C87.4625081,55.1100748 86.8393526,55.2107089 86.5026001,55.3783597 C86.2848553,55.5030062 86.1830667,55.7064574 86.1963624,55.9906778 C86.2255694,56.2722786 86.4511609,56.4427672 86.877714,56.501052 C87.1244479,56.5407817 87.3818619,56.4969044 87.6471226,56.3700748 C87.937667,56.2301476 88.1329616,56.0568212 88.2306089,55.8466029 C88.3084216,55.6350748 88.3548477,55.3783597 88.370759,55.0758025 Z M54.1769775,55.0758025 C53.2687266,55.1100748 52.645789,55.2107089 52.3090365,55.3783597 C52.0912917,55.5030062 51.9895031,55.7064574 52.0027988,55.9906778 C52.0317879,56.2722786 52.2575973,56.4427672 52.6839325,56.501052 C52.9308843,56.5407817 53.1882983,56.4969044 53.453559,56.3700748 C53.7441034,56.2301476 53.939398,56.0568212 54.0370454,55.8466029 C54.1148581,55.6350748 54.1610662,55.3783597 54.1769775,55.0758025 Z M102.696362,53.45758 C102.366149,53.45758 102.08781,53.5804802 101.860693,53.8291185 C101.60851,54.1080998 101.481874,54.4835676 101.481874,54.9568316 C101.481874,55.4287859 101.60851,55.8029439 101.860693,56.0790873 C102.08781,56.3277256 102.366149,56.4506258 102.696362,56.4506258 C103.023742,56.4506258 103.300991,56.3277256 103.528108,56.0790873 C103.782689,55.8029439 103.910633,55.4287859 103.910633,54.9568316 C103.910633,54.4835676 103.782689,54.1080998 103.528108,53.8291185 C103.300991,53.5804802 103.023742,53.45758 102.696362,53.45758 Z M110.405923,53.4615094 C110.005962,53.4615094 109.682723,53.5857193 109.435771,53.8369771 C109.166587,54.1028607 109.032976,54.4741809 109.032976,54.952684 C109.032976,55.4274761 109.166587,55.7990146 109.435771,56.0675177 C109.682723,56.3159376 110.005962,56.4403659 110.405923,56.4403659 C110.771665,56.4403659 111.080518,56.2869044 111.330085,55.9828191 C111.565267,55.6879023 111.682749,55.3440873 111.682749,54.952684 C111.682749,54.5575696 111.565267,54.2137547 111.330085,53.9216757 C111.080518,53.6147526 110.771665,53.4615094 110.405923,53.4615094 Z M127.591198,53.4337859 C127.279511,53.4337859 127.016866,53.5355114 126.805442,53.7402723 C126.591839,53.9666445 126.462369,54.2493368 126.418776,54.5879127 L128.789775,54.5879127 C128.740734,54.2189938 128.606251,53.9310624 128.38698,53.7245551 C128.175992,53.5302723 127.910513,53.4337859 127.591198,53.4337859 Z M115.740998,53.4337859 C115.429529,53.4337859 115.166884,53.5355114 114.95546,53.7402723 C114.741857,53.9666445 114.612387,54.2493368 114.568794,54.5879127 L116.939793,54.5879127 C116.890752,54.2189938 116.756269,53.9310624 116.536998,53.7245551 C116.325792,53.5302723 116.060531,53.4337859 115.740998,53.4337859 Z M65.7503647,53.4337859 C65.4388959,53.4337859 65.1760328,53.5355114 64.9648268,53.7402723 C64.7510054,53.9666445 64.6217534,54.2493368 64.5779429,54.5879127 L66.9489419,54.5879127 C66.9001183,54.2189938 66.7654173,53.9310624 66.5463647,53.7245551 C66.3351588,53.5302723 66.0698981,53.4337859 65.7503647,53.4337859 Z M146.644414,53.4337859 C146.332945,53.4337859 146.070082,53.5355114 145.858876,53.7402723 C145.645054,53.9666445 145.515802,54.2493368 145.47221,54.5879127 L147.843209,54.5879127 C147.794167,54.2189938 147.659466,53.9310624 147.440414,53.7245551 C147.229208,53.5302723 146.963947,53.4337859 146.644414,53.4337859 Z M61.738106,50.9705426 C61.872807,50.9705426 61.9863656,51.0183493 62.0798716,51.1133077 C62.1749034,51.2100125 62.2211115,51.3222162 62.2211115,51.4545031 C62.2211115,51.5894096 62.1749034,51.7029231 62.0798716,51.7970083 C61.9863656,51.892185 61.872807,51.9384636 61.738106,51.9384636 C61.6047128,51.9384636 61.4898464,51.892185 61.3961224,51.7970083 C61.3026164,51.7029231 61.2548825,51.5894096 61.2548825,51.4545031 C61.2548825,51.3222162 61.3026164,51.2100125 61.3961224,51.1133077 C61.4898464,51.0183493 61.6047128,50.9705426 61.738106,50.9705426 Z M127.452102,16.8001185 C129.334315,16.8001185 130.860222,18.2995316 130.860222,20.1490638 L130.860222,24.0023473 L139.340339,24.0023473 C141.222551,24.0023473 142.748459,25.5019798 142.748459,27.351512 C142.748459,29.2010442 141.222551,30.7006768 139.340339,30.7006768 L130.860222,30.7006768 L130.860222,35.9500488 C130.860222,37.5451085 131.527067,38.9977953 132.600672,40.0529785 C133.674724,41.1081618 135.153079,41.7634284 136.7761,41.7634284 C137.54363,41.7634284 138.269413,41.6232491 138.927997,41.3685573 C139.634804,41.0952188 140.268385,40.7027608 140.798155,40.2205794 C142.172923,38.9708124 144.319016,39.0526385 145.591089,40.4037557 C146.862939,41.7548728 146.779667,43.8634843 145.404676,45.1134706 C144.237753,46.1754544 142.882408,47.0242078 141.404276,47.595674 C139.959408,48.1541972 138.397111,48.4615385 136.776323,48.4615385 C133.271759,48.4615385 130.087781,47.0547006 127.781394,44.7887988 C125.475232,42.5224583 124.043758,39.3939826 124.043758,35.9500488 L124.043758,20.1490638 C124.043758,18.2995316 125.569666,16.8001185 127.452102,16.8001185 Z M5.44555593,2.75438358 C9.42193039,0.573177755 15.795307,-0.389940748 22.3442673,0.538032225 C28.8930075,1.46622349 36.9854752,3.78670166 41.4291924,8.84547505 C45.8731297,13.9040301 46.2709432,20.285236 40.5638161,22.837762 C34.8569091,25.3902879 22.952209,25.2741549 20.519782,25.3671486 C18.0873551,25.4599241 18.7423831,26.6664418 21.7829718,29.2191861 C24.8233405,31.7717121 35.3717783,39.452211 41.6399808,44.1394459 C47.9084033,48.8266809 45.0546197,49.5693212 37.8979378,46.9705166 C30.7408158,44.3717121 17.7133048,37.7582401 12.5208269,33.2563378 C7.32856902,28.7546538 7.21173332,25.4828451 9.08286482,22.8375437 C10.9535563,20.1924605 14.2984458,19.380184 16.8243853,18.9160884 C19.3505449,18.4519927 27.6300377,17.4773046 31.418947,15.9459636 C33.5059275,15.1022526 34.2036413,13.6527723 34.1484138,12.1875748 C33.8870187,5.24425884 22.074511,6.21589085 17.4323271,6.43200312 C7.46872786,6.89609875 6.06449912,7.14408212 5.59781639,9.58789709 C4.04220731,17.7292173 4.76676469,34.6560468 3.85518217,43.8722526 C3.51193603,47.3411819 2.45183355,47.8172838 1.84367181,45.6129387 C1.23551006,43.4083753 0.732742487,39.3358597 0.311605883,33.0707869 C-0.109530722,26.8054958 -0.156176992,13.6257037 0.49885105,10.052211 C1.15387909,6.4787183 1.4694015,4.9355894 5.44555593,2.75438358 Z M117.603692,23.9611052 C119.485682,23.9611052 121.011813,25.4607378 121.011813,27.3102699 L121.011813,45.0676217 C121.011813,46.9173732 119.485682,48.4167864 117.603692,48.4167864 C115.721256,48.4167864 114.195349,46.9173732 114.195349,45.0676217 L114.195349,27.3102699 C114.195349,25.4607378 115.721256,23.9611052 117.603692,23.9611052 Z M109.585113,23.3448617 C111.439962,23.3448617 112.944085,24.8371279 112.944085,26.6775748 C112.944085,28.5180218 111.439962,30.0100696 109.585113,30.0100696 L101.280537,30.0100696 C100.988998,30.0100696 100.721222,30.1310052 100.525395,30.3252879 C100.329569,30.519789 100.207673,30.785236 100.207673,31.0746954 C100.207673,31.3696123 100.326929,31.6368056 100.519015,31.8306518 L100.525395,31.8241029 C100.721222,32.0183857 100.989218,32.1395395 101.280537,32.1395395 L106.2136,32.1395395 C108.359328,32.1395395 110.30813,33.0085728 111.71852,34.4078451 C113.128909,35.8071175 114.005067,37.7407765 114.005067,39.8695915 C114.005067,41.9986247 113.12913,43.9320655 111.71874,45.3313378 C110.30835,46.7308285 108.359548,47.5994252 106.2136,47.5994252 L97.2020688,47.5994252 C95.3472195,47.5994252 93.8430973,46.107159 93.8430973,44.2669304 C93.8430973,42.4262651 95.3472195,40.9342173 97.2020688,40.9342173 L106.2136,40.9342173 C106.505579,40.9342173 106.772915,40.8135 106.968962,40.618999 C107.165008,40.4247162 107.286464,40.1590509 107.286464,39.8695915 C107.286464,39.5803503 107.164788,39.3144667 106.968742,39.120184 C106.772915,38.9259012 106.505139,38.8047474 106.2136,38.8047474 L101.280537,38.8047474 C99.1350286,38.8047474 97.1860066,37.9359324 95.7756171,36.5364418 L95.782218,36.5301112 L95.7756171,36.5235624 C94.3654475,35.1240717 93.4895098,33.1949969 93.4895098,31.0749137 C93.4895098,28.9456622 94.3652275,27.0122214 95.7756171,25.6129491 C97.1860066,24.2136767 99.1348086,23.3448617 101.280537,23.3448617 L109.585113,23.3448617 Z M74.980182,16.035683 C76.8354713,16.035683 78.3393735,17.5279491 78.3393735,19.3681778 L78.3393735,31.6891965 L85.8357811,24.2518784 C87.1473774,22.9506206 89.2741832,22.9506206 90.5855595,24.2518784 C91.8971558,25.5529179 91.8971558,27.6631778 90.5855595,28.9642173 L84.0674034,35.4307765 L90.5855595,41.8975541 C91.8971558,43.1985936 91.8971558,45.3086351 90.5855595,46.6098929 C89.2741832,47.9109324 87.1473774,47.9109324 85.8357811,46.6098929 L78.3393735,39.1723565 L78.3393735,44.2536143 C78.3393735,46.0942796 76.8354713,47.5863274 74.980182,47.5863274 C73.1251126,47.5863274 71.6212105,46.0942796 71.6212105,44.2536143 L71.6212105,19.3681778 C71.6212105,17.5279491 73.1251126,16.035683 74.980182,16.035683 Z M56.5914304,23.3682193 C59.9556826,23.3682193 63.001772,24.7216497 65.2064683,26.9089678 C67.4113847,29.0965042 68.775568,32.1185832 68.775568,35.4560988 C68.775568,38.7938326 67.4116047,41.8156933 65.2064683,44.0036663 C63.001772,46.1912027 59.9556826,47.5444148 56.5914304,47.5444148 C53.2273982,47.5444148 50.1808687,46.1912027 47.9759524,44.0036663 C45.771036,41.8156933 44.4070727,38.7938326 44.4070727,35.4560988 C44.4070727,32.1185832 45.7712561,29.0965042 47.9759524,26.9089678 C50.1813088,24.7216497 53.2273982,23.3682193 56.5914304,23.3682193 Z M56.5914304,30.0334272 C55.0815874,30.0334272 53.7147637,30.6402879 52.7259508,31.6213067 C51.7371379,32.6023254 51.1252357,33.9583753 51.1252357,35.4560988 C51.1252357,36.9540405 51.7371379,38.3103087 52.7259508,39.2913274 C53.7147637,40.2723462 55.0815874,40.8792069 56.5914304,40.8792069 C58.1012733,40.8792069 59.467877,40.2723462 60.4566899,39.2913274 C61.4455028,38.3103087 62.057405,36.9540405 62.057405,35.4560988 C62.057405,33.9583753 61.4457228,32.6023254 60.4566899,31.6213067 C59.467877,30.6402879 58.1012733,30.0334272 56.5914304,30.0334272 Z M117.603692,16.1538462 C119.485682,16.1538462 121.011813,17.6532593 121.011813,19.5027915 C121.011813,21.3523237 119.485682,22.8519563 117.603692,22.8519563 C115.721256,22.8519563 114.195349,21.3523237 114.195349,19.5027915 C114.195349,17.6532593 115.721256,16.1538462 117.603692,16.1538462 Z" id="Combined-Shape"></path>
            </g>
        </g>
    </g>
</svg>