<svg width="181" height="64" viewBox="0 0 181 64" fill="none" xmlns="http://www.w3.org/2000/svg">
<mask id="mask0_7_14" style="mask-type:luminance" maskUnits="userSpaceOnUse" x="37" y="15" width="107" height="34">
<path d="M143.054 15.7637H37.9465V48.2358H143.054V15.7637Z" fill="white"/>
</mask>
<g mask="url(#mask0_7_14)">
<path d="M108.878 23.8476H118.217C118.396 23.8476 118.559 23.9632 118.611 24.1314L118.138 27.7161C117.849 29.2824 117.581 30.465 116.152 30.465H108.794C108.484 30.465 108.221 30.5701 108.011 30.7856C107.801 31.0011 107.69 31.2587 107.69 31.5688C107.69 31.8789 107.796 32.1364 108.011 32.3519C108.221 32.5674 108.484 32.6725 108.794 32.6725H112.231C114.365 32.6725 116.183 33.4242 117.686 34.9327C119.189 36.4412 119.941 38.2598 119.941 40.3885C119.941 42.4383 119.121 44.4094 117.665 45.86C116.157 47.3633 114.338 48.1149 112.205 48.1149H104.033C103.134 48.1149 102.335 47.542 102.057 46.6853L102.666 42.0441C102.714 41.6972 103.103 41.4922 103.392 41.4922H112.221C112.531 41.4922 112.788 41.3871 113.004 41.1716C113.219 40.9561 113.324 40.6986 113.324 40.3885C113.324 40.0784 113.219 39.8208 113.004 39.6053C112.788 39.3898 112.531 39.2847 112.221 39.2847H108.784C106.65 39.2847 104.832 38.5331 103.329 37.0246C101.826 35.5161 101.074 33.6975 101.074 31.5635C101.074 29.3927 101.862 27.5426 103.428 26.0183C104.884 24.6045 106.85 23.8423 108.878 23.8423V23.8476Z" fill="#151530"/>
<path d="M126.179 48.1198H122.064C121.833 48.1198 121.649 47.9306 121.649 47.7046L121.68 25.9392C121.68 24.7881 122.616 23.8525 123.772 23.8525H127.887C128.118 23.8525 128.302 24.0417 128.302 24.2678L128.271 46.0332C128.271 47.1843 127.335 48.1198 126.179 48.1198Z" fill="#151530"/>
<path d="M140.968 23.8476H137.484L137.494 17.3406C137.494 17.1093 137.31 16.9253 137.079 16.9253H132.964C131.813 16.9253 130.872 17.8609 130.872 19.012V24.2681L130.857 28.3836L130.83 47.7049C130.83 47.9362 131.014 48.1202 131.245 48.1202H135.36C136.511 48.1202 137.452 47.1846 137.452 46.0335L137.473 30.4703H142.629C142.86 30.4703 143.049 30.281 143.049 30.055V25.9395C143.054 24.7884 142.124 23.8529 140.968 23.8529V23.8476Z" fill="#151530"/>
<path d="M55.0527 23.8476H49.0143C47.238 23.8476 45.6141 24.226 44.1426 24.9619V23.8476H40.3272C38.9765 23.8476 37.9938 24.8147 37.9885 26.1445L37.978 34.6173C37.978 34.7066 37.9675 34.7907 37.9675 34.8801L37.9465 47.6997C37.9465 47.9309 38.1304 48.1149 38.3617 48.1149H40.385C42.6921 48.1149 44.563 46.2437 44.5682 43.9363L44.584 34.8748C44.584 33.6554 45.0149 32.6147 45.8768 31.7527C46.7387 30.8907 47.7793 30.4597 48.9985 30.4597H50.4017C52.199 30.4597 53.7966 29.3087 54.3695 27.6057L55.4468 24.3942C55.5361 24.1262 55.3364 23.8423 55.0527 23.8423V23.8476Z" fill="#151530"/>
<path d="M92.145 36.2681L101.61 48.2361H96.0918C95.3876 48.2361 94.7622 48.0731 94.2156 47.7472C93.6691 47.4214 93.2119 47.0325 92.8492 46.5805L86.7846 38.6753L86.8371 48.2361H80.084L79.9001 25.5772C79.8843 24.999 80.0682 24.547 80.4466 24.2211C80.825 23.8952 81.3032 23.7323 81.8813 23.7323H86.6742L86.7215 32.9146L91.5091 25.309C91.7614 24.8833 92.1608 24.5102 92.7231 24.2001C93.2854 23.8847 93.9371 23.7271 94.6939 23.7271H100.727L92.145 36.2627V36.2681Z" fill="#151530"/>
<path d="M124.975 22.4179C126.813 22.4179 128.302 20.9283 128.302 19.0908C128.302 17.2533 126.813 15.7637 124.975 15.7637C123.138 15.7637 121.649 17.2533 121.649 19.0908C121.649 20.9283 123.138 22.4179 124.975 22.4179Z" fill="#151530"/>
<path d="M74.6761 27.4008C72.3112 25.0355 69.4523 23.8477 66.1047 23.8477C62.8726 23.8477 59.7982 25.1196 57.5122 27.4008C55.2261 29.6819 53.9543 32.6306 53.949 35.9787C53.949 38.7066 54.7373 41.1034 56.3034 43.1795L60.1398 39.3426C60.6864 38.7959 60.8756 38.0075 60.7022 37.2507C60.6128 36.8459 60.5655 36.4202 60.5655 35.9787C60.5655 34.4492 61.1068 33.1457 62.1842 32.0734C63.2615 31.0012 64.5596 30.4651 66.0889 30.4651C67.6182 30.4651 68.9215 31.0012 69.9936 32.0734C71.0657 33.1457 71.6018 34.4492 71.5965 35.9787C71.5965 37.5082 71.0552 38.8117 69.9778 39.884C68.9005 40.9562 67.6024 41.4923 66.0731 41.4923C65.4845 41.4923 64.9327 41.4135 64.4124 41.2505C63.6346 41.014 62.7938 41.2663 62.221 41.8392L58.5527 45.508C60.7022 47.2425 63.209 48.115 66.0836 48.1097C69.3104 48.1097 72.369 46.8377 74.6551 44.5566C76.9412 42.2755 78.213 39.3268 78.2182 35.9734C78.2182 32.6201 77.041 29.7607 74.6814 27.3903L74.6761 27.4008Z" fill="#151530"/>
<path d="M66.0839 38.8852C67.686 38.8852 68.9848 37.5862 68.9848 35.9838C68.9848 34.3814 67.686 33.0825 66.0839 33.0825C64.4817 33.0825 63.1829 34.3814 63.1829 35.9838C63.1829 37.5862 64.4817 38.8852 66.0839 38.8852Z" fill="#0CAD5A"/>
</g>
</svg>
