<?xml version="1.0" encoding="UTF-8"?><svg id="a" xmlns="http://www.w3.org/2000/svg" width="200" height="61.78" viewBox="0 0 200 61.78"><path d="M134.97,15.38h17.77c.34,0,.65,.22,.75,.54l-.9,6.82c-.55,2.98-1.06,5.23-3.78,5.23h-14c-.59,0-1.09,.2-1.49,.61s-.61,.9-.61,1.49,.2,1.08,.61,1.49c.4,.41,.9,.61,1.49,.61h6.54c4.06,0,7.52,1.43,10.38,4.3,2.86,2.87,4.29,6.33,4.29,10.38,0,3.9-1.56,7.65-4.33,10.41-2.87,2.86-6.33,4.29-10.39,4.29h-15.55c-1.71,0-3.23-1.09-3.76-2.72l1.16-8.83c.09-.66,.83-1.05,1.38-1.05h16.8c.59,0,1.08-.2,1.49-.61,.41-.41,.61-.9,.61-1.49s-.2-1.08-.61-1.49c-.41-.41-.9-.61-1.49-.61h-6.54c-4.06,0-7.52-1.43-10.38-4.3-2.86-2.87-4.29-6.33-4.29-10.39,0-4.13,1.5-7.65,4.48-10.55,2.77-2.69,6.51-4.14,10.37-4.14Z" fill="#151530"/><path d="M167.89,61.56h-7.83c-.44,0-.79-.36-.79-.79l.06-41.41c0-2.19,1.78-3.97,3.98-3.97h7.83c.44,0,.79,.36,.79,.79l-.06,41.41c0,2.19-1.78,3.97-3.98,3.97Z" fill="#151530"/><path d="M196.03,15.38h-6.63l.02-12.38c0-.44-.35-.79-.79-.79h-7.83c-2.19,0-3.98,1.78-3.98,3.97v10s-.03,7.83-.03,7.83l-.05,36.76c0,.44,.35,.79,.79,.79h7.83c2.19,0,3.98-1.78,3.98-3.97l.04-29.61h9.81c.44,0,.8-.36,.8-.79v-7.83c.01-2.19-1.76-3.97-3.96-3.97Z" fill="#151530"/><path d="M32.55,15.38h-11.49c-3.38,0-6.47,.72-9.27,2.12v-2.12s-7.26,0-7.26,0C1.96,15.38,.09,17.22,.08,19.75l-.02,16.12c0,.17-.02,.33-.02,.5L0,60.76c0,.44,.35,.79,.79,.79h3.85c4.39,0,7.95-3.56,7.96-7.95l.03-17.24c0-2.32,.82-4.3,2.46-5.94,1.64-1.64,3.62-2.46,5.94-2.46h2.67c3.42,0,6.46-2.19,7.55-5.43l2.05-6.11c.17-.51-.21-1.05-.75-1.05Z" fill="#151530"/><path d="M103.13,39.01l18.01,22.77h-10.5c-1.34,0-2.53-.31-3.57-.93-1.04-.62-1.91-1.36-2.6-2.22l-11.54-15.04,.1,18.19h-12.85l-.35-43.11c-.03-1.1,.32-1.96,1.04-2.58,.72-.62,1.63-.93,2.73-.93h9.12l.09,17.47,9.11-14.47c.48-.81,1.24-1.52,2.31-2.11,1.07-.6,2.31-.9,3.75-.9h11.48l-16.33,23.85Z" fill="#151530"/><circle cx="165.6" cy="6.33" r="6.33" fill="#151530"/><g><path d="M69.89,22.14c-4.5-4.5-9.94-6.76-16.31-6.76-6.15,0-12,2.42-16.35,6.76s-6.77,9.95-6.78,16.32c0,5.19,1.5,9.75,4.48,13.7l7.3-7.3c1.04-1.04,1.4-2.54,1.07-3.98-.17-.77-.26-1.58-.26-2.42,0-2.91,1.03-5.39,3.08-7.43,2.05-2.04,4.52-3.06,7.43-3.06s5.39,1.02,7.43,3.06c2.04,2.04,3.06,4.52,3.05,7.43,0,2.91-1.03,5.39-3.08,7.43-2.05,2.04-4.52,3.06-7.43,3.06-1.12,0-2.17-.15-3.16-.46-1.48-.45-3.08,.03-4.17,1.12l-6.98,6.98c4.09,3.3,8.86,4.96,14.33,4.95,6.14,0,11.96-2.42,16.31-6.76s6.77-9.95,6.78-16.33c0-6.38-2.24-11.82-6.73-16.33Z" fill="#151530"/><circle cx="53.54" cy="38.47" r="5.52" fill="#0cad5a"/></g></svg>