<svg width="180" height="64" viewBox="0 0 180 64" fill="none" xmlns="http://www.w3.org/2000/svg">
<g clip-path="url(#clip0_5076_121380)">
<path d="M80.9316 20.8478H90.2704C90.4491 20.8478 90.612 20.9634 90.6645 21.1316L90.1915 24.7163C89.9025 26.2826 89.6345 27.4652 88.205 27.4652H80.8475C80.5375 27.4652 80.2747 27.5703 80.0645 27.7858C79.8543 28.0013 79.7439 28.2589 79.7439 28.569C79.7439 28.8791 79.849 29.1366 80.0645 29.3521C80.2747 29.5676 80.5375 29.6727 80.8475 29.6727H84.2845C86.4182 29.6727 88.2366 30.4244 89.7396 31.9329C91.2426 33.4414 91.9941 35.26 91.9941 37.3887C91.9941 39.4385 91.1743 41.4096 89.7186 42.8602C88.2103 44.3635 86.3919 45.1151 84.2583 45.1151H76.0862C75.1875 45.1151 74.3887 44.5422 74.1102 43.6855L74.7198 39.0443C74.7671 38.6974 75.156 38.4924 75.445 38.4924H84.274C84.5841 38.4924 84.8416 38.3873 85.0571 38.1718C85.2726 37.9563 85.3776 37.6988 85.3776 37.3887C85.3776 37.0786 85.2726 36.821 85.0571 36.6055C84.8416 36.39 84.5841 36.2849 84.274 36.2849H80.837C78.7034 36.2849 76.885 35.5333 75.382 34.0248C73.879 32.5163 73.1274 30.6977 73.1274 28.5637C73.1274 26.3929 73.9157 24.5428 75.4818 23.0185C76.9376 21.6047 78.9031 20.8425 80.9316 20.8425V20.8478Z" fill="#151530"/>
<path d="M98.2323 45.1203H94.1173C93.8861 45.1203 93.7021 44.9311 93.7021 44.7051L93.7337 22.9397C93.7337 21.7886 94.6691 20.853 95.8253 20.853H99.9402C100.171 20.853 100.355 21.0422 100.355 21.2683L100.324 43.0337C100.324 44.1848 99.3884 45.1203 98.2323 45.1203Z" fill="#151530"/>
<path d="M113.021 20.8478H109.537L109.547 14.3408C109.547 14.1095 109.363 13.9255 109.132 13.9255H105.017C103.866 13.9255 102.925 14.8611 102.925 16.0122V21.2683L102.91 25.3838L102.883 44.7051C102.883 44.9364 103.067 45.1204 103.298 45.1204H107.413C108.564 45.1204 109.505 44.1848 109.505 43.0337L109.526 27.4705H114.682C114.913 27.4705 115.102 27.2812 115.102 27.0552V22.9397C115.107 21.7886 114.177 20.8531 113.021 20.8531V20.8478Z" fill="#151530"/>
<path d="M27.1062 20.8478H21.0678C19.2915 20.8478 17.6676 21.2262 16.1961 21.9621V20.8478H12.3807C11.03 20.8478 10.0473 21.8149 10.042 23.1447L10.0315 31.6175C10.0315 31.7068 10.021 31.7909 10.021 31.8803L10 44.6999C10 44.9311 10.1839 45.1151 10.4152 45.1151H12.4385C14.7456 45.1151 16.6165 43.2439 16.6217 40.9365L16.6375 31.875C16.6375 30.6556 17.0684 29.6149 17.9303 28.7529C18.7922 27.8909 19.8328 27.4599 21.052 27.4599H22.4552C24.2525 27.4599 25.8501 26.3089 26.423 24.6059L27.5003 21.3944C27.5896 21.1264 27.3899 20.8425 27.1062 20.8425V20.8478Z" fill="#151530"/>
<path d="M64.1985 33.2681L73.6634 45.2362H68.1453C67.4411 45.2362 66.8157 45.0732 66.2691 44.7473C65.7226 44.4215 65.2654 44.0325 64.9027 43.5805L58.8381 35.6753L58.8906 45.2362H52.1375L51.9536 22.5772C51.9378 21.999 52.1217 21.547 52.5001 21.2211C52.8785 20.8952 53.3567 20.7323 53.9348 20.7323H58.7277L58.775 29.9147L63.5626 22.3091C63.8149 21.8834 64.2143 21.5102 64.7766 21.2001C65.3389 20.8847 65.9906 20.7271 66.7474 20.7271H72.7805L64.1985 33.2628V33.2681Z" fill="#151530"/>
<path d="M97.0288 19.4181C98.866 19.4181 100.355 17.9285 100.355 16.091C100.355 14.2535 98.866 12.7639 97.0288 12.7639C95.1915 12.7639 93.7021 14.2535 93.7021 16.091C93.7021 17.9285 95.1915 19.4181 97.0288 19.4181Z" fill="#151530"/>
<path d="M46.7295 24.4008C44.3646 22.0355 41.5057 20.8477 38.1581 20.8477C34.926 20.8477 31.8516 22.1196 29.5656 24.4008C27.2795 26.6819 26.0077 29.6306 26.0024 32.9787C26.0024 35.7066 26.7907 38.1034 28.3568 40.1795L32.1932 36.3426C32.7398 35.7959 32.929 35.0075 32.7556 34.2507C32.6662 33.8459 32.6189 33.4202 32.6189 32.9787C32.6189 31.4492 33.1602 30.1457 34.2376 29.0734C35.3149 28.0012 36.613 27.4651 38.1423 27.4651C39.6716 27.4651 40.9749 28.0012 42.047 29.0734C43.1191 30.1457 43.6552 31.4492 43.6499 32.9787C43.6499 34.5082 43.1086 35.8117 42.0312 36.884C40.9539 37.9562 39.6558 38.4923 38.1265 38.4923C37.5379 38.4923 36.9861 38.4135 36.4658 38.2505C35.688 38.014 34.8472 38.2663 34.2744 38.8392L30.6061 42.508C32.7556 44.2425 35.2624 45.115 38.137 45.1097C41.3638 45.1097 44.4224 43.8377 46.7085 41.5566C48.9946 39.2755 50.2664 36.3268 50.2716 32.9734C50.2716 29.6201 49.0944 26.7607 46.7348 24.3903L46.7295 24.4008Z" fill="#151530"/>
<path d="M38.1373 35.8855C39.7394 35.8855 41.0382 34.5865 41.0382 32.9841C41.0382 31.3817 39.7394 30.0828 38.1373 30.0828C36.5351 30.0828 35.2363 31.3817 35.2363 32.9841C35.2363 34.5865 36.5351 35.8855 38.1373 35.8855Z" fill="#0CAD5A"/>
</g>
<defs>
<clipPath id="clip0_5076_121380">
<rect width="105.107" height="32.4721" fill="white" transform="translate(10 12.7639)"/>
</clipPath>
</defs>
</svg>
