<svg width="173" height="44" viewBox="0 0 173 44" fill="none" xmlns="http://www.w3.org/2000/svg">
<rect x="1.1543" y="0.5" width="170.646" height="43" rx="21.5" fill="white"/>
<rect x="1.1543" y="0.5" width="170.646" height="43" rx="21.5" stroke="#E5E9EF"/>
<path d="M40.064 15.7014C41.0619 16.072 42.577 16.6894 44.6551 18.4276C41.0933 20.5719 37.7073 24.8798 35.7992 29.2369H29.3546C31.3676 24.4945 35.1647 17.8727 40.064 15.7014Z" fill="#11132F"/>
<path d="M23.1969 28.2105C24.8303 23.9917 27.7788 18.4067 32.0343 15.0525C32.474 14.9516 35.5149 14.3774 38.5076 15.1966C36.2104 16.3452 31.2241 20.8542 28.2119 28.2105H23.1969Z" fill="#11132F"/>
<path d="M45.6243 19.378C46.4656 20.2508 47.6081 21.6665 48.4159 23.7401C46.2219 25.0565 44.5497 26.833 43.1396 29.2369H37.2082C39.0347 25.2103 42.1422 21.3371 45.6243 19.378Z" fill="#11132F"/>
<path d="M45.9804 27.1841C46.807 26.1841 47.7498 25.2756 48.7542 24.6877C48.965 25.2966 49.2036 26.1377 49.3453 27.1841H45.9804Z" fill="#11132F"/>
<path d="M20.6543 26.3287C21.9319 19.7356 27.6608 16.1931 30.0939 15.5952C25.9132 18.2554 23.7265 22.5245 22.3932 26.3287H20.6543Z" fill="#11132F"/>
<path d="M60.2901 15.6488H66.425C67.846 15.6488 69.1063 15.9144 70.206 16.4457C71.3057 16.9771 72.1583 17.7308 72.7637 18.7069C73.3692 19.6831 73.6719 20.826 73.6719 22.1358C73.6719 23.4455 73.3692 24.5885 72.7637 25.5646C72.1583 26.5407 71.3057 27.2945 70.206 27.8258C69.1063 28.3571 67.846 28.6228 66.425 28.6228H60.2901V15.6488ZM66.2767 25.6943C67.3888 25.6943 68.2784 25.3793 68.9457 24.7491C69.6253 24.1189 69.965 23.2478 69.965 22.1358C69.965 21.0237 69.6253 20.1526 68.9457 19.5224C68.2784 18.8923 67.3888 18.5772 66.2767 18.5772H63.9599V25.6943H66.2767Z" fill="#11132F"/>
<path d="M87.9465 15.6488V28.6228H84.9254L79.1983 21.7095V28.6228H75.6027V15.6488H78.6237L84.3508 22.5621V15.6488H87.9465Z" fill="#11132F"/>
<path d="M95.0945 28.8822C94.0442 28.8822 93.0248 28.7525 92.0363 28.493C91.0479 28.2335 90.2447 27.8876 89.6269 27.4551L90.8316 24.7491C91.4124 25.1321 92.0858 25.441 92.8519 25.6758C93.6179 25.9106 94.3717 26.028 95.113 26.028C96.5216 26.028 97.226 25.6758 97.226 24.9715C97.226 24.6008 97.0221 24.329 96.6143 24.156C96.2189 23.9707 95.5764 23.7791 94.6868 23.5814C93.7106 23.3714 92.8951 23.149 92.2402 22.9142C91.5853 22.6671 91.0231 22.2779 90.5536 21.7465C90.0841 21.2152 89.8493 20.4986 89.8493 19.5966C89.8493 18.8058 90.0655 18.0953 90.498 17.4651C90.9305 16.8226 91.573 16.316 92.4256 15.9453C93.2905 15.5746 94.347 15.3893 95.5949 15.3893C96.4475 15.3893 97.2877 15.4881 98.1156 15.6858C98.9435 15.8712 99.6725 16.1492 100.303 16.5199L99.1721 19.2444C97.9364 18.5772 96.7379 18.2436 95.5764 18.2436C94.8474 18.2436 94.3161 18.3548 93.9825 18.5772C93.6488 18.7872 93.482 19.0652 93.482 19.4112C93.482 19.7572 93.6797 20.0167 94.0751 20.1897C94.4705 20.3626 95.1069 20.5418 95.9842 20.7272C96.9726 20.9372 97.7882 21.1658 98.4307 21.4129C99.0856 21.6477 99.6478 22.0307 100.117 22.5621C100.599 23.081 100.84 23.7915 100.84 24.6935C100.84 25.4719 100.624 26.1762 100.191 26.8064C99.759 27.4366 99.1103 27.9432 98.2453 28.3262C97.3804 28.6969 96.3301 28.8822 95.0945 28.8822Z" fill="#11132F"/>
<path d="M103.26 28.6228V15.5555H108.116C110.303 15.5555 111.99 16.1177 113.176 17.2422C114.375 18.3667 114.974 19.9792 114.974 22.0799C114.974 24.1682 114.375 25.7807 113.176 26.9175C111.99 28.0544 110.303 28.6228 108.116 28.6228H103.26ZM105.632 26.658H107.968C110.983 26.658 112.49 25.132 112.49 22.0799C112.49 19.0401 110.983 17.5202 107.968 17.5202H105.632V26.658Z" fill="#1EAE5A"/>
<path d="M121.289 28.8081C120.35 28.8081 119.534 28.6166 118.842 28.2335C118.15 27.8505 117.613 27.3068 117.23 26.6024C116.847 25.8857 116.655 25.0455 116.655 24.0817C116.655 23.1178 116.847 22.2837 117.23 21.5794C117.613 20.8751 118.15 20.3314 118.842 19.9483C119.534 19.5653 120.35 19.3737 121.289 19.3737C122.228 19.3737 123.044 19.5653 123.736 19.9483C124.428 20.3314 124.965 20.8751 125.348 21.5794C125.731 22.2837 125.923 23.1178 125.923 24.0817C125.923 25.0455 125.731 25.8857 125.348 26.6024C124.965 27.3068 124.428 27.8505 123.736 28.2335C123.044 28.6166 122.228 28.8081 121.289 28.8081ZM121.289 27.0473C121.981 27.0473 122.537 26.8001 122.957 26.3059C123.377 25.7992 123.587 25.0578 123.587 24.0817C123.587 23.0931 123.377 22.3579 122.957 21.876C122.537 21.3817 121.981 21.1346 121.289 21.1346C120.597 21.1346 120.041 21.3817 119.621 21.876C119.201 22.3579 118.991 23.0931 118.991 24.0817C118.991 25.0578 119.201 25.7992 119.621 26.3059C120.041 26.8001 120.597 27.0473 121.289 27.0473Z" fill="#1EAE5A"/>
<path d="M127.872 28.6228V19.5591H130.134V20.9492C130.405 20.4549 130.782 20.0719 131.264 19.8C131.746 19.5158 132.302 19.3737 132.932 19.3737C134.292 19.3737 135.181 19.9669 135.601 21.1531C135.886 20.5971 136.293 20.1646 136.825 19.8556C137.356 19.5344 137.962 19.3737 138.641 19.3737C140.68 19.3737 141.699 20.6156 141.699 23.0993V28.6228H139.383V23.192C139.383 22.5 139.265 21.9934 139.03 21.6721C138.808 21.3508 138.425 21.1902 137.881 21.1902C137.276 21.1902 136.8 21.4064 136.454 21.8389C136.108 22.259 135.935 22.846 135.935 23.5997V28.6228H133.618V23.192C133.618 22.5 133.501 21.9934 133.266 21.6721C133.044 21.3508 132.667 21.1902 132.135 21.1902C131.53 21.1902 131.054 21.4064 130.708 21.8389C130.362 22.259 130.189 22.846 130.189 23.5997V28.6228H127.872Z" fill="#1EAE5A"/>
<path d="M148.557 28.8081C147.531 28.8081 146.647 28.6166 145.906 28.2335C145.165 27.8505 144.59 27.3068 144.182 26.6024C143.787 25.8981 143.589 25.064 143.589 24.1002C143.589 23.1611 143.781 22.3394 144.164 21.635C144.559 20.9307 145.097 20.3808 145.776 19.9854C146.468 19.5776 147.253 19.3737 148.13 19.3737C149.415 19.3737 150.429 19.7815 151.17 20.5971C151.924 21.4126 152.301 22.5247 152.301 23.9334V24.6192H145.813C145.986 26.2379 146.913 27.0473 148.594 27.0473C149.1 27.0473 149.607 26.9731 150.114 26.8249C150.62 26.6642 151.084 26.4171 151.504 26.0835L152.152 27.6404C151.72 27.9987 151.176 28.283 150.521 28.493C149.866 28.7031 149.211 28.8081 148.557 28.8081ZM148.223 20.9492C147.543 20.9492 146.993 21.1593 146.573 21.5794C146.153 21.9995 145.9 22.568 145.813 23.2846H150.373C150.324 22.5309 150.114 21.9563 149.743 21.5609C149.384 21.1531 148.878 20.9492 148.223 20.9492Z" fill="#1EAE5A"/>
</svg>
