<svg xmlns="http://www.w3.org/2000/svg" xmlns:xlink="http://www.w3.org/1999/xlink" width="16" height="16" viewBox="0 0 16 16">
    <defs>
        <path id="a" d="M3.961 7.212h10.597c.278 0 .534.15.672.395a.8.8 0 0 1 0 .786.773.773 0 0 1-.672.395H3.961l4.386 4.517a.797.797 0 0 1 .218.772.782.782 0 0 1-.561.566.765.765 0 0 1-.756-.227L1.556 8.553a.798.798 0 0 1 0-1.106l5.689-5.86a.767.767 0 0 1 .759-.23.795.795 0 0 1 .347 1.334l-4.39 4.52z"/>
    </defs>
    <use fill="#484848" fill-rule="nonzero" transform="matrix(-1 0 0 1 16 0)" xlink:href="#a"/>
</svg>
