<svg xmlns="http://www.w3.org/2000/svg" width="24" height="24" viewBox="0 0 24 24">
    <path fill="#484848" fill-rule="nonzero" stroke="#484848" stroke-width=".3" d="M18.547 3.601a2.672 2.672 0 0 1 2.669 2.669v12.811a2.672 2.672 0 0 1-2.669 2.669H4.669A2.672 2.672 0 0 1 2 19.081V6.27a2.672 2.672 0 0 1 2.669-2.669H6.27V2h1.068v1.601h8.54V2h1.068v1.601h1.601zm1.602 15.48V8.939H3.068v10.142c0 .883.718 1.601 1.601 1.601h13.879c.883 0 1.601-.718 1.601-1.601zm0-11.209V6.27c0-.883-.718-1.601-1.601-1.601h-1.601v1.068h-1.068V4.669H7.338v1.068H6.269V4.669H4.668c-.883 0-1.601.718-1.601 1.601v1.602h17.082zm-9.609 6.405a1.07 1.07 0 0 1-1.068-1.068v-2.135a1.07 1.07 0 0 1 1.068-1.068h2.135a1.07 1.07 0 0 1 1.068 1.068v2.135a1.07 1.07 0 0 1-1.068 1.068H10.54zm0-3.203v2.135h2.136l-.001-2.135H10.54zm5.338 3.203a1.07 1.07 0 0 1-1.068-1.068v-2.135a1.07 1.07 0 0 1 1.068-1.068h2.135a1.07 1.07 0 0 1 1.068 1.068v2.135a1.07 1.07 0 0 1-1.068 1.068h-2.135zm0-3.203v2.135h2.136l-.001-2.135h-2.135zM5.203 19.615a1.07 1.07 0 0 1-1.068-1.068v-2.135a1.07 1.07 0 0 1 1.068-1.068h2.135a1.07 1.07 0 0 1 1.068 1.068v2.135a1.07 1.07 0 0 1-1.068 1.068H5.203zm0-3.203v2.135h2.136l-.001-2.135H5.203zm5.337 3.203a1.07 1.07 0 0 1-1.068-1.068v-2.135a1.07 1.07 0 0 1 1.068-1.068h2.135a1.07 1.07 0 0 1 1.068 1.068v2.135a1.07 1.07 0 0 1-1.068 1.068H10.54zm0-3.203v2.135h2.136l-.001-2.135H10.54zm5.338 3.203a1.07 1.07 0 0 1-1.068-1.068v-2.135a1.07 1.07 0 0 1 1.068-1.068h2.135a1.07 1.07 0 0 1 1.068 1.068v2.135a1.07 1.07 0 0 1-1.068 1.068h-2.135zm0-3.203v2.135h2.136l-.001-2.135h-2.135z"/>
</svg>
