<svg xmlns="http://www.w3.org/2000/svg" xmlns:xlink="http://www.w3.org/1999/xlink" width="24" height="24" viewBox="0 0 24 24">
    <defs>
        <path id="a" d="M17.473 3.605a2.067 2.067 0 0 1 2.116-.5c.32.116.588.283.806.5.218.218.384.486.5.806.238.72.072 1.544-.5 2.116L14.922 12l5.473 5.473A2.068 2.068 0 0 1 18.934 21c-.55 0-1.076-.217-1.461-.605L12 14.922l-5.473 5.473a2.064 2.064 0 0 1-2.922 0 2.067 2.067 0 0 1 0-2.922L9.077 12l-5.47-5.473A2.068 2.068 0 0 1 6.53 3.605L12 9.077l5.473-5.472z"/>
    </defs>
    <use fill="#FFF" fill-rule="nonzero" xlink:href="#a"/>
</svg>
