<svg width="512" height="512" xmlns="http://www.w3.org/2000/svg">

 <g>
  <title>background</title>
  <rect fill="none" id="canvas_background" height="402" width="582" y="-1" x="-1"/>
 </g>
 <g>
  <title>Layer 1</title>
  <path stroke-miterlimit="10" stroke-linejoin="round" stroke-linecap="round" stroke-width="12" stroke="#e5e5e5" fill="none" id="svg_2" d="m163.9,97.5c1.5,-14.8 10.6,-25 25.2,-28.2c0.5,-0.1 0.9,-0.4 1.3,-0.6c63.3,0 126.7,0 190,0c6.9,1.9 13.4,4.5 18.4,10c6.1,6.7 8.3,14.6 8.3,23.4c0,57.5 0,114.9 0,172.4c0,28.1 0.1,56.2 0,84.3c0,15.8 -9,27.5 -23.9,31.3c-2.5,0.6 -5.3,0.8 -7.9,0.7" class="st0"/>
  <path stroke-miterlimit="10" stroke-linejoin="round" stroke-linecap="round" stroke-width="12" stroke="#e5e5e5" fill="none" id="svg_3" d="m109.1,136.4c4,-7.1 10.6,-12.1 19.5,-14.4c2.9,-0.8 6,-1 9.1,-1c59.3,-0.1 118.5,-0.1 177.8,0c16,0 27.5,8.3 31.6,23c1,3.5 1.2,7.3 1.2,10.9c0,17.3 0,34.7 0.1,52" class="st0"/>
  <path stroke-miterlimit="10" stroke-linejoin="round" stroke-linecap="round" stroke-width="12" stroke="#e5e5e5" fill="none" id="svg_4" d="m347.9,226.9c0,0.3 0,0.7 0,1" class="st0"/>
  <path stroke-miterlimit="10" stroke-linejoin="round" stroke-linecap="round" stroke-width="12" stroke="#e5e5e5" fill="none" id="svg_5" d="m348.3,248.9c0,12.4 0,21 0,33.4c0,42.7 0,85.5 0,128.2c0,15.9 -8.4,27.6 -23,31.6c-3.1,0.9 -6.5,1.2 -9.8,1.2c-59.3,0.1 -118.5,0.1 -177.8,0c-19.7,0 -32.8,-13.1 -32.8,-32.7c0,-28.2 0,-56.5 0,-84.7" class="st0"/>
  <path stroke-miterlimit="10" stroke-linejoin="round" stroke-linecap="round" stroke-width="12" stroke="#e5e5e5" fill="none" id="svg_6" d="m104.9,306.9c0,-44.7 0,-89.3 0,-134" class="st0"/>
 </g>
</svg>