<svg xmlns="http://www.w3.org/2000/svg" width="24" height="24" viewBox="0 0 24 24">
    <path fill="#FFF" fill-rule="nonzero" d="M3 1.25h8c.966 0 1.75.784 1.75 1.75v5A1.75 1.75 0 0 1 11 9.75H3A1.75 1.75 0 0 1 1.25 8V3c0-.966.784-1.75 1.75-1.75zm10 13h8c.966 0 1.75.784 1.75 1.75v5A1.75 1.75 0 0 1 21 22.75h-8A1.75 1.75 0 0 1 11.25 21v-5c0-.966.784-1.75 1.75-1.75zm3-13h5c.966 0 1.75.784 1.75 1.75v8A1.75 1.75 0 0 1 21 12.75h-5A1.75 1.75 0 0 1 14.25 11V3c0-.966.784-1.75 1.75-1.75zm-13 10h5c.966 0 1.75.784 1.75 1.75v8A1.75 1.75 0 0 1 8 22.75H3A1.75 1.75 0 0 1 1.25 21v-8c0-.966.784-1.75 1.75-1.75z"/>
</svg>
