<svg xmlns="http://www.w3.org/2000/svg" width="16" height="16" viewBox="0 0 16 16">
    <path fill="#7B8AA1" fill-rule="evenodd" d="M7.952 15.332l.048.001c-.038 0-.075-.003-.11-.009l-.033-.006c-.024-.005-.046-.012-.069-.019l-.027-.01c-.023-.008-.044-.018-.065-.029-.013-.006-.026-.013-.038-.021-.017-.01-.033-.02-.049-.032l-.018-.013-.022-.02c-.008-.006-.016-.012-.023-.02l-.017-.016-2.667-2.667c-.26-.26-.26-.682 0-.942.24-.24.618-.26.88-.056l.063.056 1.528 1.527V1.333c0-.368.299-.666.667-.666.342 0 .624.257.662.589l.005.077-.001 11.724 1.53-1.528c.24-.24.618-.26.88-.056l.062.056c.24.24.259.618.056.88l-.056.062-2.667 2.667-.012.012c-.017.017-.036.033-.056.048l.068-.06c-.029.03-.06.055-.092.077-.023.016-.047.03-.071.043l-.018.01c-.061.029-.127.049-.195.059l-.04.004c-.018.002-.036.002-.055.002h-.013l-.035-.001z"/>
</svg>
