<svg width="24" height="24" xmlns="http://www.w3.org/2000/svg">

 <g>
  <title>background</title>
  <rect fill="none" id="canvas_background" height="402" width="582" y="-1" x="-1"/>
 </g>
 <g>
  <title fill="#ffffff">Layer 1</title>
  <path fill="#ffffff" id="svg_1" d="m23.7,5.9l-5.6,-5.6c-0.3,-0.3 -0.9,-0.4 -1.3,0l-16.8,16.9l0,6.8l6.8,0l16.9,-16.8c0.3,-0.3 0.3,-0.9 0,-1.3zm-17.9,16.4l-4.1,0l0,-4.1l0.3,-0.2l4,4l-0.2,0.3zm0.9,-1l-4,-4l11.9,-12.1l4.2,4.2l-12.1,11.9zm12.8,-12.6l-4.2,-4.2l2.1,-2.1l4.2,4.2l-2.1,2.1z"/>
 </g>
</svg>