<svg xmlns="http://www.w3.org/2000/svg" width="25" height="24" viewBox="0 0 25 24">
    <path fill="#97A5BB" fill-rule="evenodd" d="M6.76 21.97c-.178 0-.357-.034-.528-.105-.516-.214-.85-.713-.85-1.271v-1.461c0-.522-.423-.945-.944-.945C2.542 18.188 1 16.645 1 14.75V4.437C1 2.542 2.542 1 4.438 1h15.125C21.457 1 23 2.542 23 4.438v6.015c0 .475-.385.86-.86.86-.474 0-.859-.385-.859-.86V4.438c0-.948-.77-1.72-1.718-1.72H4.438c-.948 0-1.72.772-1.72 1.72V14.75c0 .948.772 1.719 1.72 1.719 1.468 0 2.664 1.195 2.664 2.664v.632l1.87-1.871c.92-.92 2.142-1.425 3.441-1.425h7.15c.947 0 1.718-.771 1.718-1.719 0-.475.385-.86.86-.86.474 0 .859.385.859.86 0 1.895-1.542 3.438-3.438 3.438h-7.149c-.84 0-1.63.327-2.225.921l-2.457 2.457c-.264.264-.614.404-.971.404zm6.1-8.036c0-.475-.385-.86-.86-.86s-.86.385-.86.86c0 .474.385.859.86.859s.86-.385.86-.86zm0-3.008v-.601c0-.049.027-.095.064-.107 1.224-.408 2.045-1.595 1.996-2.886-.058-1.516-1.29-2.749-2.807-2.806-.802-.03-1.562.258-2.14.814-.577.556-.895 1.304-.895 2.105 0 .475.385.86.86.86.474 0 .859-.385.859-.86 0-.33.131-.638.369-.867.237-.228.55-.348.882-.335.623.024 1.13.53 1.154 1.155.02.532-.317 1.021-.821 1.19-.742.246-1.24.945-1.24 1.737v.6c0 .475.384.86.859.86s.86-.385.86-.86z"/>
</svg>
