<svg xmlns="http://www.w3.org/2000/svg" width="16" height="16" viewBox="0 0 16 16">
    <g fill="#FFF" fill-rule="nonzero">
        <path d="M10.663 5.646h-.925V2.323H3.722c.779.45 1.401.84 2.055 1.172.415.211.553.495.55.948-.02 2.055-.009 4.11-.009 6.165v.802H9.71V8.846h.951c0 1.034.015 2.045-.007 3.055-.009.407-.318.503-.677.501-.974-.005-1.95-.002-2.926-.002h-.735c0 .576.016 1.106-.004 1.636-.023.613-.326.787-.86.488-1.25-.7-2.5-1.4-3.728-2.137-.19-.115-.369-.431-.37-.656-.023-3.251-.011-6.504-.02-9.756 0-.466.211-.642.653-.642 2.667.005 5.335.006 8.002.003.357 0 .664.091.67.505.016 1.251.005 2.503.005 3.805z"/>
        <path d="M12.006 7.271c-.85 0-1.615.005-2.38-.001-.638-.006-1.004-.24-.955-.63.06-.486.453-.603.942-.598.766.007 1.533.002 2.392.002 0-.333-.01-.636.003-.939.02-.445.214-.554.606-.314.85.522 1.683 1.068 2.52 1.609.263.17.269.357 0 .53-.856.548-1.708 1.102-2.574 1.636-.358.221-.538.057-.551-.283-.012-.309-.003-.619-.003-1.012z"/>
    </g>
</svg>
