<svg xmlns="http://www.w3.org/2000/svg" width="24" height="24" viewBox="0 0 24 24">
    <g fill="#FFF" fill-rule="nonzero">
        <path d="M9.167 15.75c0-3.113 3.02-5.75 6.583-5.75 3.562 0 6.583 2.637 6.583 5.75a4.912 4.912 0 0 1-1.484 3.52l.988 1.978a.75.75 0 0 1-.934 1.038l-3.055-1.146c-4.082 1.588-8.681-1.27-8.681-5.39z"/>
        <path d="M1.667 8.25c0-3.673 3.532-6.583 7.833-6.583 4.3 0 7.833 2.91 7.833 6.593a5.602 5.602 0 0 1-.096.962.75.75 0 0 1-1.474-.277 4.08 4.08 0 0 0 .07-.695c0-2.773-2.804-5.083-6.333-5.083-3.53 0-6.333 2.31-6.333 5.067.029 1.4.693 2.71 1.804 3.563a.75.75 0 0 1 .194.967l-.614 1.074 2.12-.848a.75.75 0 0 1 .505-.018c.387.123.783.214 1.184.274a.75.75 0 1 1-.22 1.483 9.077 9.077 0 0 1-1.156-.249l-3.872 1.55c-.66.264-1.282-.452-.93-1.069l1.374-2.404a6.124 6.124 0 0 1-1.89-4.307z"/>
    </g>
</svg>
