<svg xmlns="http://www.w3.org/2000/svg" width="24" height="24" viewBox="0 0 24 24">
    <g fill="none" fill-rule="evenodd" stroke="#9B9B9B" stroke-linecap="round" stroke-linejoin="round" stroke-width="1.5">
        <path d="M9.917 15.75c0 3.573 4.166 6.25 7.916 4.583l3.334 1.25-1.25-2.5a4.162 4.162 0 0 0 1.666-3.333c0-2.628-2.611-5-5.833-5s-5.833 2.372-5.833 5zM16.5 9.083c.052-.275.08-.553.083-.833 0-3.222-3.166-5.833-7.083-5.833-3.917 0-7.083 2.611-7.083 5.833a5.362 5.362 0 0 0 2.097 4.142l-1.68 2.941 4.115-1.646c.425.135.86.235 1.301.3"/>
    </g>
</svg>
