<svg xmlns="http://www.w3.org/2000/svg" width="24" height="24" viewBox="0 0 24 24">
    <path fill="#9B9B9B" fill-rule="nonzero" stroke="#9B9B9B" stroke-width=".5" d="M19.5 15.15v-1.9c0-.85-.65-1.5-1.5-1.5h-5.5v-3.2c1.3-.25 2.25-1.35 2.25-2.7 0-1.5-1.25-2.75-2.75-2.75S9.25 4.35 9.25 5.85c0 1.35.95 2.45 2.25 2.7v3.2H6c-.85 0-1.5.65-1.5 1.5v1.9c-1.3.25-2.25 1.35-2.25 2.7 0 1.5 1.25 2.75 2.75 2.75s2.75-1.25 2.75-2.75c0-1.35-.95-2.45-2.25-2.7v-1.9c0-.3.25-.5.5-.5h5.5v2.4c-1.3.25-2.25 1.35-2.25 2.7 0 1.5 1.25 2.75 2.75 2.75s2.75-1.25 2.75-2.75c0-1.35-.95-2.45-2.25-2.7v-2.4H18c.25 0 .5.2.5.5v1.9c-1.3.25-2.25 1.35-2.25 2.7 0 1.5 1.25 2.75 2.75 2.75s2.75-1.25 2.75-2.75c0-1.35-.95-2.5-2.25-2.7zm-12.75 2.7c0 .95-.8 1.75-1.75 1.75s-1.75-.8-1.75-1.75.8-1.75 1.75-1.75 1.75.75 1.75 1.75zm7 0c0 .95-.8 1.75-1.75 1.75s-1.75-.8-1.75-1.75.8-1.75 1.75-1.75 1.75.75 1.75 1.75zM12 7.6c-.95 0-1.75-.8-1.75-1.75S11.05 4.1 12 4.1s1.75.8 1.75 1.75S12.95 7.6 12 7.6zm7 12c-.95 0-1.75-.8-1.75-1.75s.8-1.75 1.75-1.75 1.75.8 1.75 1.75-.8 1.75-1.75 1.75z"/>
</svg>
