<svg xmlns="http://www.w3.org/2000/svg" width="24" height="24" viewBox="0 0 24 24">
    <path fill="#3C4A8C" fill-rule="nonzero" stroke="#3C4A8C" stroke-width=".5" d="M19.5 15.15c1.3.2 2.25 1.35 2.25 2.7 0 1.5-1.25 2.75-2.75 2.75s-2.75-1.25-2.75-2.75c0-1.35.95-2.45 2.25-2.7v-1.9c0-.3-.25-.5-.5-.5h-5.5v2.4c1.3.25 2.25 1.35 2.25 2.7 0 1.5-1.25 2.75-2.75 2.75s-2.75-1.25-2.75-2.75c0-1.35.95-2.45 2.25-2.7v-2.4H6c-.25 0-.5.2-.5.5v1.9c1.3.25 2.25 1.35 2.25 2.7 0 1.5-1.25 2.75-2.75 2.75s-2.75-1.25-2.75-2.75c0-1.35.95-2.45 2.25-2.7v-1.9c0-.85.65-1.5 1.5-1.5h5.5v-3.2c-1.3-.25-2.25-1.35-2.25-2.7 0-1.5 1.25-2.75 2.75-2.75s2.75 1.25 2.75 2.75c0 1.35-.95 2.45-2.25 2.7v3.2H18c.85 0 1.5.65 1.5 1.5v1.9z"/>
</svg>
