<svg xmlns="http://www.w3.org/2000/svg" width="24" height="24" viewBox="0 0 24 24">
    <g fill="#9B9B9B" fill-rule="nonzero">
        <path d="M17.616 1.244A.854.854 0 0 0 17.013 1H9.397c-1.552.008-2.845 1.18-2.986 2.71H5.014C3.349 3.71 2 5.043 2 6.69v13.33C2 21.666 3.35 23 5.014 23h9.589c1.552-.008 2.845-1.18 2.986-2.71h1.397c1.664 0 3.014-1.334 3.014-2.98V6.012a.728.728 0 0 0-.247-.569l-4.137-4.2zm.192 2.52l1.616 1.625h-1.342a.248.248 0 0 1-.204-.07.242.242 0 0 1-.07-.2V3.763zm-3.205 17.61h-9.59c-.756 0-1.37-.606-1.37-1.354V6.69c0-.749.614-1.355 1.37-1.355h1.37V17.31c0 1.646 1.35 2.98 3.014 2.98h6.548a1.366 1.366 0 0 1-1.342 1.084zm4.383-2.709H9.397c-.756 0-1.37-.606-1.37-1.355V3.98c0-.748.614-1.354 1.37-1.354h6.767v2.492c0 1.048.859 1.897 1.918 1.897h2.274V17.31c0 .749-.613 1.355-1.37 1.355z"/>
        <path d="M19.122 10h-1.836v1.544l-1.574 1.689-1.865-1.282a.875.875 0 0 0-1.108.117L10 14.748 11.253 16l2.215-2.184 1.894 1.281a.933.933 0 0 0 1.137-.116l2.127-2.301 1.312.058.058-1.864a.786.786 0 0 0-.233-.641c-.124-.093-.338-.17-.641-.233z"/>
    </g>
</svg>
