<svg xmlns="http://www.w3.org/2000/svg" width="24" height="24" viewBox="0 0 24 24">
    <path fill="#FFF" fill-rule="nonzero" d="M17.616 1.244l4.137 4.2a.728.728 0 0 1 .247.568V17.31c0 1.646-1.35 2.98-3.014 2.98h-1.397c-.141 1.53-1.434 2.702-2.986 2.71h-9.59C3.35 23 2 21.666 2 20.02V6.69c0-1.646 1.35-2.98 3.014-2.98H6.41C6.552 2.18 7.845 1.007 9.397 1h7.616a.854.854 0 0 1 .603.244zm.192 2.52v1.354a.242.242 0 0 0 .07.201.248.248 0 0 0 .204.07h1.342l-1.616-1.625zm-3.205 17.61c.65 0 1.212-.453 1.342-1.083H9.397c-1.664 0-3.014-1.335-3.014-2.98V5.334h-1.37c-.756 0-1.37.606-1.37 1.355v13.33c0 .748.614 1.354 1.37 1.354h9.59zM19.122 10h-1.836v1.544l-1.574 1.689-1.865-1.282a.875.875 0 0 0-1.108.117L10 14.748 11.253 16l2.215-2.184 1.894 1.281a.933.933 0 0 0 1.137-.116l2.127-2.301 1.312.058.058-1.864a.786.786 0 0 0-.233-.641c-.124-.093-.338-.17-.641-.233z"/>
</svg>
