<svg xmlns="http://www.w3.org/2000/svg" width="24" height="24" viewBox="0 0 24 24">
    <g fill="none" fill-rule="evenodd">
        <path fill="#E0E0E0" d="M0 0h24v24H0z"/>
        <path fill="#484848" fill-rule="nonzero" stroke="#484848" stroke-width=".6" d="M4.575 3C3.715 3 3 3.714 3 4.575v14.85C3 20.285 3.714 21 4.575 21h14.85c.86 0 1.575-.714 1.575-1.575V7.275c0-.18-.07-.351-.197-.478l-3.6-3.6A.675.675 0 0 0 16.725 3H4.575zm0 1.35h1.8v5.625c0 .373.302.675.675.675h9a.675.675 0 0 0 .675-.675V4.631l2.925 2.925v11.869c0 .136-.089.225-.225.225H4.575c-.136 0-.225-.089-.225-.225V4.575c0-.136.089-.225.225-.225zm3.15 0h7.65V9.3h-7.65V4.35zM12 12.225a2.935 2.935 0 0 0-2.925 2.925A2.935 2.935 0 0 0 12 18.075a2.935 2.935 0 0 0 2.925-2.925A2.935 2.935 0 0 0 12 12.225zm0 1.35c.878 0 1.575.697 1.575 1.575s-.697 1.575-1.575 1.575a1.565 1.565 0 0 1-1.575-1.575c0-.878.697-1.575 1.575-1.575z"/>
    </g>
</svg>
