<svg xmlns="http://www.w3.org/2000/svg" width="24" height="24" viewBox="0 0 24 24">
    <g fill="none" fill-rule="evenodd">
        <path fill="#E0E0E0" d="M0 0h24v24H0z"/>
        <path fill="#FFF" fill-rule="nonzero" d="M4.875 3h12.15c.258 0 .507.102.69.285l3.6 3.6a.975.975 0 0 1 .285.69v12.15a1.887 1.887 0 0 1-1.875 1.875H4.875A1.887 1.887 0 0 1 3 19.725V4.875C3 3.848 3.848 3 4.875 3zm.075 1.95v14.7h14.7V7.98l-2.325-2.324v4.619a.975.975 0 0 1-.975.975h-9a.975.975 0 0 1-.975-.975V4.95H4.95zM8.325 9.3h7.05V4.95h-7.05V9.3zm3.975 2.925a3.235 3.235 0 0 1 3.225 3.225 3.235 3.235 0 0 1-3.225 3.225 3.235 3.235 0 0 1-3.225-3.225 3.235 3.235 0 0 1 3.225-3.225zm0 .6a2.635 2.635 0 0 1 2.625 2.625 2.635 2.635 0 0 1-2.625 2.625 2.635 2.635 0 0 1-2.625-2.625 2.635 2.635 0 0 1 2.625-2.625zm0 .75a1.865 1.865 0 0 0-1.875 1.875c0 1.044.831 1.875 1.875 1.875a1.865 1.865 0 0 0 1.875-1.875 1.865 1.865 0 0 0-1.875-1.875zm0 .6c-.712 0-1.275.563-1.275 1.275s.563 1.275 1.275 1.275 1.275-.563 1.275-1.275-.563-1.275-1.275-1.275z"/>
    </g>
</svg>
