<svg xmlns="http://www.w3.org/2000/svg" xmlns:xlink="http://www.w3.org/1999/xlink" width="22" height="20" viewBox="0 0 22 20">
    <defs>
        <path id="a" d="M8.867 17.466a8.369 8.369 0 0 1-6.13-2.004A8.427 8.427 0 0 1 .19 6.502 8.402 8.402 0 0 1 1.818 3.57l.158.135-.158-.135C4.841.038 10.166-.376 13.691 2.647a8.436 8.436 0 0 1 2.555 8.964c-.23.726-.588 1.423-1.078 2.138l4.7 3.943a.953.953 0 0 1-1.222 1.46L13.932 15.2c-1.41 1.322-3.17 2.118-5.065 2.266zM3.264 4.81a6.491 6.491 0 0 0-1.262 2.269 6.523 6.523 0 0 0 1.974 6.939 6.472 6.472 0 0 0 4.743 1.55 6.47 6.47 0 0 0 4.444-2.257l.041-.037-.034.03a6.534 6.534 0 0 0-.716-9.211c-2.73-2.339-6.852-2.018-9.19.717z"/>
    </defs>
    <use fill="#484848" fill-rule="nonzero" transform="translate(.97)" xlink:href="#a"/>
</svg>
