<svg xmlns="http://www.w3.org/2000/svg" width="24" height="24" viewBox="0 0 24 24">
    <path fill="#9B9B9B" fill-rule="nonzero" d="M4.233 11.48l-1.027-.581a2.548 2.548 0 0 1-.895-3.38l.03-.052.834-1.322c.727-1.156 2.223-1.536 3.39-.873l1.036.493c.246.14.548.136.803-.02a.62.62 0 0 0 .33-.519V4.214C8.724 2.86 9.87 1.75 11.274 1.75h1.65c1.402 0 2.55 1.107 2.55 2.462v1.08a.631.631 0 0 0 .344.537.777.777 0 0 0 .792.01l.984-.54a2.528 2.528 0 0 1 3.43.84l.812 1.303c.364.516.493 1.163.354 1.785a2.508 2.508 0 0 1-1.237 1.616l-.992.549a.65.65 0 0 0 .013 1.146l1.022.564c1.138.716 1.519 2.158.905 3.431l-.042.076-.832 1.318c-.682 1.156-2.224 1.541-3.428.86l-.998-.546a.787.787 0 0 0-.811.006.62.62 0 0 0-.33.519v1.01c.015 1.362-1.13 2.474-2.535 2.474h-1.652c-1.4 0-2.549-1.107-2.549-2.462v-1.08a.631.631 0 0 0-.344-.537.779.779 0 0 0-.796-.008l-.06.031-.94.443a2.53 2.53 0 0 1-3.41-.854l-.818-1.303a2.244 2.244 0 0 1-.353-1.785A2.51 2.51 0 0 1 3.24 13.08l1.022-.561A.581.581 0 0 0 4.574 12a.581.581 0 0 0-.302-.511l-.039-.01zm3.741 4.772c.462 0 .916.124 1.31.355a2.418 2.418 0 0 1 1.24 2.091l-.001 1.075c.023.392.355.69.754.669h1.665a.705.705 0 0 0 .74-.654v-1.015c.01-.87.484-1.668 1.235-2.084a2.575 2.575 0 0 1 2.584-.022l.986.543a.76.76 0 0 0 1.022-.224l.798-1.278c.196-.429.095-.842-.232-1.055l-.967-.535a2.453 2.453 0 0 1-1.276-2.15 2.454 2.454 0 0 1 1.263-2.157l1.008-.555c.173-.09.3-.25.348-.432a.438.438 0 0 0-.08-.357l-.027-.04-.828-1.33a.72.72 0 0 0-.99-.254l-.045.028-.988.545a2.567 2.567 0 0 1-2.569-.025 2.418 2.418 0 0 1-1.24-2.091l.001-1.073a.711.711 0 0 0-.754-.669H11.26a.705.705 0 0 0-.74.654v1.015A2.414 2.414 0 0 1 9.285 7.31a2.569 2.569 0 0 1-2.545.045l-1.031-.49a.758.758 0 0 0-1.017.226l-.81 1.303a.727.727 0 0 0 .243.954l.96.525a2.39 2.39 0 0 1 1.28 2.122c0 .893-.493 1.712-1.276 2.12l-.995.542c-.173.09-.3.25-.348.432a.451.451 0 0 0 .093.378l.02.032.828 1.328a.723.723 0 0 0 1.001.248l.084-.046.953-.447a2.528 2.528 0 0 1 1.24-.331h.008zM8.087 12c0-2.236 1.795-4.05 4.012-4.05 2.217 0 4.012 1.814 4.012 4.05 0 2.236-1.795 4.05-4.012 4.05-2.217 0-4.012-1.814-4.012-4.05zm4.012-2.212c-1.33 0-2.405.997-2.405 2.212 0 1.216 1.073 2.212 2.405 2.212 1.332 0 2.405-.996 2.405-2.212 0-1.215-1.075-2.212-2.405-2.212z"/>
</svg>
