<svg xmlns="http://www.w3.org/2000/svg" width="24" height="24" viewBox="0 0 24 24">
    <path fill="#FFF" fill-rule="nonzero" d="M4.233 11.48l-1.027-.581a2.548 2.548 0 0 1-.895-3.38l.03-.052.834-1.322c.727-1.156 2.223-1.536 3.39-.873l1.036.493c.246.14.548.136.803-.02a.62.62 0 0 0 .33-.519V4.214C8.724 2.86 9.87 1.75 11.274 1.75h1.65c1.402 0 2.55 1.107 2.55 2.462v1.08a.631.631 0 0 0 .344.537.777.777 0 0 0 .792.01l.984-.54a2.528 2.528 0 0 1 3.43.84l.812 1.303c.364.516.493 1.163.354 1.785a2.508 2.508 0 0 1-1.237 1.616l-.992.549a.65.65 0 0 0 .013 1.146l1.022.564c1.138.716 1.519 2.158.905 3.431l-.042.076-.832 1.318c-.682 1.156-2.224 1.541-3.428.86l-.998-.546a.787.787 0 0 0-.811.006.62.62 0 0 0-.33.519v1.01c.015 1.362-1.13 2.474-2.535 2.474h-1.652c-1.4 0-2.549-1.107-2.549-2.462v-1.08a.631.631 0 0 0-.344-.537.779.779 0 0 0-.796-.008l-.06.031-.94.443a2.53 2.53 0 0 1-3.41-.854l-.818-1.303a2.244 2.244 0 0 1-.353-1.785A2.51 2.51 0 0 1 3.24 13.08l1.022-.561A.581.581 0 0 0 4.574 12a.581.581 0 0 0-.302-.511l-.039-.01zm3.854.52c0 2.236 1.795 4.05 4.012 4.05 2.217 0 4.012-1.814 4.012-4.05 0-2.236-1.795-4.05-4.012-4.05-2.217 0-4.012 1.814-4.012 4.05zm4.012-2.212c-1.33 0-2.405.997-2.405 2.212 0 1.216 1.073 2.212 2.405 2.212 1.332 0 2.405-.996 2.405-2.212 0-1.215-1.075-2.212-2.405-2.212z"/>
</svg>
