<svg xmlns="http://www.w3.org/2000/svg" width="19" height="14" viewBox="0 0 19 14">
    <path fill="#4353FF" fill-rule="evenodd" d="M18.433.293A1.048 1.048 0 0 0 17.7 0c-.276 0-.52.098-.732.293L6.25 11.035 1.782 6.543a1.048 1.048 0 0 0-.732-.293c-.277 0-.521.098-.733.293A1.006 1.006 0 0 0 0 7.275c0 .277.106.521.317.733l5.2 5.224c.115.098.224.171.33.22.106.049.24.073.403.073a.963.963 0 0 0 .403-.073 1.45 1.45 0 0 0 .33-.22l11.45-11.474c.211-.212.317-.456.317-.733 0-.276-.106-.52-.317-.732z"/>
</svg>
