<svg xmlns="http://www.w3.org/2000/svg" xmlns:xlink="http://www.w3.org/1999/xlink" width="60" height="60" viewBox="0 0 60 60">
    <defs>
        <circle id="a" cx="30" cy="30" r="30"/>
        <mask id="b" width="60" height="60" x="0" y="0" fill="#fff">
            <use xlink:href="#a"/>
        </mask>
    </defs>
    <g fill="none" fill-rule="evenodd">
        <use fill="#3B3B3B" stroke="#9D9D9D" stroke-dasharray="4" stroke-width="2" mask="url(#b)" xlink:href="#a"/>
        <g fill="#FFF" fill-rule="nonzero">
            <path d="M36.094 21.75H24.406c-1.464 0-2.656 1.17-2.656 2.608v9.127c0 1.438 1.192 2.608 2.656 2.608h9.065a.658.658 0 0 0 .664-.652.658.658 0 0 0-.664-.652h-2.446l-1.527-1.945 4.838-6.041 3.258 3.534c.184.2.474.268.73.17a.653.653 0 0 0 .426-.608v-5.541c0-1.438-1.192-2.608-2.656-2.608zm1.328 6.457l-2.629-2.852a.669.669 0 0 0-1.014.034l-5.117 6.39-1.738-2.212a.668.668 0 0 0-1.052 0l-1.461 1.865a.644.644 0 0 0 .121.915c.29.22.708.166.931-.12l.936-1.194 2.949 3.756h-4.942a1.318 1.318 0 0 1-1.328-1.304v-9.127c0-.72.596-1.304 1.328-1.304h11.688c.732 0 1.328.585 1.328 1.304v3.85z"/>
            <path d="M26.447 23.923c-1.11 0-2.013.878-2.013 1.956 0 1.079.903 1.956 2.013 1.956 1.11 0 2.014-.877 2.014-1.956 0-1.078-.904-1.956-2.014-1.956zm0 2.608a.662.662 0 0 1-.67-.652c0-.36.3-.652.67-.652.37 0 .671.293.671.652 0 .36-.3.652-.67.652zM37.28 31.796l-.005-.006a1.71 1.71 0 0 0-1.196-.478c-.45 0-.874.169-1.193.475l-1.303 1.233a.628.628 0 0 0-.007.915c.262.255.69.257.955.006l.873-.825v3.634c0 .357.302.647.675.647.373 0 .675-.29.675-.647v-3.614l.836.827a.688.688 0 0 0 .485.197c.169 0 .338-.06.47-.182a.629.629 0 0 0 .015-.915l-1.28-1.267z"/>
        </g>
    </g>
</svg>
