<svg width="28.648" height="29.483999999999998" xmlns="http://www.w3.org/2000/svg">

 <g>
  <title>background</title>
  <rect fill="none" id="canvas_background" height="402" width="582" y="-1" x="-1"/>
 </g>
 <g>
  <title>Layer 1</title>
  <path stroke="#000" fill="#ffffff" stroke-width="0" id="svg_3" d="m14.344,12.503c-0.006,-0.001 -0.012,-0.001 -0.018,-0.001s-0.012,0 -0.018,0l0,0.001c-1.21,0.03 -2.186,1.021 -2.186,2.237c0,1.217 0.975,2.208 2.186,2.235l0,0.002c0.006,0 0.012,-0.002 0.018,-0.002c0.005,0 0.011,0.002 0.018,0.002l0,-0.002c1.222,-0.027 2.186,-1.02 2.186,-2.235c-0.004,-1.218 -0.967,-2.207 -2.186,-2.237z"/>
  <path stroke="#000" fill="#ffffff" id="svg_2" d="m27.598,12.929c-2.763,-2.246 -7.408,-5.511 -13.256,-5.621c-0.006,0 -0.012,0 -0.018,0s-0.012,0 -0.018,0c-5.842,0.112 -10.494,3.375 -13.254,5.621c-0.132,0.109 -1.036,0.8 -1.052,1.687c-0.011,0.624 0.28,1.085 0.699,1.47c2.255,2.182 7.176,6.059 13.609,6.088l0,0.002c0.006,0 0.012,0 0.018,0c0.005,0 0.011,0 0.018,0l0,-0.002c6.445,-0.029 11.354,-3.906 13.607,-6.088c0.418,-0.385 0.708,-0.846 0.697,-1.47c-0.016,-0.887 -0.918,-1.578 -1.05,-1.687zm-13.272,7.567c-3.162,-0.021 -5.719,-2.59 -5.719,-5.756c0,-3.167 2.557,-5.735 5.719,-5.755c3.17,0.02 5.718,2.589 5.718,5.755c0,3.166 -2.547,5.735 -5.718,5.756z"/>
 </g>
</svg>